<?xml version="1.0" encoding="utf-8"?>
<!-- Generator: Adobe Illustrator 25.2.0, SVG Export Plug-In . SVG Version: 6.00 Build 0)  -->
<svg version="1.1" id="Layer_1" xmlns="http://www.w3.org/2000/svg" xmlns:xlink="http://www.w3.org/1999/xlink" x="0px" y="0px"
	 viewBox="0 0 200 200" style="enable-background:new 0 0 200 200;" xml:space="preserve">
<style type="text/css">
	.st0{fill:url(#SVGID_1_);}
</style>
<linearGradient id="SVGID_1_" gradientUnits="userSpaceOnUse" x1="4.1321" y1="100" x2="195.8679" y2="100">
	<stop  offset="0" style="stop-color:#73369B"/>
	<stop  offset="0.5" style="stop-color:#FD1D1D"/>
	<stop  offset="1" style="stop-color:#FCB045"/>
</linearGradient>
<path class="st0" d="M195.87,71.8c-7.82,9.11-17.31,16.99-25.74,25.63c-3.11,2.63-6.34-3.76-8.49-5.52
	c-4.49-4.95-8.91-9.98-13.39-14.92c-3.93,22.41-2.46,45.49,0.38,67.97c1.03,8.26,2.16,16.51,3.25,24.76
	c0.24,3.73,2.21,8.26-1.2,11.1c-13.98,12.9-86.25,12.81-100.65,0.26c-3.04-2.54-2.12-6.5-1.63-9.92c0.27-2.06,0.55-4.12,0.82-6.19
	c0.84-6.37,1.66-12.74,2.46-19.11c3.12-22.77,4.2-45.99,0.63-68.78c-6.07,5.95-11.58,12.83-17.45,19.1
	c-1.39,1.97-3.97,2.23-5.54,0.3C21.1,87.98,11.64,80.29,4.13,71.26c0-0.24,0-0.48,0-0.72c11.9-15.27,25.34-29.6,37.78-44.55
	C53.26,19.3,66.47,15.31,78.53,9.76c3.86-1.04,3.72,3.66,6.52,4.86c5.15,2.44,10.91,2.92,16.53,2.77c5.24-0.43,13.15-0.3,16.19-5.33
	c0.35-0.98,0.77-1.97,1.85-2.3c1.1-0.61,2.29-0.03,3.34,0.42c10.85,4.6,21.7,9.22,32.56,13.8c1.34,0.57,2.44,1.37,3.39,2.48
	c12.2,14.54,25.12,28.56,36.97,43.35C195.87,70.47,195.87,71.14,195.87,71.8z M32,90.75c6.27-6.87,12.46-13.78,18.74-20.64
	c0.49-0.53,0.65-1.09,0.54-1.81c-0.77-5.07-2.08-10.04-3.21-15.03c-1.2-3.19,3.54-5.52,5.07-2.36c8.66,30.72,8.78,63.22,4.51,94.68
	c-0.85,6.58-1.72,13.16-2.63,19.73c-0.34,2.51-0.68,5.02-1.03,7.53c-0.08,1.73-1.08,3.77,0.29,5.2c2.32,2.37,5.96,2.54,8.98,3.48
	c3.5,0.81,7.05,1.32,10.63,1.68c8.86,0.85,17.77,1,26.67,1.16c12.59,0.04,25.27-0.61,37.64-3.03c9.94-2.74,9.01-2.58,7.64-12.21
	c-4.33-30.42-8.57-61.31-3.95-91.96c1.19-8.51,2.92-16.94,4.95-25.29c0.76-3.23,5.16-2.99,5.56-0.06c0.4,3.41-4.96,16.38-2.64,18.43
	c5.86,6.41,11.67,12.88,17.5,19.32c0.68,0.99,1.42,1.17,2.21,0.15c5.96-5.99,11.92-11.98,17.92-17.92c0.54-0.55,1.44-1.23,0.75-2.02
	c-0.17-0.25-0.38-0.47-0.57-0.7c-10.86-12.67-21.73-25.32-32.56-38.02c-0.72-0.85-1.57-1.49-2.6-1.9
	c-9.78-4.09-19.5-8.31-29.29-12.4c-3.96,24.68-40.96,25.6-45.89,1.08c-0.2-0.93-0.43-1.05-1.32-0.67
	c-7.58,3.35-15.1,6.85-22.81,9.93c-4.8,1.88-8.79,5.2-12.04,9.16c-9.47,11.12-18.99,22.2-28.61,33.18
	c-0.75,0.73-1.23,1.59-0.08,2.36C18.96,78.1,25.43,84.45,32,90.75z"/>
</svg>
