<svg id="Layer_1" data-name="Layer 1" xmlns="http://www.w3.org/2000/svg" xmlns:xlink="http://www.w3.org/1999/xlink" viewBox="0 0 423.5 470.5"><defs><linearGradient id="linear-gradient" x1="260.86" y1="306.93" x2="427.8" y2="306.93" gradientUnits="userSpaceOnUse"><stop offset="0" stop-color="#833ab4"/><stop offset="0.52" stop-color="#fd1d1d"/><stop offset="0.95" stop-color="#fcb045"/></linearGradient><linearGradient id="linear-gradient-2" x1="99.22" y1="133.36" x2="407.78" y2="133.36" xlink:href="#linear-gradient"/><linearGradient id="linear-gradient-3" x1="73.48" y1="308.75" x2="240.42" y2="308.75" xlink:href="#linear-gradient"/><linearGradient id="linear-gradient-4" x1="29.33" y1="253.51" x2="460.69" y2="253.51" xlink:href="#linear-gradient"/></defs><path d="M265.86,439.61l19.93-12.16,19.7-12.1,38.83-24,38.3-23.58,38.17-23.08-2,3.46c-.21-13.76-.31-27.52-.42-41.28L418,265.57,417.8,183l7.53,4.31L386,210.3c-13.11,7.63-26.17,15.36-39.33,22.91L307.29,256c-13.13,7.61-26.34,15.07-39.52,22.6l1.87-3.26c-.19,13.42-.37,26.83-.72,40.32l-1,40.65-1.12,41.3-.49,20.91Zm0,0-.43-20-.49-20.16-1.11-40.86-1-41.49c-.35-13.9-.53-27.87-.72-41.83l0-2.12,1.89-1.14c13-7.85,25.93-15.78,39-23.54L342,225.12c13-7.83,26.1-15.48,39.14-23.23l39.18-23.17,7.55-4.47,0,8.77-.24,82.55-.34,41.28c-.11,13.76-.21,27.52-.42,41.28l0,2.36-1.95,1.09-40.3,22.66L344.34,396.4,304.7,418.12l-19.53,10.77Z" transform="translate(-37.21 -18.26)" style="fill:url(#linear-gradient)"/><path d="M252.14,49l18.2,9,18.28,9.11,36.76,18.46,36.94,18.79c12.34,6.27,24.65,12.7,37,19.07l6.17,3.19-6.06,3.61-18.29,10.89L362.8,151.9l-36.69,21.6c-12.23,7.2-24.54,14.28-36.8,21.42L252.5,216.31l-2.45,1.42-2.47-1.37-35.13-19.57-35.11-19.6-35-19.78-17.5-9.89-17.45-10-6-3.41,5.84-3.36c12.15-7,24.26-14,36.41-20.93L180,89.2l36.19-20.3,18-10Zm0,0-17.8,11.4L216.62,71.64,181.38,93.91l-35.09,21.93c-11.67,7.28-23.37,14.43-35,21.62l-.11-6.76,17.73,9.48,17.69,9.57,35.35,19.16,35.26,19.33,35.24,19.37-4.92,0,36.93-21.19c12.32-7.05,24.6-14.16,36.95-21.15l37.05-21L377,133.86l18.58-10.39.11,6.79c-11.88-6.6-23.79-13.14-35.67-19.84L324.25,90.29,288.33,69.82,270.28,59.47Z" transform="translate(-37.21 -18.26)" style="fill:url(#linear-gradient-2)"/><path d="M235.45,441.43l-19.31-10.72L196.6,419.93,157,398.21,116.8,376c-13.43-7.48-26.87-15.07-40.3-22.66l-1.94-1.09,0-2.34-.26-20.64-.17-20.63-.34-41.28-.25-82.55,0-8.78L81,180.54l39.17,23.17c13,7.75,26.15,15.41,39.15,23.22l39,23.39c13,7.77,26,15.67,39,23.52l1.91,1.16,0,2.13c-.2,14-.36,27.95-.72,41.85l-1,41.5-1.14,40.85-.49,20.15Zm0,0L235,420.31l-.49-20.92-1.13-41.3-1-40.65c-.36-13.48-.52-26.88-.72-40.31l1.88,3.3c-13.18-7.53-26.38-15-39.5-22.62l-39.42-22.76c-13.15-7.57-26.21-15.29-39.32-22.92l-39.3-23,7.53-4.31-.25,82.55-.34,41.28-.17,20.63L82.48,350l-2-3.43c12.73,7.66,25.46,15.32,38.18,23.09L157,393.18l38.84,24,19.7,12.08Z" transform="translate(-37.21 -18.26)" style="fill:url(#linear-gradient-3)"/><path d="M250,18.26,225.42,33.62q-12.28,7.68-24.63,15.27L176.12,64.1l-12.34,7.6-12.37,7.53-49.49,30.16-49.59,30V128.9L103,157.11l50.59,28.35,50.51,28.46,50.45,28.58h-9.08l50-29.4,50-29.29,50.08-29.21,50.13-29.12,15-8.73,0,17.38L460.62,192l-.17,57.85-.27,57.84-.39,57.85,0,5.32-4.5,2.55L404.8,402l-50.51,28.47L303.7,458.78,253,487l-3.17,1.77L247,487l-49.6-30.05-49.48-30.25c-16.51-10-32.91-20.29-49.37-30.44q-12.35-7.59-24.63-15.31L49.31,365.52l25.6,13.64q12.8,6.84,25.54,13.74c17,9.23,34,18.35,51,27.68l50.87,27.86L253,476.49H247l49.68-29.9,49.77-29.76,49.83-29.65,49.9-29.52-4.54,7.86-.39-57.85-.27-57.84L440.77,192l-.07-57.85,15,8.65-50.21,29-50.26,28.9-50.31,28.81-50.38,28.71-4.63,2.64-4.45-2.64-49.9-29.53L145.73,199,96,169.25,46.28,139.36l-9.07-5.46,9.08-5,50.75-28L147.9,73.15l12.71-6.94,12.75-6.89,25.5-13.76q12.75-6.91,25.54-13.7Z" transform="translate(-37.21 -18.26)" style="fill:url(#linear-gradient-4)"/></svg>