<svg xmlns="http://www.w3.org/2000/svg" xmlns:xlink="http://www.w3.org/1999/xlink" viewBox="0 0 500 500" xmlns:v="https://vecta.io/nano"><defs><linearGradient id="A" x1="3" y1="250" x2="497" y2="250" gradientUnits="userSpaceOnUse"><stop offset="0" stop-color="#833ab4"/><stop offset=".5" stop-color="#fd1d1d"/><stop offset="1" stop-color="#fcb045"/></linearGradient><linearGradient id="B" x1="235.01" y1="145.85" x2="266.3" y2="145.85" xlink:href="#A"/></defs><path d="M0 0h500v500H0z" fill="#231f20" opacity="0"/><g transform="translate(.25)"><path d="M496.93 199.28c.39 2.09-.94 3.74-2.38 5q-17.67 18-35.34 36.09c-5.17 3.73-31.81 36.49-34.68 32.26-17.1-16.59-32.92-34.84-50.38-51-2.29 55.9 0 116.38-.67 173.78-.19 13.08.43 26.23-.19 39.28-76.8 8.73-162.65.1-242.39 3.05-2.91-.85-3-3.66-2.92-6.24q0-29.54 0-59.07 0-75.23 0-150.44c-.18-1.34-1.68-.11-2.13.42L79 270.76c-1.39 1.6-3.48 3.51-5.47 1.69C49.7 249.22 27.35 223.26 3 201.21v-1.45L109.87 90.64C132 70.29 164.12 80 191.21 78a19.5 19.5 0 0 0 10.74-3 118.39 118.39 0 0 1 19.94-9c25.83-9.28 54.68-4.59 78.12 9.23A20.07 20.07 0 0 0 310.35 78l50.16-.11c6.24 0 12.24 2.15 17.87 4.73 14.37 6.47 24.21 19.32 35.16 30.31 27.35 29.17 56.65 56.77 83.39 86.35zm-334 68.09h0v-151.8c-.56-3.82 15.94-1.17 18.92-2a4 4 0 0 1 3.7 2.12c6.74 12 19 18.76 31.6 22.46 3.65.68 6.22 3.6 5.75 7.49q0 10 0 20-.06 126.12-.08 252.25c-.75 6.34 6.72 4.24 10.59 4.42l26-.06c4.33-.91 18.61 2.78 19.13-2.78.62-19.45-.21-39 .08-58.46q0-107.08-.08-214.15c-.66-5.11 2.66-8.56 7.45-9.24a63.59 63.59 0 0 0 13.19-5.13c12.12-5.45 13-20.44 28.4-19.15 7.16.67 11.86-2.31 11.09 8.12l-.15 60.16q0 119.08 0 238.15c-.14 2.13 1.31 2.77 3.18 2.6a66.74 66.74 0 0 1 10.58.05c2.32.21 5.22.15 5.66-2.79l.09-233.17c-.33-6.34 5.22 1.92 6.94 3.22l59.66 61c1.59 1.41 3.26 0 4.41-1.32l46.46-47.75c1.29-1.78-.22-3.5-1.52-4.72l-92.33-94.4c-10.71-11.35-26.75-9.13-40.79-9.26-8.47.33-17-.24-25.42.14-5.26.34-3.59 19.21-20 29.08a61.12 61.12 0 0 1-19.23 8.55c-1.57.24-2.54-1-2.84-2.43-.92-4.37-2.29-8.61-3.46-12.9-4.15-10.63 5.89-7.56 12.27-11.71 4.16-1.94 14.41-10.06 10.73-14.93-21.95-13.85-50.34-16.19-74-5.38-3.81 2.15-12.91 4.06-10.84 10 8.88 16 27.74 10.77 24.48 18.25-1.56 5.31-3 10.65-4.3 16-.66 2.79-2 3.56-4.69 2.72a65 65 0 0 1-16.31-7.39 39.49 39.49 0 0 1-17.6-24.8c-.49-2.23-.86-5-3.64-5.17-12.78.05-25.59-.36-38.38 0-9.53-.38-19.36 1.25-26.66 8l-93.49 95.43c-2.11 1.92-2.87 4.47-.08 6.46q7.74 7.85 15.48 15.69Q57.53 233.94 72 249c2.08 2.63 4.36 2.91 6.47.18l61.9-63.65c1.82-1.78 3.39-2.44 3 .82l-.39 233c2.47 6.36 11.08 1.84 16.14 3.13 3.63.16 3.9-3.36 3.78-6.25q-.05-74.4-.02-148.86z" fill="url(#A)"/><path d="M258.44 153.81c-.16 8.7.34 17.48-.2 26.14-1.56 4-8.58 2-11.93 1.82-3.45-.64-3.27-4.79-3.35-7.61l-.06-46.88c-.7-5-9.3.58-7.69-6.43 1.07-3.71.9-9.56 5.28-10.81 6.71-.78 13.58.07 20.33-.68 3.41-.65 3.47 3 4 5.5.32 3.44 4.26 11.12-2.13 9.93-6.81-.44-3.62 8.8-4.3 13.11v15.91zm-4.92-4.22l-.08-16.27c.57-4.16-2.56-13.9 4.3-12.82 2.19.57 3.38-.53 2.75-2.81-.34-5.25-6.23-2.23-9.55-2.75-3.66.37-10-2.53-10.17 3.35-.54 5.38 7.86-1.6 7.21 6.63-.27 13.45.09 26.91 0 40.37.8 3.54-2.5 12.68 3.21 12 4-.12 1.78-5.48 2.36-8.12q-.04-9.81-.03-19.58z" fill="url(#B)"/></g></svg>