<svg id="Layer_1" data-name="Layer 1" xmlns="http://www.w3.org/2000/svg" viewBox="0 0 296.66 96.98"><path d="M84.5,29.64,45.79,51.76,1.37,25.06l4.87-2.68q4.76-2.61,9.53-5.2c1.79-1,3.6-1.93,5.4-2.89L32.69,8.14C34.82,7,37,5.88,39.1,4.76l6.32-3.29.43-.21.1.18L8,25.05c.49.29,1,.6,1.53.89,2.66,1.46,5.33,2.91,8,4.38,3.78,2.1,7.57,4.2,11.34,6.31q4.15,2.31,8.27,4.65c2.77,1.57,5.53,3.16,8.31,4.7a1.12,1.12,0,0,0,.89-.08c1.72-1,3.42-2,5.13-3l6.81-4,8.54-5c2.36-1.38,4.75-2.74,7.12-4.12,3.31-1.92,6.6-3.86,9.91-5.79,1.85-1.08,3.71-2.15,5.56-3.21a2,2,0,0,1,.29-.12.64.64,0,0,1,0,.2c0,.17,0,.34,0,.51q-.06,19.69-.13,39.4c0,4.25-.09,8.5-.12,12.75a.74.74,0,0,1-.4.76c-1.52.83-3,1.7-4.51,2.55-2.53,1.44-5.07,2.88-7.6,4.3-1.93,1.08-3.86,2.14-5.79,3.21L62.82,89c-1.65.92-3.32,1.82-5,2.73l-8.13,4.53c-1.22.67-2.44,1.35-3.67,2a.65.65,0,0,1-.52-.07L35.28,91.86c-3.58-2.19-7.17-4.36-10.74-6.58-3.05-1.9-6.07-3.85-9.11-5.77L4.78,72.79s-.06-.06,0-.18l.41.2L15,77.92c2.52,1.32,5,2.67,7.55,4,3.27,1.75,6.53,3.52,9.78,5.28q4.32,2.34,8.61,4.69c1.48.81,3,1.62,4.42,2.46a.78.78,0,0,0,.9,0c3.42-2.09,6.84-4.19,10.27-6.27,2.77-1.68,5.56-3.35,8.34-5l8.46-5c2.83-1.69,5.67-3.39,8.51-5.07.79-.47,1.58-.92,2.38-1.38a.85.85,0,0,0,.45-.86c0-3.58,0-7.16,0-10.74Q84.57,45,84.5,30Z" transform="translate(-1.37 -1.26)" style="fill:#f1f5f9"/><path d="M10,34.31l3.39,2L19.64,40l7.87,4.69,8.42,5q3.62,2.14,7.23,4.32a.58.58,0,0,1,.23.43c0,1.78,0,3.56,0,5.34,0,1.58-.1,3.16-.12,4.74-.05,3.81-.08,7.62-.13,11.42,0,2.75-.07,5.5-.13,8.24,0,1.34-.12,2.68-.19,4.08-.83-.46-1.65-.89-2.46-1.35-1.54-.86-3.07-1.74-4.61-2.61L28,79.88l-5.28-3L15.4,72.76c-1.63-.93-3.27-1.83-4.88-2.77a.93.93,0,0,1-.4-.66c-.07-3.28-.13-6.56-.14-9.83q0-12.18,0-24.35Zm1.42,2.47c0,.25,0,.37,0,.5q-.07,8.19-.13,16.37c0,1.06,0,2.12,0,3.18,0,3.92,0,7.84,0,11.76a.83.83,0,0,0,.24.61c1,.66,2.09,1.28,3.14,1.91l7.65,4.58L31,81l8,4.78,3.84,2.32c0-.3,0-.51,0-.71,0-1.71-.09-3.42-.12-5.12,0-2.75-.08-5.5-.13-8.24,0-2.52-.09-5-.12-7.54,0-3.47-.12-6.94-.11-10.4a1.76,1.76,0,0,0-1-1.87C39,53,36.73,51.55,34.47,50.24c-2-1.15-4-2.27-5.94-3.42L22,43l-6.4-3.74Z" transform="translate(-1.37 -1.26)" style="fill:#f1f5f9"/><path d="M15.82,25.12l2-1.22c3.63-2.12,7.25-4.24,10.89-6.34,3-1.72,6-3.4,8.93-5.11,2.75-1.56,5.48-3.15,8.24-4.69a1.12,1.12,0,0,1,.91.06c3,1.51,5.94,3,8.91,4.56,3.3,1.7,6.61,3.38,9.9,5.08,2.93,1.51,5.84,3,8.76,4.57.94.49,1.87,1,2.86,1.54-1,.62-2,1.23-3,1.81L67.9,29.09l-5.72,3.32-5.77,3.35q-3.07,1.79-6.14,3.58c-1.24.72-2.49,1.44-3.71,2.18a1.3,1.3,0,0,1-1.45,0c-2.16-1.24-4.35-2.44-6.53-3.66L30,33.08,24.47,30Zm59.09-1.48c-.26-.17-.44-.3-.63-.4L66.62,19q-4.7-2.6-9.38-5.2C53.75,11.88,50.25,10,46.78,8a.85.85,0,0,0-1,0L39.7,11.8c-2.75,1.71-5.52,3.4-8.28,5.09l-8,4.89C21.7,22.85,20,23.93,18.17,25a2,2,0,0,0,.32.25l3.4,1.84,9.59,5.24c1.91,1.05,3.84,2.07,5.76,3.13q4,2.22,8.06,4.49a1,1,0,0,0,1.1,0c2.33-1.34,4.67-2.65,7-4,3.51-2,7-4.07,10.52-6.08S71.18,25.75,74.91,23.64Z" transform="translate(-1.37 -1.26)" style="fill:#f1f5f9"/><path d="M49,87.91c0-1.32,0-2.54,0-3.76q-.06-5-.13-10c0-2.64-.09-5.28-.12-7.92-.05-3.45-.09-6.89-.14-10.34a12.65,12.65,0,0,0-.13-1.5.87.87,0,0,1,.51-1Q55,49.93,61,46.36l11.36-6.77c3.13-1.85,6.27-3.68,9.41-5.52a3.9,3.9,0,0,1,.4-.16c-.06,1.25-.12,2.42-.17,3.59,0,.21,0,.42,0,.63q0,15.3,0,30.58a1,1,0,0,1-.56,1c-3.12,1.75-6.21,3.54-9.33,5.3-2.48,1.41-5,2.78-7.46,4.18L54,85.16C52.39,86.07,50.75,87,49,87.91ZM80.69,36.33l-1.49.88-5.71,3.33-7,4.09-5.87,3.43-5.88,3.41c-1.58.92-3.17,1.83-4.74,2.77a.88.88,0,0,0-.36.62c-.07,1.92-.11,3.84-.14,5.76,0,2.85-.1,5.71-.13,8.56-.05,5.1-.08,10.2-.13,15.3,0,.2-.07.41-.07.61,0,.83,0,1.66,0,2.55.2-.09.34-.14.46-.21,2.75-1.67,5.5-3.36,8.26-5q5.65-3.42,11.32-6.8c3.64-2.19,7.27-4.37,10.92-6.54a1,1,0,0,0,.57-1q0-15.54,0-31.08Z" transform="translate(-1.37 -1.26)" style="fill:#f1f5f9"/><path d="M126.15,30.73V50.14H111.82a17.33,17.33,0,0,1-12.11-4.86,16.42,16.42,0,0,1,0-23.79,17.33,17.33,0,0,1,12.11-4.86h14.26V19.4H109.83a14.31,14.31,0,0,0-12.57,14,14.31,14.31,0,0,0,12.57,14h13.55V33.5h-10.7l-1.28-2.77Z" transform="translate(-1.37 -1.26)" style="fill:#f1f5f9"/><path d="M160.39,16.54V38.23a9.58,9.58,0,0,1-2.52,6.54,16.81,16.81,0,0,1-22.45,2,17.43,17.43,0,0,1-2.21-2,9.58,9.58,0,0,1-2.5-6.52V16.54h2.77V35.21a12.18,12.18,0,0,0,11.64,12.15H146a12.17,12.17,0,0,0,11.65-12.15V16.54Z" transform="translate(-1.37 -1.26)" style="fill:#f1f5f9"/><path d="M195.23,33.42A16.84,16.84,0,0,1,180.5,50.14H165.23V47.37h15.09l.08,0a14.08,14.08,0,0,0,12.06-13.93,13.68,13.68,0,0,0-.28-2.79A14.09,14.09,0,0,0,179,19.35H165.23V16.56h13.34a16.88,16.88,0,0,1,16.66,16.86ZM167.08,45.07l-1.85.91V24.36H168V44.61Z" transform="translate(-1.37 -1.26)" style="fill:#f1f5f9"/><path d="M207.79,26.65l1.65,3.18L198.88,50.14h-3.3Zm22.5,23.49H227L214.3,25.73l-3-5.79,1.64-3.17,2.07,4Z" transform="translate(-1.37 -1.26)" style="fill:#f1f5f9"/><path d="M259.73,16.54V48.26l-3.13-3.13L238.41,26.94l-2.07-2.07-2.77-2.77V18.18L257,41.57v-25ZM233.57,29.2,236.34,32V50.14h-2.77Z" transform="translate(-1.37 -1.26)" style="fill:#f1f5f9"/><path d="M295.45,30.73V50.14H281.12A17.33,17.33,0,0,1,269,45.28a16.44,16.44,0,0,1,0-23.79,17.33,17.33,0,0,1,12.11-4.86h14.26V19.4H279.14a14.3,14.3,0,0,0-12.57,14,14.31,14.31,0,0,0,12.57,14h13.54V33.5H282l-1.28-2.77Z" transform="translate(-1.37 -1.26)" style="fill:#f1f5f9"/><path d="M120.09,81.24H117.6l-7.7-12.62-.21-.36-.37-.6-.68.19h-.07l-.16,0h-.09L108,68l-.67.13-.17,0h-.12l-.24,0h-.12l-.26,0h0l-.3,0h-.05l-.27,0H99.08V81.24H97v-15h8.2a10.78,10.78,0,0,0,4.28-.88,10.64,10.64,0,0,0,3.29-2.23,10.85,10.85,0,0,0,2.7-4.38l.39-1.21H99.08V64l-1,.47L97,65V55.37h21.11v.05a12.6,12.6,0,0,1-.31,2.81,12.89,12.89,0,0,1-3.53,6.37c-.17.17-.34.32-.5.47l-.17.14,0,0-.22.19h0l-.16.13-.07.06,0,0-.44.32-.16.11h0l0,0-.18.11,0,0h-.05l0,0-.77.49.48.78.48.78Z" transform="translate(-1.37 -1.26)" style="fill:#f1f5f9"/><path d="M124.05,57.58V55.45h22.59v2.13Zm2.12,21.53h20.47v2.13H124.05V61.43h2.12v4.85H144v2.13H126.17Z" transform="translate(-1.37 -1.26)" style="fill:#f1f5f9"/><path d="M151.27,62.42a4.86,4.86,0,0,0,4.86,4.85h8.62a7,7,0,1,1,0,14h-15.6V79.11h15.6a4.86,4.86,0,1,0,0-9.71h-8.62a7,7,0,1,1,0-14H172v2.12H156.13A4.87,4.87,0,0,0,151.27,62.42Z" transform="translate(-1.37 -1.26)" style="fill:#f1f5f9"/><path d="M175.91,57.58V55.45H198.5v2.13ZM178,79.11H198.5v2.13H175.91V61.43H178v4.85h17.78v2.13H178Z" transform="translate(-1.37 -1.26)" style="fill:#f1f5f9"/><path d="M222.12,79.11v2.13H202.46v-26h2.13V79.11Z" transform="translate(-1.37 -1.26)" style="fill:#f1f5f9"/><path d="M245.72,79.11v2.13H226.06v-26h2.13V79.11Z" transform="translate(-1.37 -1.26)" style="fill:#f1f5f9"/><path d="M249.66,57.58V55.45h22.59v2.13Zm2.13,21.53h20.46v2.13H249.66V61.43h2.13v4.85h17.79v2.13H251.79Z" transform="translate(-1.37 -1.26)" style="fill:#f1f5f9"/><path d="M298,81.24h-2.49l-7.7-12.62-.22-.36-.37-.6-.67.19h-.08l-.16,0h-.08L286,68l-.66.13-.17,0H285l-.23,0h-.13l-.25,0h0l-.31,0h0l-.28,0H277V81.24h-2.12v-15h8.19a10.69,10.69,0,0,0,7.58-3.11,10.72,10.72,0,0,0,2.69-4.38l.39-1.21H277V64l-1,.47-1.16.58V55.37H296v.05a13.21,13.21,0,0,1-.3,2.81,12.83,12.83,0,0,1-3.54,6.37c-.17.17-.33.32-.5.47l-.16.14,0,0-.23.19h0l-.16.13-.07.06,0,0-.44.32-.17.11h0l0,0-.18.11,0,0h0l0,0-.77.49.47.78.48.78Z" transform="translate(-1.37 -1.26)" style="fill:#f1f5f9"/></svg>