<svg id="Layer_1" data-name="Layer 1" xmlns="http://www.w3.org/2000/svg" xmlns:xlink="http://www.w3.org/1999/xlink" viewBox="0 0 490 492.25"><defs><linearGradient id="New_Gradient_Swatch_1" x1="5" y1="250" x2="495" y2="250" gradientUnits="userSpaceOnUse"><stop offset="0" stop-color="#833ab4"/><stop offset="0.5" stop-color="#fd1d1d"/><stop offset="1" stop-color="#fcb045"/></linearGradient></defs><path d="M5.22,91.16C2.53,41.94,24.67-2.56,73.93,4.65c50.61,7.45,92.31,43.62,138.6,64.75,36.88,17.27,58.89,18.52,96.53,4,73.39-25.45,157.63-29.72,179,72.32,1.77,12.36,6.1,24.24,6.51,36.82.24,11.05-.21,22.1-.2,33.15-.78,79,2.62,158.58-1.28,237.36-4.76,23.23-22.41,39.88-43.48,42.54-125.39-1.69-251.44,3.3-376.51-1.82-22.63-6-37.75-30.28-37.09-55.91q.06-106.45,0-212.92c-.22-9.57-5.38-17.89-7.89-26.85C16.33,163.73,7.73,127.91,5.22,91.16Zm259.89,90.68q-107.18,0-214.35,0c-2.14-.06-2.56,2.28-2.49,4.22.34,39.22.11,78.45.18,117.67-1,21.54,10.12,41.15,29.21,46.79,12.9,3.3,26.31,1.45,39.44,1.79,2.09-.59,11.27,1.64,10.47-2-1-6.88,4.63-4.64,8.46-5.18,6.53-1.06,3.85,8.6,4.24,12.91,0,8.58-.09,17.16,0,25.74.06,2.36,1.47,2.7,3.3,2.56,2.82-.88,14.87,1.8,14.6-1.95.31-12.46-.29-25,.16-37.45.67-3.33,4-.7,6-1.64,9.23-3.06,3.26,8,10.94,7q93.59,0,187.18,0c6.4,1.14.49-6.23,5.6-7.08,2.49-.17,5,.37,7.47,0,2.31-.36,3.14,1.78,3,4.05,0,11.55-.15,23.1,0,34.64,0,2.54,2.3,2.6,4,2.45,3.9-.18,7.81,0,11.71,0,3,.09,2.26-3.87,2.25-6.12q0-13.87,0-27.77c-.82-8.32,5-7.67,10.51-7.11,3.76.26.11,6.28,3.48,6.88,11,.26,22.05.21,33.06-.1,21.78-.48,39.31-21.76,38.55-46,0-40.48.15-81,0-121.44.47-5.29-12.56-2.07-15.58-2.9Q365.82,181.85,265.11,181.84ZM265.4,482c63.35-1.81,127.52,3.66,190.49-2.17a37,37,0,0,0,21-18.85,51.17,51.17,0,0,0,5.19-23.29c-.47-30.05,1.05-61.2-.49-90.72-21.34,23.93-42.05,18.9-69.69,19.21-2.52,0-3.1.71-3.05,3.57a126.11,126.11,0,0,1,0,13.33c.19,6.83,10,0,11.78,7.44,1.48,14,.13,28.4.57,42.53,0,3.55-1.28,7.19-4.74,7.83-15,.9-30.1.07-45.12.36-7.33-.42-18.63,2.86-17.63-9.62.32-13.54-.69-27.21.46-40.67.94-7,10.79-1.94,11.59-6.58.12-4-.28-8,0-12,.09-2.38.65-6-2.36-6.12-11.73-.26-23.49,0-35.23-.08q-76.87.12-153.76,0c-1.64,0-3.81-.46-3.61,2.22,1.21,15.75-4.33,18.05,7.51,18.27,3.77.64,4.67,5,4.54,8.63q0,17.25,0,34.5c.55,6.36-1.18,12.28-7.93,11.36-17.86,0-35.72.06-53.58,0-4.22-.1-6.21-4.25-5.91-8.57q0-15.84,0-31.68c-.37-7.68-.34-15.9,8.84-14.55,2.71.53,3.8-1.43,3.41-4.19-.48-4.57.11-9.16,0-13.72-.27-2.44-2.57-2.32-4.27-2.29-25.15-.48-54.79,5.41-73.22-18.42-.35-.65-1.5-1.43-1.67-.2a9.12,9.12,0,0,0-.06,1.48c.63,32.87-1.28,66,.81,98.74,3.08,15.93,11.41,26.74,25.31,32C137.61,485.74,201.94,480.11,265.4,482Zm-7.57-314.07H432.35c2.1,0,2.1,0,1.65-2.34a81.52,81.52,0,0,0-5.58-17.76c-17.6-41.28-90.75-12.09-120.88-2.76C254,164.81,199.1,140.26,151.9,112.13c-26.77-14.74-52.85-33.7-82.76-39.08-3.46-.69-7.74-1.27-7.37,4.43-.51,15.25,2.51,30.33,5.46,45.13,2.47,7.83,8.44,43.46,14.16,45.08C140.16,168.35,199,167.68,257.83,167.91Zm-8.1-50.47h0V103.7c.3-5-.48-7.86-5.43-8.39C220.88,90,199,78.76,177.83,66.76c-38.68-20.62-77.73-51.95-122.48-48C.89,32,18.37,114,29.15,157.18c2.24,7.13,3.79,15.2,6.48,21.84,1.23-8.67.75-11.36,10.12-11.12h19c1.11,0,1.23-.17.91-1.34-7.66-29.64-21.71-70.74-14-101,10.33-22.67,74,15.69,89,24.26,32.81,19,66.05,39.44,102.91,46.47,2,.14,5.85,2.12,6.16-1.27C249.79,129.13,249.71,123.28,249.73,117.44Zm61.56-8.89h0c0,6.47,0,12.94,0,19.41-.06,1.46,1.21.65,1.94.47C345.05,119,379,106.56,411.9,115.64c20,5.62,31.1,27.17,34.67,48.54.47,3.28,2.12,3.91,4.89,3.75,5.11-.05,10.21-.33,15.32-.21,18.28,1.13,12.05-.07,9.51-18.17-6.31-33-25.75-63.45-55.74-73-35.4-11.67-72.55-.51-107.06,10-2.86.49-2.24,2.84-2.21,5.42Q311.3,100.26,311.29,108.55Zm-12.39,3.53h0c0-34.62,4.37-14.12-33.78-14.34-2.39-.06-2.72.32-2.72,3q0,17.11,0,34.23c0,2.94.36,3.33,3,3.36A106.18,106.18,0,0,0,289,135.77c3.07-1.33,10.38-.58,9.92-5.63Zm-149.74,315H167.5c2.59,0,3-.44,3-3.35-1.31-33,8.95-21.6-38.49-23.56-2.33-.23-4.54.12-4.08,3.39.22,6.73.17,13.46,0,20.2,0,2.88.4,3.33,3,3.33Zm238.26,0h0c27.12-.86,20.3,6.38,21.16-23.72,0-2.77-.36-3.19-2.87-3.19-12.55,0-25.11-.13-37.65,0-1.85.07-2,2-1.95,3.62q.13,9.84,0,19.68c-.36,2.48,1,4,3.2,3.58Z" transform="translate(-5 -3.88)" style="fill:url(#New_Gradient_Swatch_1)"/></svg>