<svg xmlns="http://www.w3.org/2000/svg" xmlns:xlink="http://www.w3.org/1999/xlink" viewBox="0 0 500 500" xmlns:v="https://vecta.io/nano"><defs><linearGradient id="A" x1="2.61" y1="250" x2="497.39" y2="250" gradientUnits="userSpaceOnUse"><stop offset="0" stop-color="#833ab4"/><stop offset=".5" stop-color="#fd1d1d"/><stop offset="1" stop-color="#fcb045"/></linearGradient><linearGradient id="B" x1="235.12" y1="140.97" x2="266.34" y2="140.97" xlink:href="#A"/><linearGradient id="C" x1="225.13" y1="251.14" x2="255.59" y2="251.14" xlink:href="#A"/><linearGradient id="D" x1="238.42" y1="272.77" x2="336.05" y2="272.77" xlink:href="#A"/><linearGradient id="E" x1="259.74" y1="244.46" x2="290.93" y2="244.46" xlink:href="#A"/><linearGradient id="F" x1="164.66" y1="244.55" x2="192.95" y2="244.55" xlink:href="#A"/><linearGradient id="G" x1="316.99" y1="240.09" x2="336.06" y2="240.09" xlink:href="#A"/><linearGradient id="H" x1="197.62" y1="244.43" x2="218.31" y2="244.43" xlink:href="#A"/><linearGradient id="I" x1="166.31" y1="272.76" x2="217.58" y2="272.76" xlink:href="#A"/><linearGradient id="J" x1="297.64" y1="244.12" x2="313.81" y2="244.12" xlink:href="#A"/></defs><path d="M0 0h500v500H0z" fill="#231f20" opacity="0"/><path d="M245.83 48.82a88 88 0 0 1 33.95 5.07 111.93 111.93 0 0 1 21.64 10.56c3 2.09 6.48 2.21 9.93 2.08 18.24.31 36.58-.72 54.78.34 29.66 7.12 49.33 41.9 71.33 63.15 19.71 22.2 40.65 43.34 59.82 66 1.75 4.29-18 21.12-21.27 26q-23.29 25.42-46.48 51c-2.57 3.47-5.08 1.9-7.27-1q-23.61-26.13-47.48-52c-1.93-1.27-1 4.77-1.19 5.89l.08 179.83c-.94 6.93 2.86 45.73-2.85 45.07-25.37 1.11-51.05-.23-76.53.22-54.59-.34-109.38.65-163.85-.24-1.73-.4-2.48-2.17-2.53-4v-76c-1.13-49.51 2.13-103.42-1.1-150.82l-49.69 54.17c-2.1 2.21-4.19 0-5.74-1.82-23-24.51-45-51.13-68.8-74.36C36 158.76 72.77 120.89 107.54 82.4c18.23-21.4 46-15 69.94-15.89 7.63-.64 16 1.92 23-2.27 13.86-8.71 29.37-14.24 45.35-15.42zM358.18 305l.28-125.63c18.1 18.08 35.21 38.23 52.79 57.19 2.17 3.21 4.77 3.14 7.06-.28q22.08-24.48 44.44-48.65c4.92-4-1.76-8-4.19-11.16l-79.66-86.4c-15.66-12-36.2-5.49-54.11-7-3.87.58-10-2.17-12.27 2.49-2.93 18.4-16.13 31.33-32.11 36.47-2.6 1.14-6.53 2.57-7.11-1.75-.11-4.63-7.54-20.24-2.35-21.55 8.12-2.49 16.82-5.46 21.43-13.85 1.17-2 2.59-4.78.43-6.57-15.7-10.1-34.58-14.9-52.72-12.07-6.32 1-36.3 8.33-31.59 18.37 4.57 7.44 12.5 11.39 20.27 13.48 3.9.26 4.95 2.07 3.5 6-1.41 5.09-2.8 10.19-3.84 15.39-1.31 7.53-9.46 1.11-13.47-.08-12.48-5.52-22.69-16.91-25.38-31.58-.38-1.94-.85-4.33-2.94-4.72-8.5-.48-17.12.1-25.67-.24-14.41.2-30.91-2.13-41.82 10.43l-81.8 89.53c-2.21 3.94 6 8.51 7.69 11.56q9.41 10.2 18.77 20.43l20.32 22.42c3.54 4.73 6.64-1.88 9.33-4.33l47.09-51.73c.53-.78 2.79-2.07 2.78-.22l-.15 247.09c0 2.63.1 6.19 3.22 6.42a16.23 16.23 0 0 0 2.95.23l13.47-.11 63.37-.1 129.23-.07c5.15-1.86 2.12-10.22 2.82-14.71l-.06-114.7z" fill="url(#A)"/><path d="M239.17 148.49v-28.31c.14-1.81-.14-3.9-2.23-3.67-4.2-1.67.19-10.18.21-13.72.22-2.1.83-2.71 2.73-2.65 5.17.27 10.33.77 15.51.38 2.56.4 7.3-2.09 8.38 1.4a84 84 0 0 1 2.57 12.89c.05 1.52-1.38 1.43-2.37 1.7-2.56.55-2.72 3.29-2.27 5.63.76 6.48-.06 13 .18 19.56q0 16.1 0 32.18c0 3 .88 8.17-3.13 8-27.01-.88-18.09 6.47-19.58-33.39zm7.85-3.13h0v24.31c-.46 3 1.59 4.28 4.1 3.82 4.8.5 2.89-5.48 3.15-8.78v-45.22c-.44-2.9-7-3.13-7.18.07-.17 8.6-.02 17.2-.09 25.8z" fill="url(#B)"/><path d="M231.39 257.91c-.26 5.34 0 10.78-.1 16.15 0 1.84 0 1.85-1.74 1.86-1.38-.31-4.35 1-4.24-1.4l-.18-46c0-1.12.1-1.31 1.15-1.34 5.17-.33 4.14.07 4.57 5.11 13.59-15.8 29.72 2.64 23.27 20.07-2.95 10.42-16.12 13.84-22.73 5.55zm8.88-26.15c-11.59-.27-12.69 24.13-1.45 25.46 13.29 2.23 14.47-25.33 1.45-25.46z" fill="url(#C)"/><path d="M287.34 269.53h46.79c1.88 0 1.88 0 1.89 2.08-.15 2.08.77 4.94-2.16 4.31h-93.81c-2.67.35-1.18-3.48-1.51-5.22 0-1 .18-1.12 1.09-1.16q23.87-.03 47.71-.01z" fill="url(#D)"/><path d="M290.87 244.33c1.43 19.3-24.41 25.62-30 7.11-8.08-27.16 29.43-36.09 30-7.11zm-15.38-12.85c-13.62 0-12.09 29 1.86 25.79 10.65-2.98 9.87-25.67-1.86-25.79z" fill="url(#E)"/><path d="M181.61 245.77c-1.93.48-10.92-1.11-11 .91.34 6.37 3.8 9.64 7.92 10.41 9.15 2 11.53-4.76 12.24 1.94.77 2.56-3.47 2.45-5 3.05-15.37 3.92-25.35-10.39-19.47-25.87 6.66-16.65 28.12-10.86 26.49 7.63-.12 1.09 0 2.09-1.32 1.92zm-2.71-4.69c1.49-.43 8.91 1.18 8.08-1.28-.25-3.17-1.59-6.6-4.43-7.88-4.82-2.59-10.92 1.86-11.64 7.75-1.15 2.68 6.52.95 7.99 1.41z" fill="url(#F)"/><path d="M321.87 242.92v-7.48c0-3.61.3-3.13-2.84-3.17-2.68.64-1.91-2.28-2-4.18a.8.8 0 0 1 .86-.91c6 .55 3.43-1.82 4-6.83 0-1.28.08-1.36 1.23-1.7 7.06-2.67 4.11 0 4.71 6.71-.7 3.12 4.9 1.35 6.73 1.8 2.2-.34 1.31 2.45 1.44 3.94.1 2.26-4.89.77-6.37 1.18-1.77 0-1.8 0-1.8 1.93v16c-.5 4.88 2 8 6.6 6.72 1.64-.3.9 2.57 1.18 3.67.14 2.71-6 2-7.71 1.68-7.9-2.12-5.72-12.73-6.03-19.36z" fill="url(#G)"/><path d="M206.38 262.48a15.58 15.58 0 0 1-8.41-2c-1.05-1.11.58-3.23.74-4.61.21-.62.37-.65 1.08-.24 3.68 2.16 11 3.87 12.57-1.88a5 5 0 0 0-1.91-5.23c-2.82-2.06-6.38-2.57-9-5.07-8.14-7.93.8-18.59 9.14-17 1.56.26 7.39.81 6.28 3.4-.61 1.06-.49 4.31-2.18 3-10.84-5.39-15.48 6.19-3.09 9.48 11.75 4.96 6.82 21.52-5.22 20.15z" fill="url(#H)"/><path d="M192 269.53h23.75c1.73 0 1.75 0 1.76 2-.25 1.38.81 4.45-1.12 4.42h-47.84c-3.3.66-1.9-3-2.14-5.29.05-.93.2-1.05 1.05-1.09l24.54-.04z" fill="url(#I)"/><path d="M303.28 233.11c1.8-4 5.07-7 9.29-6.68 2.09.17.83 3.63 1.13 5.19 0 1-.17 1.12-1.11 1.12-9.47-.9-9 11.43-8.73 18.6-.41 1.83 1 10.77-1 10.39s-5.67 1.35-5-2.38c-.09-10.27.19-20.55-.21-30.8 0-1.2.12-1.36 1.24-1.39 5.93-.64 3.37 1.4 4.39 5.95z" fill="url(#J)"/></svg>