<svg xmlns="http://www.w3.org/2000/svg" xmlns:xlink="http://www.w3.org/1999/xlink" viewBox="0 0 501 501" xmlns:v="https://vecta.io/nano"><defs><linearGradient id="A" x1="27.15" y1="180.75" x2="322.09" y2="180.75" gradientUnits="userSpaceOnUse"><stop offset="0" stop-color="#833ab4"/><stop offset=".5" stop-color="#fd1d1d"/><stop offset="1" stop-color="#fcb045"/></linearGradient><linearGradient id="B" x1="60.04" y1="462.6" x2="472.85" y2="462.6" xlink:href="#A"/><linearGradient id="C" x1="62.62" y1="373.23" x2="466.01" y2="373.23" xlink:href="#A"/><linearGradient id="D" x1="37.18" y1="215" x2="348.06" y2="215" xlink:href="#A"/></defs><path d="M.5.5h500v500H.5z" fill="#231f20" stroke="#231f20" stroke-miterlimit="10" opacity="0"/><g transform="translate(.5 .5)"><path d="M208.55,8c33.07-.75,141.72,52.15,106.65,93.28C256.33,170.48,130.24,329.76,46.06,353c-26.78,5-19.32-26-12.4-40.83,14.3-34.71,41.88-61.8,57.16-95.92,1.18-4.53,5.35-3.64,8.88-2.73,9.26,1.47,18.57,3.55,27.92,4.08,4.82,0,6.87-7.7,2.7-10.13-8.6-3-18.16-3-27.08-4.92-1.88-.49-5.74.34-5.73-2.45,1.7-3.9,0-11.86,6.33-11.26,8.45,1.23,16.85,3,25.34,4.09,9,1.74,9.76-11.34.77-11.29-4.6-.62-9.15-1.59-13.72-2.35-3.9-1.27-11.13.66-12.27-4.51-.38-4.67.82-12.53,7.24-9.93,8.31,1.7,17,3.62,25.49,3.21,2.55-.57,3.66-3.2,3.61-5.6.13-4.36-4.72-5.35-8.17-5.71-31.92-6.42-24.66,3.54-24.92-29,.21-18.59-3.62-37.67,1.94-55.82,3-10.84,15.33-19.62,26-13.1,12.71,8.72,18.66,24.55,31.11,33.69,14.14,9.59,32.56-5.12,35.7-19.7,2.4-15.69-13.28-26.63-18.6-40.14C176.92,18,188.52,9.45,202.1,8Z" fill="url(#A)"/><path d="M472.85,443.63c-1.6,10.8-2.24,22.37-9.83,31-7.41,8.51-19.7,6.4-29.79,8.12-31.68,3.1-63.41,5.6-95.2,7.22-49.15,1.55-277.18,14.62-278-51.64,21.13,21.75,52.49,26.11,81.48,29.52,65.62,8.1,132,5,197.79,1.31,28.29-1.75,56.52-4.27,84.75-6.69,23.6-1.86,43-.54,47.64-29.31.43.07.3.4.34.61.54,2.13.23,4.44.81,6.5Z" fill="url(#B)"/><path d="M252 463.86c-52.6.27-107.17.46-158.22-14C71.51 443 46 427 77 408.72c26.23-15.41 57.22-18.93 86.58-24.72 52.57-8.29 28.4-24.92 60.77 16.78a5.74 5.74 0 0 0 9.39-2.23c1.84-4.63-13.49-21.09-16.67-26.48-1-1.29-2.37-3.28-.82-4.68 3.06-2.89 8.39-6.27 12.21-2.83 5.1 6.31 9.1 13.55 14.4 19.8 3.5 6.7 13.56 2.54 10.43-4.53a156 156 0 0 0-14.13-19.52c-4.63-4.09 0-7.33 3.43-10 3.08-2.73 5.6-1.55 7.59 1.64 4.81 7 9.54 14.49 15.55 20.53 4.67 3 10.79-3.39 7.35-8-4.8-7.14-10.18-13.88-15.19-20.87-1.1-1.39-2.18-3.31-.71-4.85 17.7-15 31.7-33.79 49.44-48.7 14-12.48 38.65-10.34 36.28 12.73-.39 13.28-4.82 26.86-1.47 40 3.56 12.64 19.45 14.57 30.5 12.15s16.24-13.09 18-23.3c2.52-9.62 1.78-20.92 8.85-28.69 12.07-11.33 28.73 2.72 36.28 13a176.84 176.84 0 0 1 30.33 86.25c.73 13.33 2.21 27.87-6 39.33-7.56 12.14-23.5 9.3-35.74 11.49-57.34 6.19-113.91 9.17-171.65 10.84z" fill="url(#C)"/><path d="M37.18 360.2c62.06 2.9 164.65-116.84 207.26-161.79 29.65-35.17 63.76-68.19 88-107.22 2.69-10.58-4.27-21.15-10.65-29 3.31.12 5 3.81 7.16 6 8.47 8 15.81 17.73 18.54 29.21 3.46 13.76-9.47 22.79-16.64 32.71-38.6 45.83-235.4 282.8-293.67 230.09z" fill="url(#D)"/></g></svg>