<svg id="Layer_1" data-name="Layer 1" xmlns="http://www.w3.org/2000/svg" xmlns:xlink="http://www.w3.org/1999/xlink" viewBox="0 0 490.32 462.53"><defs><linearGradient id="New_Gradient_Swatch_1" x1="4.84" y1="250" x2="495.16" y2="250" gradientUnits="userSpaceOnUse"><stop offset="0" stop-color="#833ab4"/><stop offset="0.5" stop-color="#fd1d1d"/><stop offset="1" stop-color="#fcb045"/></linearGradient></defs><path d="M495.16,178.93a11,11,0,0,1-2.45,3.34c-5.72,5.63-11.36,11.34-17.16,16.88-5.58,5.33-11,10.79-16.56,16.17q-10.19,9.93-20.38,19.88c-2.65,2.58-5.33,5.13-8,7.69a13.81,13.81,0,0,1-1.77,1.47,6.06,6.06,0,0,1-7,.21,14.56,14.56,0,0,1-3.36-2.81c-4-4.47-8.09-8.91-12.11-13.38-4.86-5.39-9.68-10.8-14.52-16.2q-4.33-4.81-8.65-9.65-4.47-5-8.91-10c-.14-.16-.35-.36-.53-.36-.37,0-.49.34-.54.64-.37,2.44-.77,4.87-1.07,7.32-.64,5-1.29,10.1-1.8,15.16-.46,4.6-.75,9.22-1.11,13.83-.26,3.38-.5,6.77-.75,10.15,0,.31,0,.62-.06.92-.57,10.72-.65,21.44-.62,32.16,0,5.09,0,10.19.16,15.28.15,4.93.47,9.85.74,14.78.15,2.62.21,5.24.47,7.85.46,4.76.7,9.54,1.11,14.3.33,3.76.78,7.51,1.17,11.27.36,3.37.7,6.75,1.07,10.12s.75,6.74,1.15,10.11q.8,6.66,1.64,13.32.78,6.3,1.6,12.62t1.68,12.84c.5,3.82,1,7.64,1.53,11.47l2.19,16.5c.52,3.9,1.07,7.79,1.58,11.69.42,3.21.79,6.43,1.2,9.64.58,4.54-1,8.35-4,11.66a35.53,35.53,0,0,1-8.08,6.52,66,66,0,0,1-13.09,5.8,198.55,198.55,0,0,1-25.71,6.79c-7.88,1.56-15.81,2.73-23.78,3.6-6.06.66-12.12,1.21-18.21,1.59-5.31.33-10.61.81-15.93.91a9.77,9.77,0,0,0-1.58.3H226.62a5.35,5.35,0,0,0-2.27-.32c-5.25-.1-10.48-.55-15.71-.86-4.54-.27-9.08-.67-13.6-1.12-5-.5-10-1.13-14.92-1.84a232,232,0,0,1-26.74-5.44,139.21,139.21,0,0,1-18.46-6,46,46,0,0,1-10.42-6,35.56,35.56,0,0,1-2.79-2.42,17,17,0,0,1-5.19-15c.86-7.35,2-14.67,2.91-22,.86-6.5,1.67-13,2.51-19.5.69-5.35,1.43-10.7,2.11-16.05.7-5.51,1.35-11,2-16.53.54-4.37,1.12-8.72,1.65-13.08s1-8.89,1.55-13.33c.43-3.75.86-7.51,1.25-11.26.24-2.38.42-4.77.62-7.15.25-2.84.52-5.68.75-8.52.2-2.61.41-5.23.55-7.85.23-4.54.36-9.09.6-13.63.66-12.42.5-24.84.37-37.26-.06-6-.34-12-.77-18-.24-3.31-.38-6.62-.61-9.93-.18-2.54-.44-5.07-.69-7.6-.35-3.53-.69-7.06-1.11-10.58-.54-4.59-1.14-9.18-1.73-13.77-.14-1.07-.3-2.14-.51-3.19-.12-.61-.59-.77-1-.35-1,1-1.94,2-2.87,3q-6.14,6.76-12.25,13.57Q102.61,219.61,93.35,230q-4.87,5.43-9.77,10.83c-.47.51-1,1-1.44,1.5a8.26,8.26,0,0,1-11.83.18c-2.13-2.12-4.37-4.14-6.52-6.25-4.69-4.58-9.34-9.2-14-13.79-6.61-6.48-13.19-13-19.89-19.39s-13.3-13.1-20-19.59c-1.9-1.84-3.7-3.72-4.61-6.28a2.62,2.62,0,0,0-.41-.55v-1.86a4.86,4.86,0,0,0,.88-1.61,11.47,11.47,0,0,1,2.15-3.54l8.42-9.84,12.36-14.39,12.8-14.92,10.24-11.93L63.9,104.32,76.26,89.93q6.24-7.29,12.48-14.58c4.26-5,8.56-9.93,12.78-14.94a14,14,0,0,1,5.32-3.95c9.73-4.11,19.44-8.27,29.16-12.4l45.76-19.47,13.84-5.86h3.7a4,4,0,0,0,.61.33,9.68,9.68,0,0,1,5.84,5.58c.13.28.27.56.4.83A13.28,13.28,0,0,0,212,31.53a35.89,35.89,0,0,0,6.83,2.79,97.14,97.14,0,0,0,28.47,4.26c4.55,0,9.09,0,13.63-.4a128.86,128.86,0,0,0,12.84-1.54,55.32,55.32,0,0,0,13.23-4c4.21-2,7.55-4.74,9-9.34a6.36,6.36,0,0,1,3.45-3.86c.41-.21.81-.44,1.22-.66h5.09c.63.3,1.25.61,1.88.88l33.65,14.28L376.45,48.8c5.47,2.32,10.93,4.65,16.4,6.94a19.29,19.29,0,0,1,7.44,5.36c1.34,1.6,2.72,3.15,4.07,4.73l9.79,11.42,13.27,15.43q6,7,12.07,14,6.48,7.55,13,15.07l16,18.59,10.25,11.92c4.18,4.85,8.33,9.72,12.53,14.55a34.92,34.92,0,0,1,3.91,5.15ZM352,268.32c-.09-9.57-.14-19.13.43-28.69.21-3.54.37-7.08.56-10.62,0-.24,0-.47.06-.7q.38-4.37.73-8.75c.21-2.54.36-5.08.63-7.61.51-4.68,1.05-9.35,1.66-14,.68-5.2,1.39-10.39,2.17-15.58,1.21-8,2.75-16,4.35-23.9,2.06-10.21,4.35-20.37,6.77-30.49a14.41,14.41,0,0,1,1.14-3.27,6.67,6.67,0,0,1,3.72-3.3,9.39,9.39,0,0,1,3.86-.56,6.39,6.39,0,0,1,5.33,3.2,8,8,0,0,1,1.16,3.95,14.84,14.84,0,0,1-.55,4.35c-1.28,5.24-2.58,10.49-3.84,15.74-1.63,6.82-3,13.71-4.22,20.62a5.1,5.1,0,0,0,1.2,4.52c.77.87,1.5,1.76,2.28,2.62Q387.75,184.9,396,194c1.61,1.76,3.21,3.54,4.81,5.32l10.83,12,11,12.21c.26.28.5.59.78.85a2.06,2.06,0,0,0,3.09.15,18.51,18.51,0,0,0,1.5-1.44q13.81-13.84,27.64-27.69c6.16-6.17,12.36-12.3,18.52-18.47,2.11-2.11,2.15-2.8.23-5.06-3-3.53-6-7-9.05-10.53q-6.24-7.29-12.47-14.6c-5.08-5.92-10.17-11.81-15.24-17.73s-10.11-11.85-15.18-17.77-9.95-11.59-14.91-17.39q-8.64-10.12-17.25-20.26a14.71,14.71,0,0,0-5.52-4.11L353.7,56.3,324.51,43.9c-4.33-1.84-8.65-3.69-13-5.49-1.81-.76-2-.62-2.49,1.33a68.88,68.88,0,0,1-4.6,13.57,54.63,54.63,0,0,1-8.84,13.5,57.12,57.12,0,0,1-18.32,13.51,62.5,62.5,0,0,1-35.85,5.51,60.6,60.6,0,0,1-28-11.37,54.47,54.47,0,0,1-13.93-15,58.91,58.91,0,0,1-7.69-19,8.89,8.89,0,0,0-.58-1.74,1,1,0,0,0-1.15-.58,11.3,11.3,0,0,0-2,.66q-11,4.89-22,9.83c-11.33,5.11-22.7,10.1-34.26,14.66a75.78,75.78,0,0,0-29.39,20.77c-4.54,5.15-8.87,10.49-13.3,15.73q-4.48,5.31-9,10.58c-3.36,3.92-6.76,7.82-10.13,11.73s-6.74,7.84-10.13,11.74c-4.71,5.41-9.45,10.8-14.16,16.21q-9,10.36-18.08,20.77Q26.3,172.39,25,174a1.75,1.75,0,0,0,0,2.34,12.42,12.42,0,0,0,1.09,1.2c.9.85,1.84,1.65,2.73,2.5,4.71,4.56,9.38,9.16,14.12,13.7,8.58,8.22,17,16.57,25.53,24.87,1.27,1.24,2.52,2.5,3.81,3.73,1.06,1,2.15,2,3.24,3a.8.8,0,0,0,1.22,0c.22-.22.43-.45.64-.67,2.5-2.73,5-5.45,7.5-8.2,3.58-3.94,7.12-7.92,10.69-11.86,3.73-4.11,7.49-8.2,11.23-12.31,5.54-6.11,11-12.26,16.64-18.33a5.49,5.49,0,0,0,1.67-4.81c-.08-.54-.09-1.08-.18-1.61-1-5.93-2.12-11.85-3.5-17.7-1.41-6-2.84-12-4.24-18a21.43,21.43,0,0,1-.6-3.64,6.3,6.3,0,0,1,2-5.44,8.8,8.8,0,0,1,5-2.21,6.49,6.49,0,0,1,6.37,3,13.15,13.15,0,0,1,1.85,4.46q4,15.82,7.07,31.84c1.51,7.88,2.92,15.78,4.07,23.72.72,5,1.46,9.92,2.1,14.89.56,4.35,1,8.72,1.47,13.1.42,4.22.75,8.45,1.07,12.67.43,5.77.86,11.54,1.2,17.31.22,3.77.33,7.55.39,11.33.17,10.17.36,20.36-.17,30.54-.26,5-.23,10-.56,15-.25,3.69-.3,7.4-.63,11.08-.2,2.31-.27,4.62-.47,6.92q-.62,7.15-1.25,14.29-.51,5.52-1.09,11.05c-.36,3.45-.77,6.89-1.18,10.34-.55,4.75-1.1,9.49-1.69,14.24-.49,4-1,8-1.55,11.93-.68,5.27-1.35,10.55-2.06,15.82q-1.27,9.53-2.59,19-1.08,7.9-2.15,15.81c-.65,4.74-1.24,9.49-2,14.21a7.7,7.7,0,0,0,3,7.75c.48.38,1,.75,1.49,1.09a19.47,19.47,0,0,0,5,2.34,175.08,175.08,0,0,0,17.91,4.66c6.5,1.35,13.05,2.35,19.64,3.15,3.36.41,6.74.73,10.12,1,3.08.25,6.17.28,9.23.63,4.15.47,8.32.32,12.48.7,3.52.31,7.08.25,10.63.44,5.54.29,11.1.39,16.65.47,13.88.21,27.77.37,41.65-.31,4.62-.22,9.25-.39,13.87-.58l.46,0c4.92-.41,9.84-.81,14.75-1.24,3.76-.33,7.53-.64,11.28-1.1,6.43-.78,12.85-1.62,19.24-2.7a116.59,116.59,0,0,0,16-3.62,63.05,63.05,0,0,0,8.4-3.29,14.56,14.56,0,0,0,3.47-2.28,5.78,5.78,0,0,0,2-4.28,28.49,28.49,0,0,0-.15-3.92c-.63-5.05-1.34-10.09-2-15.13s-1.36-9.94-2-14.9q-1.1-8.15-2.16-16.28-.78-5.85-1.57-11.7c-.56-4.28-1.13-8.56-1.68-12.84q-1-8.14-2.06-16.29-.63-4.93-1.2-9.88c-.38-3.37-.75-6.74-1.07-10.12q-.57-6-1.06-12-.45-5.42-.83-10.84c-.22-3.07-.39-6.15-.55-9.23-.27-5.39-.63-10.78-.75-16.17C351.94,280.51,352,274.42,352,268.32Z" transform="translate(-4.84 -18.73)" style="fill:url(#New_Gradient_Swatch_1)"/></svg>