<svg id="Layer_1" data-name="Layer 1" xmlns="http://www.w3.org/2000/svg" xmlns:xlink="http://www.w3.org/1999/xlink" viewBox="0 0 494 377.56"><defs><linearGradient id="New_Gradient_Swatch_1" x1="3" y1="250" x2="497" y2="250" gradientUnits="userSpaceOnUse"><stop offset="0" stop-color="#833ab4"/><stop offset="0.5" stop-color="#fd1d1d"/><stop offset="1" stop-color="#fcb045"/></linearGradient><linearGradient id="New_Gradient_Swatch_1-2" x1="235.01" y1="145.85" x2="266.3" y2="145.85" xlink:href="#New_Gradient_Swatch_1"/></defs><path d="M496.93,199.28c.39,2.09-.94,3.74-2.38,5q-17.67,18-35.34,36.09c-5.17,3.73-31.81,36.49-34.68,32.26-17.1-16.59-32.92-34.84-50.38-51-2.29,55.9,0,116.38-.67,173.78-.19,13.08.43,26.23-.19,39.28-76.8,8.73-162.65.1-242.39,3.05-2.91-.85-3-3.66-2.92-6.24q0-29.54,0-59.07,0-75.23,0-150.44c-.18-1.34-1.68-.11-2.13.42C110.42,238.75,94.48,254.56,79,270.76c-1.39,1.6-3.48,3.51-5.47,1.69C49.7,249.22,27.35,223.26,3,201.21v-1.45c35.8-36.14,70.89-73.15,106.87-109.12C132,70.29,164.12,80,191.21,78a19.5,19.5,0,0,0,10.74-3A118.39,118.39,0,0,1,221.89,66c25.83-9.28,54.68-4.59,78.12,9.23A20.07,20.07,0,0,0,310.35,78c16.72-.09,33.44-.08,50.16-.11,6.24,0,12.24,2.15,17.87,4.73,14.37,6.47,24.21,19.32,35.16,30.31C440.89,142.1,470.19,169.7,496.93,199.28Zm-334,68.09h0c0-50.6-.07-101.21,0-151.8-.56-3.82,15.94-1.17,18.92-2a4,4,0,0,1,3.7,2.12c6.74,12,19,18.76,31.6,22.46,3.65.68,6.22,3.6,5.75,7.49q0,10,0,20-.06,126.12-.08,252.25c-.75,6.34,6.72,4.24,10.59,4.42,8.68,0,17.36-.08,26-.06,4.33-.91,18.61,2.78,19.13-2.78.62-19.45-.21-39,.08-58.46q0-107.08-.08-214.15c-.66-5.11,2.66-8.56,7.45-9.24a63.59,63.59,0,0,0,13.19-5.13c12.12-5.45,13-20.44,28.4-19.15,7.16.67,11.86-2.31,11.09,8.12-.06,20-.22,40.11-.15,60.16q0,119.08,0,238.15c-.14,2.13,1.31,2.77,3.18,2.6a66.74,66.74,0,0,1,10.58.05c2.32.21,5.22.15,5.66-2.79.55-77.67-.19-155.46.09-233.17-.33-6.34,5.22,1.92,6.94,3.22,20,20.16,39.62,40.84,59.66,61,1.59,1.41,3.26,0,4.41-1.32,15.34-16.07,31.08-31.75,46.46-47.75,1.29-1.78-.22-3.5-1.52-4.72-30.77-31.47-61.27-63.23-92.33-94.4-10.71-11.35-26.75-9.13-40.79-9.26-8.47.33-17-.24-25.42.14-5.26.34-3.59,19.21-20,29.08a61.12,61.12,0,0,1-19.23,8.55c-1.57.24-2.54-1-2.84-2.43-.92-4.37-2.29-8.61-3.46-12.9-4.15-10.63,5.89-7.56,12.27-11.71,4.16-1.94,14.41-10.06,10.73-14.93-21.95-13.85-50.34-16.19-74-5.38-3.81,2.15-12.91,4.06-10.84,10,8.88,16,27.74,10.77,24.48,18.25-1.56,5.31-3,10.65-4.3,16-.66,2.79-2,3.56-4.69,2.72a65,65,0,0,1-16.31-7.39,39.49,39.49,0,0,1-17.6-24.8c-.49-2.23-.86-5-3.64-5.17-12.78.05-25.59-.36-38.38,0-9.53-.38-19.36,1.25-26.66,8-31.55,31.39-62.26,63.68-93.49,95.43-2.11,1.92-2.87,4.47-.08,6.46q7.74,7.85,15.48,15.69Q57.53,233.94,72,249c2.08,2.63,4.36,2.91,6.47.18,20.45-21.4,41.45-42.25,61.9-63.65,1.82-1.78,3.39-2.44,3,.82-.28,77.64.65,155.51-.39,233,2.47,6.36,11.08,1.84,16.14,3.13,3.63.16,3.9-3.36,3.78-6.25Q162.85,341.83,162.88,267.37Z" transform="translate(-3 -61.22)" style="fill:url(#New_Gradient_Swatch_1)"/><path d="M258.44,153.81c-.16,8.7.34,17.48-.2,26.14-1.56,4-8.58,2-11.93,1.82-3.45-.64-3.27-4.79-3.35-7.61-.08-15.62.14-31.27-.06-46.88-.7-5-9.3.58-7.69-6.43,1.07-3.71.9-9.56,5.28-10.81,6.71-.78,13.58.07,20.33-.68,3.41-.65,3.47,3,4,5.5.32,3.44,4.26,11.12-2.13,9.93-6.81-.44-3.62,8.8-4.3,13.11,0,5.3,0,10.61,0,15.91Zm-4.92-4.22c0-5.42,0-10.84-.08-16.27.57-4.16-2.56-13.9,4.3-12.82,2.19.57,3.38-.53,2.75-2.81-.34-5.25-6.23-2.23-9.55-2.75-3.66.37-10-2.53-10.17,3.35-.54,5.38,7.86-1.6,7.21,6.63-.27,13.45.09,26.91,0,40.37.8,3.54-2.5,12.68,3.21,12,4-.12,1.78-5.48,2.36-8.12Q253.51,159.36,253.52,149.59Z" transform="translate(-3 -61.22)" style="fill:url(#New_Gradient_Swatch_1-2)"/></svg>