<svg xmlns="http://www.w3.org/2000/svg" viewBox="0 0 296.66 96.98" fill="#f1f5f9" xmlns:v="https://vecta.io/nano"><path d="M83.13 28.38L44.42 50.5 0 23.8l4.87-2.68q4.76-2.61 9.53-5.2l5.4-2.89 11.52-6.15 6.41-3.38L44.05.21l.43-.21.1.18L6.63 23.79l1.53.89 8 4.38 11.34 6.31q4.15 2.31 8.27 4.65l8.31 4.7a1.12 1.12 0 0 0 .89-.08l5.13-3 6.81-4 8.54-5 7.12-4.12 9.91-5.79 5.56-3.21a2 2 0 0 1 .29-.12.64.64 0 0 1 0 .2v.51q-.06 19.69-.13 39.4l-.12 12.75a.74.74 0 0 1-.4.76l-4.51 2.55-7.6 4.3-5.79 3.21-8.33 4.66-5 2.73L48.32 95l-3.67 2a.65.65 0 0 1-.52-.07L33.91 90.6l-10.74-6.58-9.11-5.77-10.65-6.72s-.06-.06 0-.18l.41.2 9.81 5.11 7.55 4 9.78 5.28q4.32 2.34 8.61 4.69l4.42 2.46a.78.78 0 0 0 .9 0l10.27-6.27 8.34-5 8.46-5 8.51-5.07 2.38-1.38a.85.85 0 0 0 .45-.86V58.77q-.1-15.03-.17-30.03zm-74.5 4.67l3.39 2 6.25 3.69 7.87 4.69 8.42 5q3.62 2.14 7.23 4.32a.58.58 0 0 1 .23.43v5.34l-.12 4.74-.13 11.42-.13 8.24-.19 4.08-2.46-1.35-4.61-2.61-7.75-4.42-5.28-3-7.32-4.12-4.88-2.77a.93.93 0 0 1-.4-.66l-.14-9.83q0-12.18 0-24.35zm1.42 2.47v.5q-.07 8.19-.13 16.37v3.18 11.76a.83.83 0 0 0 .24.61l3.14 1.91 7.65 4.58 8.68 5.31 8 4.78 3.84 2.32v-.71l-.12-5.12-.13-8.24-.12-7.54-.11-10.4a1.76 1.76 0 0 0-1-1.87l-6.89-3.98-5.94-3.42-6.53-3.82-6.4-3.74zm4.4-11.66l2-1.22 10.89-6.34 8.93-5.11 8.24-4.69a1.12 1.12 0 0 1 .91.06l8.91 4.56 9.9 5.08 8.76 4.57 2.86 1.54-3 1.81-6.32 3.71-5.72 3.32-5.77 3.35q-3.07 1.79-6.14 3.58l-3.71 2.18a1.3 1.3 0 0 1-1.45 0l-6.53-3.66-8.58-4.78-5.53-3.08zm59.09-1.48l-.63-.4-7.66-4.24q-4.7-2.6-9.38-5.2l-10.46-5.8a.85.85 0 0 0-1 0l-6.08 3.8-8.28 5.09-8 4.89-5.25 3.22a2 2 0 0 0 .32.25l3.4 1.84 9.59 5.24 5.76 3.13q4 2.22 8.06 4.49a1 1 0 0 0 1.1 0l7-4 10.52-6.08 10.99-6.23zM47.63 86.65v-3.76q-.06-5-.13-10l-.12-7.92-.14-10.34a12.65 12.65 0 0 0-.13-1.5.87.87 0 0 1 .51-1q6.01-3.46 12.01-7.03l11.36-6.77 9.41-5.52a3.9 3.9 0 0 1 .4-.16l-.17 3.59v.63q0 15.3 0 30.58a1 1 0 0 1-.56 1l-9.33 5.3-7.46 4.18-10.65 5.97-5 2.75zm31.69-51.58l-1.49.88-5.71 3.33-7 4.09-5.87 3.43-5.88 3.41-4.74 2.77a.88.88 0 0 0-.36.62l-.14 5.76-.13 8.56-.13 15.3c0 .2-.07.41-.07.61v2.55l.46-.21 8.26-5q5.65-3.42 11.32-6.8l10.92-6.54a1 1 0 0 0 .57-1q0-15.54 0-31.08zm45.46-5.6v19.41h-14.33a17.33 17.33 0 0 1-12.11-4.86 16.42 16.42 0 0 1 0-23.79 17.33 17.33 0 0 1 12.11-4.86h14.26v2.77h-16.25a14.31 14.31 0 0 0-12.57 14 14.31 14.31 0 0 0 12.57 14h13.55v-13.9h-10.7l-1.28-2.77zm34.24-14.19v21.69a9.58 9.58 0 0 1-2.52 6.54c-5.862 6.328-15.562 7.192-22.45 2a17.43 17.43 0 0 1-2.21-2 9.58 9.58 0 0 1-2.5-6.52V15.28h2.77v18.67c.01 6.51 5.137 11.861 11.64 12.15h.88a12.17 12.17 0 0 0 11.65-12.15V15.28zm34.84 16.88c.006 8.489-6.307 15.656-14.73 16.72h-15.27v-2.77h15.09.08a14.08 14.08 0 0 0 12.06-13.93 13.68 13.68 0 0 0-.28-2.79 14.09 14.09 0 0 0-13.18-11.3h-13.77V15.3h13.34c9.229.12 16.65 7.63 16.66 16.86zm-28.15 11.65l-1.85.91V23.1h2.77v20.25zm40.71-18.42l1.65 3.18-10.56 20.31h-3.3zm22.5 23.49h-3.29l-12.7-24.41-3-5.79 1.64-3.17 2.07 4zm29.44-33.6V47l-3.13-3.13-18.19-18.19-2.07-2.07-2.77-2.77v-3.92l23.43 23.39v-25zM232.2 27.94l2.77 2.8v18.14h-2.77zm61.88 1.53v19.41h-14.33a17.33 17.33 0 0 1-12.12-4.86 16.44 16.44 0 0 1 0-23.79 17.33 17.33 0 0 1 12.11-4.86H294v2.77h-16.23a14.3 14.3 0 0 0-12.57 14 14.31 14.31 0 0 0 12.57 14h13.54v-13.9h-10.68l-1.28-2.77zM118.72 79.98h-2.49l-7.7-12.62-.21-.36-.37-.6-.68.19h-.07-.16-.09l-.32.15-.67.13h-.17-.12-.24-.12-.26 0-.3-.05-.27-6.72v13.11h-2.08v-15h8.2a10.78 10.78 0 0 0 4.28-.88 10.64 10.64 0 0 0 3.29-2.23 10.85 10.85 0 0 0 2.7-4.38l.39-1.21H97.71v6.46l-1 .47-1.08.53v-9.63h21.11v.05a12.6 12.6 0 0 1-.31 2.81 12.89 12.89 0 0 1-3.53 6.37l-.5.47-.17.14h0l-.22.19h0l-.16.13-.07.06h0l-.44.32-.16.11h0 0l-.18.11h0-.05 0l-.77.49.48.78.48.78zm3.96-23.66v-2.13h22.59v2.13zm2.12 21.53h20.47v2.13h-22.59V60.17h2.12v4.85h17.83v2.13H124.8zm25.1-16.69a4.86 4.86 0 0 0 4.86 4.85h8.62a7 7 0 1 1 0 14h-15.6v-2.16h15.6a4.86 4.86 0 1 0 0-9.71h-8.62a7 7 0 0 1 0-14h15.87v2.12h-15.87a4.87 4.87 0 0 0-4.86 4.9zm24.64-4.84v-2.13h22.59v2.13zm2.09 21.53h20.5v2.13h-22.59V60.17h2.09v4.85h17.78v2.13h-17.78zm44.12 0v2.13h-19.66v-26h2.13v23.87zm23.6 0v2.13h-19.66v-26h2.13v23.87zm3.94-21.53v-2.13h22.59v2.13zm2.13 21.53h20.46v2.13h-22.59V60.17h2.13v4.85h17.79v2.13h-17.79zm46.21 2.13h-2.49l-7.7-12.62-.22-.36-.37-.6-.67.19h-.08-.16-.08l-.23.15-.66.13h-.17-.17-.23-.13-.25 0-.31 0-.28-6.8v13.11h-2.12v-15h8.19a10.69 10.69 0 0 0 7.58-3.11 10.72 10.72 0 0 0 2.69-4.38l.39-1.21h-16.73v6.46l-1 .47-1.16.58v-9.68h21.16v.05a13.21 13.21 0 0 1-.3 2.81 12.83 12.83 0 0 1-3.54 6.37l-.5.47-.16.14h0l-.23.19h0l-.16.13-.07.06h0l-.44.32-.17.11h0 0l-.18.11h0 0 0l-.77.49.47.78.48.78z"/></svg>