<?xml version="1.0" encoding="utf-8"?>
<!-- Generator: Adobe Illustrator 25.2.0, SVG Export Plug-In . SVG Version: 6.00 Build 0)  -->
<svg version="1.1" id="Layer_1" xmlns:v="https://vecta.io/nano"
	 xmlns="http://www.w3.org/2000/svg" xmlns:xlink="http://www.w3.org/1999/xlink" x="0px" y="0px" viewBox="0 0 296.66 96.98"
	 style="enable-background:new 0 0 296.66 96.98;" xml:space="preserve">
<style type="text/css">
	.st0{fill:url(#SVGID_1_);}
</style>
<linearGradient id="SVGID_1_" gradientUnits="userSpaceOnUse" x1="0" y1="48.5128" x2="296.63" y2="48.5128">
	<stop  offset="0" style="stop-color:#833AB4"/>
	<stop  offset="0.5" style="stop-color:#FD1D1D"/>
	<stop  offset="1" style="stop-color:#FCB045"/>
</linearGradient>
<path class="st0" d="M83.13,28.38L44.42,50.5L0,23.8l4.87-2.68c3.17-1.74,6.35-3.47,9.53-5.2l5.4-2.89l11.52-6.15l6.41-3.38
	l6.32-3.29L44.48,0l0.1,0.18L6.63,23.79l1.53,0.89l8,4.38l11.34,6.31c2.77,1.54,5.52,3.09,8.27,4.65l8.31,4.7
	c0.29,0.1,0.62,0.07,0.89-0.08l5.13-3l6.81-4l8.54-5l7.12-4.12l9.91-5.79l5.56-3.21c0.09-0.05,0.19-0.09,0.29-0.12
	c0.01,0.07,0.01,0.13,0,0.2v0.51c-0.04,13.13-0.08,26.26-0.13,39.4l-0.12,12.75c0.04,0.31-0.12,0.62-0.4,0.76l-4.51,2.55l-7.6,4.3
	l-5.79,3.21l-8.33,4.66l-5,2.73L48.32,95l-3.67,2c-0.18,0.05-0.36,0.03-0.52-0.07L33.91,90.6l-10.74-6.58l-9.11-5.77L3.41,71.53
	c0,0-0.06-0.06,0-0.18l0.41,0.2l9.81,5.11l7.55,4l9.78,5.28c2.88,1.56,5.75,3.12,8.61,4.69l4.42,2.46c0.27,0.19,0.63,0.19,0.9,0
	l10.27-6.27l8.34-5l8.46-5l8.51-5.07l2.38-1.38c0.32-0.16,0.49-0.51,0.45-0.86V58.77c-0.07-10.02-0.12-20.03-0.17-30.03V28.38z
	 M8.63,33.05l3.39,2l6.25,3.69l7.87,4.69l8.42,5c2.41,1.43,4.82,2.87,7.23,4.32c0.14,0.1,0.22,0.26,0.23,0.43v5.34l-0.12,4.74
	l-0.13,11.42l-0.13,8.24L41.45,87l-2.46-1.35l-4.61-2.61l-7.75-4.42l-5.28-3l-7.32-4.12l-4.88-2.77c-0.22-0.15-0.37-0.39-0.4-0.66
	l-0.14-9.83c0-8.12,0-16.24,0-24.35L8.63,33.05z M10.05,35.52v0.5C10,41.48,9.96,46.94,9.92,52.39v3.18v11.76
	c-0.01,0.23,0.08,0.45,0.24,0.61l3.14,1.91l7.65,4.58l8.68,5.31l8,4.78l3.84,2.32v-0.71l-0.12-5.12l-0.13-8.24l-0.12-7.54
	l-0.11-10.4c0.12-0.78-0.29-1.54-1-1.87l-6.89-3.98l-5.94-3.42l-6.53-3.82L14.23,38L10.05,35.52z M14.45,23.86l2-1.22l10.89-6.34
	l8.93-5.11l8.24-4.69c0.3-0.11,0.63-0.09,0.91,0.06l8.91,4.56l9.9,5.08l8.76,4.57l2.86,1.54l-3,1.81l-6.32,3.71l-5.72,3.32
	l-5.77,3.35c-2.05,1.19-4.09,2.39-6.14,3.58l-3.71,2.18c-0.44,0.29-1.01,0.29-1.45,0l-6.53-3.66l-8.58-4.78l-5.53-3.08L14.45,23.86z
	 M73.54,22.38l-0.63-0.4l-7.66-4.24c-3.13-1.73-6.26-3.47-9.38-5.2l-10.46-5.8c-0.3-0.22-0.7-0.22-1,0l-6.08,3.8l-8.28,5.09l-8,4.89
	l-5.25,3.22c0.1,0.09,0.21,0.18,0.32,0.25l3.4,1.84l9.59,5.24l5.76,3.13c2.67,1.48,5.35,2.98,8.06,4.49c0.33,0.22,0.77,0.22,1.1,0
	l7-4l10.52-6.08C62.55,28.61,73.54,22.38,73.54,22.38z M47.63,86.65v-3.76c-0.04-3.33-0.08-6.67-0.13-10l-0.12-7.92l-0.14-10.34
	c-0.01-0.5-0.06-1-0.13-1.5c-0.1-0.41,0.12-0.84,0.51-1c4.01-2.31,8.01-4.65,12.01-7.03l11.36-6.77l9.41-5.52
	c0.13-0.06,0.26-0.11,0.4-0.16l-0.17,3.59v0.63c0,10.2,0,20.39,0,30.58c0.04,0.42-0.18,0.82-0.56,1l-9.33,5.3l-7.46,4.18L52.63,83.9
	C52.63,83.9,47.63,86.65,47.63,86.65z M79.32,35.07l-1.49,0.88l-5.71,3.33l-7,4.09l-5.87,3.43l-5.88,3.41l-4.74,2.77
	c-0.2,0.15-0.33,0.37-0.36,0.62l-0.14,5.76L48,67.92l-0.13,15.3c0,0.2-0.07,0.41-0.07,0.61v2.55l0.46-0.21l8.26-5
	c3.77-2.28,7.54-4.55,11.32-6.8l10.92-6.54c0.38-0.18,0.61-0.58,0.57-1c0-10.36,0-20.72,0-31.08L79.32,35.07z M124.78,29.47v19.41
	h-14.33c-4.52,0.02-8.86-1.72-12.11-4.86c-6.57-6.25-6.83-16.64-0.58-23.21c0.19-0.2,0.38-0.39,0.58-0.58
	c3.25-3.14,7.59-4.88,12.11-4.86h14.26v2.77h-16.25c-7.1,0.87-12.47,6.85-12.57,14c0.1,7.15,5.47,13.13,12.57,14h13.55v-13.9h-10.7
	l-1.28-2.77L124.78,29.47z M159.02,15.28v21.69c0.02,2.42-0.88,4.76-2.52,6.54c-5.86,6.33-15.56,7.19-22.45,2
	c-0.79-0.6-1.53-1.27-2.21-2c-1.62-1.78-2.52-4.11-2.5-6.52V15.28h2.77v18.67c0.01,6.51,5.14,11.86,11.64,12.15h0.88
	c6.51-0.28,11.65-5.63,11.65-12.15V15.28H159.02z M193.86,32.16c0.01,8.49-6.31,15.66-14.73,16.72h-15.27v-2.77h15.09h0.08
	c6.92-1,12.06-6.94,12.06-13.93c0-0.94-0.09-1.87-0.28-2.79c-1.28-6.35-6.71-11.01-13.18-11.3h-13.77V15.3h13.34
	C186.43,15.42,193.85,22.93,193.86,32.16z M165.71,43.81l-1.85,0.91V23.1h2.77v20.25L165.71,43.81z M206.42,25.39l1.65,3.18
	l-10.56,20.31h-3.3L206.42,25.39z M228.92,48.88h-3.29l-12.7-24.41l-3-5.79l1.64-3.17l2.07,4L228.92,48.88z M258.36,15.28V47
	l-3.13-3.13l-18.19-18.19l-2.07-2.07l-2.77-2.77v-3.92l23.43,23.39v-25L258.36,15.28z M232.2,27.94l2.77,2.8v18.14h-2.77V27.94z
	 M294.08,29.47v19.41h-14.33c-4.52,0.02-8.87-1.72-12.12-4.86c-6.57-6.27-6.81-16.67-0.55-23.24c0.18-0.19,0.36-0.37,0.55-0.55
	c3.25-3.14,7.59-4.88,12.11-4.86H294v2.77h-16.23c-7.1,0.86-12.47,6.85-12.57,14c0.1,7.15,5.47,13.13,12.57,14h13.54v-13.9h-10.68
	l-1.28-2.77L294.08,29.47z M118.72,79.98h-2.49l-7.7-12.62L108.32,67l-0.37-0.6l-0.68,0.19h-0.07h-0.16h-0.09l-0.32,0.15l-0.67,0.13
	h-0.17h-0.12h-0.24h-0.12h-0.26l0,0h-0.3h-0.05h-0.27h-6.72v13.11h-2.08v-15h8.2c1.47,0,2.93-0.3,4.28-0.88
	c1.23-0.53,2.34-1.29,3.29-2.23c1.24-1.22,2.16-2.72,2.7-4.38l0.39-1.21H97.71v6.46l-1,0.47l-1.08,0.53v-9.63h21.11v0.05
	c0,0.95-0.1,1.89-0.31,2.81c-0.54,2.42-1.77,4.63-3.53,6.37l-0.5,0.47l-0.17,0.14l0,0l-0.22,0.19l0,0l-0.16,0.13l-0.07,0.06l0,0
	l-0.44,0.32l-0.16,0.11l0,0l0,0L111,64.87l0,0h-0.05l0,0l-0.77,0.49l0.48,0.78l0.48,0.78L118.72,79.98z M122.68,56.32v-2.13h22.59
	v2.13H122.68z M124.8,77.85h20.47v2.13h-22.59V60.17h2.12v4.85h17.83v2.13H124.8V77.85z M149.9,61.16c0.01,2.68,2.18,4.85,4.86,4.85
	h8.62c3.87,0,7,3.13,7,7s-3.13,7-7,7h-15.6v-2.16h15.6c2.68,0.12,4.95-1.95,5.08-4.63c0.12-2.68-1.95-4.95-4.63-5.08
	c-0.15-0.01-0.29-0.01-0.44,0h-8.62c-3.87,0-7-3.13-7-7s3.13-7,7-7h15.87v2.12h-15.87c-2.69,0.01-4.87,2.19-4.86,4.88
	C149.9,61.15,149.9,61.15,149.9,61.16z M174.54,56.32v-2.13h22.59v2.13H174.54z M176.63,77.85h20.5v2.13h-22.59V60.17h2.09v4.85
	h17.78v2.13h-17.78V77.85z M220.75,77.85v2.13h-19.66v-26h2.13v23.87H220.75z M244.35,77.85v2.13h-19.66v-26h2.13v23.87H244.35z
	 M248.29,56.32v-2.13h22.59v2.13H248.29z M250.42,77.85h20.46v2.13h-22.59V60.17h2.13v4.85h17.79v2.13h-17.79V77.85z M296.63,79.98
	h-2.49l-7.7-12.62L286.22,67l-0.37-0.6l-0.67,0.19h-0.08h-0.16h-0.08l-0.23,0.15l-0.66,0.13h-0.17h-0.17h-0.23h-0.13h-0.25l0,0
	h-0.31l0,0h-0.28h-6.8v13.11h-2.12v-15h8.19c2.84,0.01,5.57-1.11,7.58-3.11c1.24-1.22,2.16-2.72,2.69-4.38l0.39-1.21h-16.73v6.46
	l-1,0.47l-1.16,0.58v-9.68h21.16v0.05c0,0.94-0.1,1.89-0.3,2.81c-0.54,2.42-1.77,4.63-3.54,6.37l-0.5,0.47l-0.16,0.14l0,0
	l-0.23,0.19l0,0l-0.16,0.13l-0.07,0.06l0,0l-0.44,0.32l-0.17,0.11l0,0l0,0l-0.18,0.11l0,0l0,0l0,0l-0.77,0.49l0.47,0.78l0.48,0.78
	L296.63,79.98z"/>
</svg>
