<svg id="Layer_1" data-name="Layer 1" xmlns="http://www.w3.org/2000/svg" xmlns:xlink="http://www.w3.org/1999/xlink" viewBox="0 0 433.66 496"><defs><linearGradient id="New_Gradient_Swatch_1" x1="31.54" y1="249.4" x2="465.2" y2="249.4" gradientUnits="userSpaceOnUse"><stop offset="0" stop-color="#833ab4"/><stop offset="0.5" stop-color="#fd1d1d"/><stop offset="1" stop-color="#fcb045"/></linearGradient><linearGradient id="New_Gradient_Swatch_1-2" x1="245.66" y1="1.1" x2="250.85" y2="1.1" xlink:href="#New_Gradient_Swatch_1"/><linearGradient id="New_Gradient_Swatch_1-3" x1="119.52" y1="373.08" x2="376.78" y2="373.08" xlink:href="#New_Gradient_Swatch_1"/><linearGradient id="New_Gradient_Swatch_1-4" x1="127.54" y1="178.38" x2="369.74" y2="178.38" xlink:href="#New_Gradient_Swatch_1"/><linearGradient id="New_Gradient_Swatch_1-5" x1="153.21" y1="178.34" x2="343.31" y2="178.34" xlink:href="#New_Gradient_Swatch_1"/></defs><path d="M138.54,497H127.93c-17.6-1.54-34.6-9.08-44.51-24.46a71.1,71.1,0,0,1-9.22-20.25c-.4-1.61-1.08-3.43-3-3.68-16.42.54-36.21,2.1-39.7-18.06v-4.71c.29-.71,1-7.7,0-7.07v-.94c2.23-26.73,2-57,3.55-84.89.79-22.23-2.66-52.55,29.59-47.41,4.35.71,5.91-3.59,5.54-7.57,0-8.72,1-17.39,1.85-26.06,3.93-17,.56-33.41-2.36-50.21C65.44,171,62,140.15,60.8,109.17,58.5,52.86,56.29-2.44,130.69,2.06c26.2,3.21,39.26,43,52.89,42.8a219.14,219.14,0,0,1,35.79-6.22c22.93-2.12,46-1.27,68.89,1.21,8.16-.67,26.26,7.86,31.22,3.63C335.57,26.08,349.39.67,376.42,2.06c42.88,1.21,62.39,29.78,60.33,70.73,1.37,39.17-2.36,78.34-7.72,117.11-1.71,14.67-5.34,29.15-6.43,43.86.87,9,2.44,17.87,2.82,26.91,1.76,5.26-1.12,23.78,4.47,24.46,32.47-3.5,31.5,18.9,31.59,43.85q1.51,40.42,3,80.85c3.44,33.05-5.16,41.43-38.09,38.7-2.59,0-3.41,2.5-3.87,4.62-13.18,49-54.63,43.75-95.46,43.55C264.23,497.4,201.36,495.71,138.54,497ZM412,345.53c.5-67.07-5.7-134.08-20.78-199.5-8.66-63.67-60.06-87.65-118.82-91C212,50.45,126.73,59.41,109.8,129.5a905.79,905.79,0,0,0-23,147.24C84.6,309.8,83.92,343,84.39,376.08c1.29,26.61-1.13,54.71,8.68,80,7.28,17.79,26.77,25.73,45.08,24.08,20-.24,40.06-.22,60.08-.16,55.81.08,111.61-.21,167.42-.09C427.66,480.33,408.93,386.57,412,345.53Zm34.35,24.11c-1.24-21.93-.68-43.14-2.84-64.83.12-4-15.52-4.28-15.51-1.18.09,13.37.57,26.76.62,40.14.39,28.18,1,56.41-1.58,84.49.57,6.91,12.61,3,17.44,3.72,6.42-.9,3.4-9,3.8-13.45C447.65,402.68,446.93,384.88,446.31,369.64ZM50.59,367.1h0q-1.14,29.41-2.17,58.83c-.75,10,13.27,5.37,19.43,6.05,4.57-1.46.88-9,1.47-12.67-1.23-18.57-1.71-37.17-1.73-55.78,0-18,.4-36,.86-54,1-7-2.2-8.26-8.6-7.62-10.95-1.2-6.25,13.11-7.62,19.81Q51.38,344.38,50.59,367.1ZM408.13,30.38c-10-9.66-25.74-12.66-39.15-11.13C353.73,24,345.41,40.44,334.91,51.36a104.4,104.4,0,0,1,42.94,27.87C384.61,61.22,392.91,42.93,408.13,30.38ZM162.41,51.14C151.86,40.93,144.83,25,130.81,19.46,120.94,16,94,20,90.39,29.85c14.44,12.82,22.19,30.78,28.74,48.48C131.44,66,146,57.14,162.41,51.14ZM82.93,172.7c7.56-24.1,8.13-52.93,22.15-75.52.25-18.19-11.34-38-22.85-52.06-5-4.46-4.2,16.37-4.91,19.17C75.91,100.5,78.63,136.76,82.93,172.7ZM417.65,44.62c-11.5,9.43-32,43.69-23.74,58,12.14,20.83,14,45.47,19.52,68.52C419.73,129.39,422.64,86.66,417.65,44.62Z" transform="translate(-31.54 -1)" style="fill:url(#New_Gradient_Swatch_1)"/><path d="M245.66,1.19V1h5.18a1.21,1.21,0,0,1,0,.19Z" transform="translate(-31.54 -1)" style="fill:url(#New_Gradient_Swatch_1-2)"/><path d="M248.21,448.66c-27.3,0-54.6,0-81.9-.05-11,.32-22.61-.12-31.73-7.11-23.82-18.86-11.47-54.71-14.43-81.11-1.57-29.41-.06-61.32,37.35-62.42q81.78-.06,163.55,0c69.05-6,53.75,43.83,55.29,92.74,2.19,28.19-3,57.67-37.52,57.88-30.2.09-60.41,0-90.61.05Zm.66-16.53v0h87.89c13.15,1.13,23.87-8.87,22.77-22.23q0-36.69,0-73.39c.25-9.09-3.94-18.3-13.32-20.77-39.71-3.16-80.12-.18-120.05-1.19-24.8.59-49.83-1.17-74.52.76-21.81,5.43-12.9,32.93-14.58,49.38,0,12.53.12,25-.11,37.57C135,415.49,140,430.7,155.22,432,186.39,432.6,217.66,431.89,248.87,432.13Z" transform="translate(-31.54 -1)" style="fill:url(#New_Gradient_Swatch_1-3)"/><path d="M304.68,250.81c-55,.06-109.39,1.17-164.65.74-19.92,1.52-9.45-27.22-11.72-39.29.6-17.92-3.51-36.61,4.87-53.35,24.86-45.34,84-56.52,131.65-53.26,54.73,4.49,113.25,33.3,103.92,97C369.08,269.22,373.92,247,304.68,250.81Zm-6.32-16.56c66-3.52,51.5,18.1,53.7-47.08,1.27-55.4-77.12-68.94-120.07-64.64-35.38,3.17-87.54,20.41-87.31,63,4.83,54.24-14.78,49.83,29,49.24C215.49,235.06,256.7,234.16,298.36,234.25Z" transform="translate(-31.54 -1)" style="fill:url(#New_Gradient_Swatch_1-4)"/><path d="M248.15,170h46.53c14.21.38,28.59-.79,42.72.47,7.43,1.79,8.16,13.43.4,15.54-57.71,2-115.85.06-173.7.73-10.25,1.94-15.82-12.75-5.08-16.26,29.58-1.4,59.45,0,89.13-.49Z" transform="translate(-31.54 -1)" style="fill:url(#New_Gradient_Swatch_1-5)"/></svg>