<svg xmlns="http://www.w3.org/2000/svg" xmlns:xlink="http://www.w3.org/1999/xlink" viewBox="0 0 1900 500" xmlns:v="https://vecta.io/nano"><style><![CDATA[.Q{fill:#404040}.R{fill:#4f567a}.S{fill:#282e42}.T{fill:#fefefe}.U{fill:#27272a}]]></style><g fill="#262626"><path d="M995 500H0V0h497.5z"/><path d="M995 500H0V0h497.5z"/></g><linearGradient id="A" gradientUnits="userSpaceOnUse" x1="497.5" y1="250" x2="1900" y2="250"><stop offset="0" stop-color="#833ab4"/><stop offset=".5" stop-color="#fd1d1d"/><stop offset="1" stop-color="#fcb045"/></linearGradient><path d="M995 500h905V0H497.5z" fill="url(#A)"/><g fill="#262626"><path d="M846.64 240.99h-39.29c-12.76 0-24.33-5.01-32.73-13.13h0c-8.53-8.23-13.82-19.65-13.82-32.28s5.29-24.06 13.82-32.28h0c8.41-8.12 19.97-13.13 32.73-13.13h39.12v13.13h-43.73c-16.42 2.18-29.12 15.83-29.12 32.28 0 16.46 12.69 30.11 29.12 32.28h30.78v-28.92h-25.94l-6.06-13.13h45.12v55.18zm95.73-91.05v57.9c0 6.88-2.5 13.57-7.19 18.61-1.82 1.95-3.8 3.75-5.94 5.36-7.63 5.77-17.13 9.18-27.43 9.18-10.32 0-19.83-3.43-27.47-9.22-2.14-1.62-4.14-3.44-5.97-5.41-4.66-5.04-7.16-11.71-7.16-18.58v-57.85h13.13v50.26c0 14.82 11.66 27.2 26.46 27.65l1.01.02.96-.01c14.81-.43 26.47-12.83 26.47-27.65v-50.26h13.13zm95.07 45.72c0 2.28-.17 4.51-.49 6.69-2.97 20.23-19.21 36.16-39.6 38.63h-41.87V169.7h13.13v58.15h27.86c13.52-1.96 24.37-12.26 27.16-25.51a32.79 32.79 0 0 0 .69-6.69 32.46 32.46 0 0 0-.64-6.43c-1.59-7.92-6.07-14.81-12.29-19.52-5.1-3.87-11.38-6.27-18.19-6.56h-37.72v-13.18h36.81v.02c22.81.25 41.59 17.22 44.69 39.23a44.52 44.52 0 0 1 .46 6.45zm38.68-22.57l8.62 15.74-28.87 52.16h-17.34l37.59-67.9zm63.53 67.9h-17.35l-33.21-60.01-8.67-15.66 8.66-15.66v-.01l8.67 15.67 41.9 75.67zm79.34-91.04v90.63l-13.13-13.13-45.99-46h0l-13.13-13.13v-18.57l59.12 59.12v-58.94h13.13zm-72.24 27.66l13.13 13.13v50.25h-13.13v-63.38zm169.69 63.38h-39.29c-12.76 0-24.33-5.01-32.73-13.13-8.53-8.23-13.82-19.65-13.82-32.28s5.29-24.06 13.82-32.28c8.41-8.12 19.97-13.13 32.73-13.13h39.12v13.13h-43.73c-16.42 2.18-29.12 15.83-29.12 32.28 0 16.46 12.69 30.11 29.12 32.28h30.78v-28.92h-25.93l-6.06-13.13h45.12v55.18zm-427.49 82.05h-10.46l-17.84-29.25-.49-.8-.11.03-.48.13-.16.04-.69.17-1.6.32-.46.07-.24.04-.6.08-.26.03-.64.07-.78.07-.74.04c-.04 0-.08.01-.13.01l-.52.02-.33.01-.64.01h-11.5v28.91h-8.93v-62.07h51.33l.08 2.19a30.53 30.53 0 0 1-.74 6.74c-1.31 5.92-4.32 11.2-8.48 15.31-.39.38-.78.75-1.19 1.11l-.41.36c-.02.02-.03.03-.05.04l-.54.45c-.13.11-.26.21-.39.32l-.28.22a39.91 39.91 0 0 1-1.04.77l-.5.35c-.01.01-.02.01-.03.02-.15.11-.31.21-.47.31-.02.02-.05.04-.08.05-.06.04-.12.07-.17.11l1.07 1.76 19.49 31.96zm-21.68-44.18a21.96 21.96 0 0 0 5.52-8.96h-32.51v15.31h11.5a22.04 22.04 0 0 0 8.76-1.8 21.87 21.87 0 0 0 6.73-4.55z"/><use xlink:href="#C"/><path d="M1006.83 296.55c1.48 2.59 2.33 5.59 2.33 8.78 0 3.2-.84 6.2-2.33 8.78-3.05 5.33-8.8 8.93-15.38 8.93h-19.28c-6.59 0-12.34-3.59-15.4-8.93a17.65 17.65 0 0 1-2.33-8.33h8.94c.26 4.64 4.1 8.33 8.8 8.33h19.28c4.84 0 8.78-3.94 8.78-8.78s-3.94-8.78-8.78-8.78h-19.31a17.65 17.65 0 0 1-12.7-5.37c-1.04-1.06-1.94-2.26-2.68-3.56-1.48-2.59-2.33-5.59-2.33-8.78 0-3.2.84-6.2 2.33-8.78 3.05-5.33 8.8-8.93 15.38-8.93h18.82c.16-.01.31-.01.46-.01a6.91 6.91 0 0 1 .46.01c6.4.16 11.95 3.71 14.94 8.92 1.42 2.47 2.26 5.3 2.34 8.33h-8.94c-.25-4.53-3.92-8.15-8.47-8.32h-19.61c-4.84 0-8.78 3.94-8.78 8.78 0 4.55 3.47 8.3 7.91 8.74l.9-.02a19.61 19.61 0 0 1 1.54.07h17.74c6.57-.01 12.32 3.59 15.37 8.92z"/><use xlink:href="#C" x="125.31"/><use xlink:href="#D"/><use xlink:href="#D" x="57.02"/><path d="M1252.61 261.15v8.93h-54.73v-8.93h54.73zm-45.8 52.97h45.8v8.93h-54.73v-48.5h8.93v10.85h39.81v8.93h-39.81v19.79zm112.37 8.92h-10.46l-17.84-29.25-.49-.8-.11.03-.48.13-.16.04-.69.17-1.6.32-.46.07-.24.04-.6.08-.26.03-.64.07-.78.07-.74.04c-.04 0-.08.01-.13.01l-.52.02-.33.01-.64.01h-11.5v28.91h-8.93v-62.07h51.33l.08 2.19a30.53 30.53 0 0 1-.74 6.74c-1.31 5.92-4.32 11.2-8.48 15.31-.39.38-.78.75-1.19 1.11l-.41.36c-.02.02-.03.03-.05.04l-.54.45c-.13.11-.26.21-.39.32l-.28.22a39.91 39.91 0 0 1-1.04.77l-.5.35c-.01.01-.02.01-.03.02a7.63 7.63 0 0 1-.47.31c-.02.02-.05.04-.08.05-.06.04-.12.07-.17.11l1.07 1.76 19.49 31.96zm-21.67-44.18a21.96 21.96 0 0 0 5.52-8.96h-32.51v15.31h11.5a22.04 22.04 0 0 0 8.76-1.8 21.87 21.87 0 0 0 6.73-4.55z"/></g><defs><path id="B" d="M995 388H0v-700h497.5z"/><path id="C" d="M948.52 261.15v8.93h-54.73v-8.93h54.73zm-45.81 52.97h45.8v8.93h-54.73v-48.5h8.93v10.85h39.81v8.93h-39.81v19.79z"/><path id="D" d="M1130.97 314.12v8.93h-48.16v-62.37h8.93v53.45h39.23z"/></defs><clipPath id="E"><use xlink:href="#B"/></clipPath><g clip-path="url(#E)"><linearGradient id="F" gradientUnits="userSpaceOnUse" x1="-403.243" y1="-199.713" x2="604.397" y2="-199.713"><stop offset="0" stop-color="#833ab4"/><stop offset=".5" stop-color="#fd1d1d"/><stop offset="1" stop-color="#fcb045"/></linearGradient><path d="M-403.24-483.36l63.73-34.76 82.12-44.78 62.95-34.01 79.6-42.84 44.05-23.47 78.31-41.55 43.89-23.03 48.05-24.86c1.01-.52 1.93-1.31 3.43-1.37-.13 1.32-1.25 1.63-2.01 2.11L60-725.8l-75.59 47.65-101.58 63.37-111.08 68.58-80.41 49.15-18.76 11.47c-1.06.65-2.23 1.21-3.02 2.14.32 1.24 1.36 1.41 2.12 1.84l109.07 60.24 130.48 72.74 102.03 57.11 87.23 49.24c2.51 1.42 4.28 1.21 6.63-.18l121.39-71.76 147.27-86.28 151.7-88.37 73.64-42.79 3.29-1.98v273.74c-.53 1.46-.41 2.98-.41 4.49l-.05 41.19-.64 144.51-.7 87.6-.29 53.06c-.04 6.72.32 5.53-5.1 8.61l-43.48 24.5-72.66 40.97-83.11 46.6-80.12 44.79-86.39 47.89-106.03 58.53-21 11.77h-1.4l-53.57-32.84-115.69-71.1-118.31-73.51-112.57-70.82-64.74-41.31c-1.55-.99-3.03-2.07-4.41-3.38 1.69-.21 2.96.78 4.28 1.46l43.33 22.59 104.58 55.35 66.51 35.51 100.74 54.39 76.06 41.33 69.5 38.06c.31.17.64.3.91.51 2.58 1.94 4.89 1.56 7.63-.11l141.48-85.8 145.08-87.27 101.65-60.59 49.24-29.2c2.63-1.54 3.76-3.22 3.67-6.34-.87-30.36-.33-60.74-.88-91.1l-.65-93.2-.76-166.87-.38-115.9c-.01-1.16 0-2.33-.07-3.49-.08-1.3-.79-1.59-1.89-1.01-1.03.54-2.04 1.11-3.05 1.69l-77.39 44.68-92.63 53.19-94.53 54.08-83.76 47.59-84.96 48.31c-2.68 1.54-4.64 1.55-7.3-.04l-82.17-48.96-212.66-127.29-159.44-96.57-45.03-27.4c-1.29-.78-2.54-1.66-4.07-1.94-.02-.21-.02-.45-.02-.68z" fill="url(#F)"/><linearGradient id="G" gradientUnits="userSpaceOnUse" x1="-306.379" y1="-68.581" x2="75.96" y2="-68.581"><stop offset="0" stop-color="#833ab4"/><stop offset=".5" stop-color="#fd1d1d"/><stop offset="1" stop-color="#fcb045"/></linearGradient><path d="M68.79 238.68c.84-1.25.71-2.68.66-4.06-.72-20.81-.51-41.65-1-62.46l-.64-44.66c-.51-14.19-.2-28.39-.73-42.57-.5-13.38-.17-26.76-.67-40.13-.58-15.24-.17-30.48-.72-45.71-.52-14.54-.16-29.09-.67-43.62-.66-18.49-.2-37-.73-55.48-.38-13.03-.32-26.06-.39-39.08-.02-2.93-1-4.61-3.53-6.07l-78.28-45.21-74.83-43.51-124.49-72.67-68.95-40.43c-1.24-.73-2.53-2.33-4-1.43-1.25.76-.62 2.59-.62 3.94l-.06 29.32-.48 145.2-.32 96.35-.56 87.95c-.01 1.05.09 2.11-.02 3.14-.28 2.53.85 4.03 3.01 5.3l42.59 25.34 152.26 91.54 155.74 93.89c1.49.9 3.05 1.71 4.23 3.06-1.83-.06-3.3-1.09-4.8-1.94l-66.25-37.42-65.74-36.91-62.06-34.9-79.63-44.95-82.49-47-7.29-4.13c-1.61-.87-2.38-2.07-2.3-3.93.09-1.86.03-3.72 0-5.58L-305.8-125l-.59-246.1c0-1.16-.01-2.33.06-3.49.08-1.29.82-1.58 1.91-1.06.73.35 1.43.77 2.14 1.18l135.55 80.05 103.87 61.61 116.91 69.73 18.91 11.22c2.21 1.26 3.01 2.84 2.99 5.34l-.31 41.89c-.53 16.52-.1 33.04-.6 49.55l-.8 51.64-.62 41.52c-.53 14.77-.2 29.55-.76 44.31-.48 12.8-.13 25.6-.64 38.38-.63 15.82-.19 31.65-.75 47.46-.57 16.05-.22 32.11-.67 48.16l-.62 20.22c-.01.87.51 2.38-1.39 2.07z" fill="url(#G)"/><linearGradient id="H" gradientUnits="userSpaceOnUse" x1="135.106" y1="-72.825" x2="517.872" y2="-72.825"><stop offset="0" stop-color="#833ab4"/><stop offset=".5" stop-color="#fd1d1d"/><stop offset="1" stop-color="#fcb045"/></linearGradient><path d="M141.45 233.83c-.89-1.36-.71-2.91-.73-4.41l-.27-23.04c-.69-17.21-.18-34.44-.74-51.65-.45-13.84-.15-27.7-.66-41.53-.53-14.31-.19-28.63-.72-42.92-.53-14.19-.15-28.39-.69-42.58-.58-15.36-.15-30.72-.71-46.07-.55-15.12-.18-30.25-.68-45.37-.73-21.99-.3-43.98-.72-65.97l-.42-20.58c-.07-2.74.81-4.45 3.26-5.91l150.2-89.6 97.29-57.68 127.76-75.42c3.65-2.16 4.17-1.85 4.17 2.58l-.08 46.09c-.72 35.26-.25 70.52-.4 105.77l-.35 130.23-.6 112.41c-.01.58-.04 1.16-.02 1.75.1 2.72-1.07 4.44-3.53 5.82l-52.8 30.02-80.77 45.81-86.1 48.43-104.03 58.56-43.49 24.5c-.91.51-1.86.96-2.82 1.38-.63.27-1.12.01-1.39-.64 1.07-.13 2.01-.59 2.9-1.14l11.91-7.29 148.89-89.75 153.78-92.46 42-24.99c2.13-1.25 2.97-2.72 2.7-5.07-.21-1.85-.35-3.71-.37-5.57l-.67-121.83c-.33-16.99-.16-33.98-.18-50.97l-.12-163.4-.05-21.65c-.02-3.65-.14-3.7-3.4-1.8l-13.57 7.92-85.83 50.31-120.63 70.32-71.84 41.72-56.85 32.79c-2.07 1.18-2.92 2.55-2.94 4.96l-.52 54.8c-.52 16.16-.12 32.34-.68 48.51-.54 15.58-.15 31.18-.72 46.76-.52 14.18-.15 28.38-.67 42.58-.54 14.99-.22 30.01-.76 45.02-.46 12.67-.22 25.36-.63 38.04-.56 17.09-.13 34.2-.73 51.3-.61 16.95.33 33.95-.98 50.91z" fill="url(#H)"/><linearGradient id="I" gradientUnits="userSpaceOnUse" x1="-237.552" y1="-486.787" x2="461.58" y2="-486.787"><stop offset="0" stop-color="#833ab4"/><stop offset=".5" stop-color="#fd1d1d"/><stop offset="1" stop-color="#fcb045"/></linearGradient><path d="M107.9-681.67c1.68-1.22 3.12-.18 4.54.53l22.39 11.4 76.15 38.9 70.75 36.42 93.25 48.39 83.77 43.91c1.09.57 2.81.83 2.83 2.27.02 1.4-1.66 1.79-2.72 2.41l-104.16 61.1-161.99 94.28L107-292.27c-2.06 1.2-3.68 1.23-5.79.06l-126.23-70.3-111.23-62.09-98.53-55.48c-3.67-2.07-3.69-2.51-.09-4.62l73.58-42.88 153.56-88.64 111.83-63.87c1.21-.69 2.41-1.43 3.83-1.61-2.56 2.81-6.02 4.34-9.16 6.29l-116.3 72.11-122.19 75.19-71.25 43.41c-.84.51-1.97.79-2.22 2.29l5.99 3.37 52.46 28.47 94.33 51.58 72.8 40.02 87.39 48.26c3.27 1.82 5.58 1.49 8.59-.27l47.78-27.55 101.4-58.25 90.62-51.78 86.48-49.18c.77-.44 1.77-.67 2.12-1.72-.45-1.24-1.71-1.46-2.68-1.99l-70.07-38.47-76.09-42.01-96.06-53.5-80.05-44.93c-1.23-.68-2.46-1.34-3.92-1.31z" fill="url(#I)"/></g><defs><path id="J" d="M995 700h905V0H497.5z"/></defs><clipPath id="K"><use xlink:href="#J"/></clipPath><g clip-path="url(#K)"><path d="M1398.04 406.14c-4.57-120.5 6.83-262.05 99.19-289.18 106.15-32.08 255.8-50.49 342.09 31.32-2.39-.02-3.29-3.28-5.83-2.62.65 5.98-2.72 3.1-3.39-.81-10.64-1.63 6.15 25.91 3.34 33.87-.73 3.33-4.51 1.39-2.5-1.02 3.18-4.99-3.34-8.96-3.85-13.92-5.31-8.98.45 4.85.72 8.69-4.83-3.29-5.77-9.5-8.08-13.62-4.71-1.24-18.01-4.11-9.42-8.06-4.03-4.88-9.36 1.38-13.47-1.19-2.47-4.54-14.2-2.29-12.07-8.15 3.51-4.05-1.38-7.97-2.83-1.25-1.76 6.06-8.57-3.9-4.92-6.76 2.39-2.79 13.8-6.82 8.27-9.79-5.61 5.69-7.89 4.24-14.86 3.34-3.3 25.36 56.59 27.18 62.19 59.43 1.61 8.1-10.1 7.13-12.78 14.76-8.31 7.85-31.7 27.85-9.11 30.88-2.23 7.68-7.51-1.21-6.82 6.4-1.95 4.94-12.53 3.5-11.83 11.8-.89 5.59-15.12 11.45 2.04 13.73 7.48 2.17-3.65 6.45-5.64 1.3-1.43-4.31-7.72 4.05-6.75 5.27 3.08 6.12 15.33-5.01 15.4 1.99-5.01 4.54 1.01 15.09-6.28 2.91.39 7.18 3.63 38.61-10.01 28.45-5.22 2.22 8.75 5.37 1.03 6.63-2.45.27-2.77 1.49-1.73 3.51 3.65 4.01-6.76 2.88-1.81 6 6.12 6.68-3.21 14.83-6.55 19.08 11.98 3.91 1.15 1.94 4.53 10.67-8.62-4.52-3.81 3.79-10.74 5.78 3.8 1 4.26-2.52 8.11-1.55 4.73-.83 5.47 2.97.5 2.78.8 2.02 3.12 6.81 5.2 9.54 1.25 1.81-4.22 1.02-2.47 3.62 1.57 2.62 4.5-2.64 6.23.14 1.06 2.6-5.05 2.01-3.61 5.15 8.98-.97.39 5.19 8.06 5.19 6.2-1.32 5.86 6.06-.23 5.98-12.05.12 1.94 3.47 6.16.57-5.28 3.78 3.58 14.98-4.29 14.1-1.77-.34-5.03-1.53-5.43 1.24-1.07 4.2 7.5-.03 5.7 3.66-10.27 5.76-9.86-7.35-13.4-1.45-1.02 1.85-2.4 1.71-3.92.73-5.59-4.45-2.12 5.24-6.45 3.42-5.36-1.77-9.6 3.31-14.57 4.66-3.45.25-2.16-6.1 1.43-5.66 3.09 1.13 11.2-2.49 5.44-4.86-8.44-1.33-13.55 10.92-19.82 3.36-3.15 3.14-4.62-.81-6.85-1.81-.69 1.13.69 4.14-2.46 2.64-2.56-.97-3.04 5.09-5.7 2.67-1.3-1.2-5.38-.02-3.81-4.02-2.71-5.89-1.84 6.86-7.92 6.21 9.79 4.03-4.37.67-6.8 6.22-3.23 3.55-5.04-4.72-9.1-.36-2.85 1.86-3.29-5.59-.5-3.03 4.47.33-.06-3.08-2.33-2.85-4.07-3.63 6.41-.38 8.75-2.28-2-2.01-4.53-.1-6.17-1.72 5.8-6.55-10.7-2.47-2.27-12.55 1.86-2.47-4.91-.99-6.55-1.98-4.57-.49 1.66 12.48-11.52 7.11-3.36 5.89-5.04 4.79-7.71.44-7.21 8.28-4.13 7.43-13.94 2.27-6.17 2.69-6-8.87-9.76-9.8-10.36 8.5 2.65 3.88-9.44 17.23-3.69 2.91-1.62-6.56-7.52-6.38 5.36 7.5-7.28 10.65-10.52 13.54.34-3.18 1.36-6.49-2.82-7.44-7.5-1.76 3.85-9.25-2.62-12.88-4.18-2.46-16.14-9.14-17.43-3.72 3.83 5.35 12.53 8.26 3.8 10.84 6.1 5.63-3.25 6.17-2.85-.35-1.75-4.57-10.7-.19-3.23.78 5.84 3.63-4.43 6.87-5.16 3.64 1.27-6.19-9.12-5.37-11.43-6.25-17.96 9.7-4.03-2.14-14.74-2.9-.72.1-1.25.73-.99 1.01 5.32 6.09-2.3 1.53-2.79 5.06-2.09 5.1-11.73-12.55-19.26-1.06-5.42 4.29-.24-2.9-1.87-4-3.14-.04-5.86 7.79-9.13 2.89-2.04-4.2-5.98 4.29-9.33-.01-2.89-4.91-1.07 3.72-8.76-2.03.17 9.44-2.86 9.5-7.4 3.24-12.46-.3 3.4 12.23-14.63 4.88-4.75-1.22.52-8.4-6.62-7.83.43-6.57-7.69-1.19-8.8-5.56.08-2.17 3.16-.21 3.49-2.16-3.48-3.48-9.29 6.07-7.95 7.34 3.04-1.86 1.88.16 1.78 1.67 1.32 4.8 7.04 6.19 7.42 11.77 8.84 18.64 32.35 9.23 50 11.7 77.01-.9 154.59 1.99 230.96 9.25-89.65-4.92-182.27-8.54-273.15-8.24 75.54 4.69 225.96 4.49 324.73 16.14 8.28 2.63-24.14.36-16.54 3.94 6.53 1.66 6.5 1.65 6.39 8.03-.33 3.24-4.11 11.32 2.31 9.75 8.53-.09 41.85-25.4 31.52-11.26-2.43 7.52-33.44 11.8-24.27 18.65 48.39-6.49-34.92 11.71-44.42 17.92-4.17 1.65-9.44-1.33-12.5-.73 1.07.2 4.56 2.78 1.52 2.99-5.5-2.89-4.16 5.17-8.94 4.43-7.35-1.83-1.65 4.2-4.34 4.35-10.93.38-13.33-3.86-5.12 4.05-4.32 1.96-15.49-3.21-17.42 4.64 10.74 4.62-7.98 5.03-4.38-1.67-4.5.34-.03 5.78-4.8 5.56-.67.01-1.98 2.66-1.81 3.93 2.07.12 9.62 3.79 2.36 5.52-4.08 3.19 7.42 1.2-5.27 4.72 16.84 2.93-13.18 6.32-15.83 3.16-4.02 3.22 1.55 12.26 6.38 8.03 2.53-3.85 4.27 3.47.77 2.66-6.67-2.82 7.68 13.02-.52 8.97-5.96-3.94-.4 4.06-2.88 5.19-8.29-.78-18.95-1.32-26.68-3.92-1.72 2.37 2.9 3.02 2.26 5.16-1.91-.17-4.18 1.2-5.57-1.42-8.24-6.22-3.17 5.13 3.46 2.42 48.82 5.08-142.8-1.91-174.04-2.73-30.83-7.89-87.91 10.95-87.57-29.97-2.16-25.2-3.01-51.35-18.7-72.09-4.68-6.28 17.29-23.2 17.57-21.42 10.94-14.64 109.9 1 48.48-6.88-15.35-1.39-30.75-2.6-45.98-.23 3.22-4.41-.02-15.96-4.71-19.14zm215.06-108.43c13.39 25.11 52.86-38.89 68.99-50.36 11.45-24.41-32.91-46.09-41.91-63.85-18.24-30.3-60.72 37.78-80.89 48.74-5.21 18.77 41.51 52.36 53.81 65.47zm-39.15-182.11c52.95 1.93 106 1.8 157.9 13.63-48.65-16.72-108.09-20.64-157.9-13.63zm224.27 53.1c-2.24-1.44-5.3-1.78-1.05-3.72 2.42-.82.68-10.51-2.95-6.83-8.45-6.17-19.42 9.16-23.76 17.27 3 7.4-4 7.88-2.06 15.22 7.48 11.18 11.49-16.51 16.74-16.76 4.42 13.27.91-10.23 13.08-5.18zm-326.45 255.62c-10.16.99-35.57-25.15-35.85-7.58 1.08 2.92 9.53-2.05 6.03 4.17-56-5.76 4.48 4.23 29.82 3.41zm322.22-283.68c12.84-2.09 11.95-14.29-3.84-7.11-3.58 1.78 2.47 1.48 1.91 3.47-.06 1.36-.26 3.88 1.93 3.64zm-55.16-8.02c7.4-.59 14.63 3.23 22.04.53-7.31-1.7-14.48-6.27-22.04-.53zm-64 394.84c6.36 4.22 18.15 1.76 24.57 1.18-5.7-4.23-17.35.22-24.57-1.18zm-197.85-391.58c-4.03-2.39-19.53 5.24-21.49 10.52 6.87-4.6 13.7-7.78 21.49-10.52zm195.23 392.56c-2.93-3.14-13.71-.32-19.32-1.53 2.52 3.93 13.81.38 19.32 1.53zm6.07 11.56c1.69.18 3.07 1.93 6.18.6-2.66-.71-4.04-2.11-6.18-.6zm-62-135.4c-1.86.2-1.61 3.06.25 2.85 1.87-.16 1.64-2.98-.25-2.85zm-148.02 6.12c.92.82 1.2 1.84 2.36 1.74 1.35-1.09-.39-2.58-2.36-1.74zm216.14 134.35c.75 1.07 1.03 1.56 1.72.58.4-1.25-.97-1.28-1.72-.58z" class="Q"/><path d="M1769.89 354.03c-.02-6.14.9-6.83 6.43-4.23-3.62-8.6 7.78-6.79-4.54-10.67 3.45-4.51 12.61-12.22 6.55-19.08-1.57-.93-2.47-2.46.62-2.71 5.3-.65-3.06-6.41 2.91-6.8 5.92-.72-1.4-3.52-2.26-5.09 2.26-5.67 5.79 4.95 8.53-.44 4.95-12.55 3.45-16.47 2.71-29.55 3.44.69 1.52 9.9 4.45 3.96-2.99-3.37 4.82-7.64 1.15-8.87-6.36.17-21.04 5.31-11.22-5.55 3.13-3.7 6.74 6.81 11.17 1.78.96-5.09-9.3-1.09-10.45-6.56-1.75-1.42 1.59-4.78 3.47-5.53 4.99-4.23 2.49-13.54 11.98-13.35 3.97-.56 1.54-4.74 3.33-7.29 2.67 3.59 4.2 1.56 5.99-2-22.55-3.05.73-22.97 9.11-30.88 2.44-7.08 14.53-7.07 12.79-14.77-5.63-32.28-65.53-33.92-62.22-59.42 9.85 2.24 8.06.66 15.97-3.4 1.96 6.44-19.73 11.35-6.38 18.49 3.27.26 1.61-6.27 4.85-5.71 4.51 2.04-4.08 6.84 1.01 8.35 3.62 1.67 7.92 1.69 10.96 4.88 4.1 2.54 9.49-3.71 13.47 1.2-8.55 3.87 4.66 6.9 9.41 8.06 3.39 12.59 12.04 17.74 4.29 1.26 3.72 3.69 8.91 12.38 6.94 17.58 9.49 8.7-8.47-29.46-2.96-34.65 3.27.13 1.81 5.96 4.71 6.12 2.36-.44.02-2.41.8-3.53 2.54-.67 3.45 2.6 5.83 2.63-86.34-81.89-235.86-63.31-342.08-31.33-16.96-2.13 73.2-19.78 92.54-24.96 157.69-25.42 312.68 31.75 316.48 210.95 12.41 91.35 11.84 184.32-9.2 255.87-17.15 20.64 4.18 14.32-3.77 31.6-1.46 23.14 8.25 7.66 6.88 23.37 2.81 5.53-8.11 9.15-2.18 14.22 5.88 4.21-2.48 10.73 1.34 16.21.71 1.07.2 3.05-1.59 3.37-3.32.64-.21-5.33-3.91-5.02-4.25 2.18 2.59 7.77-1.1 11.09 5.13 3.45.82 3.11-.08 7.19-.76 10.52 1.86 35.25-11.4 31.53-.75-1.09 3.74-3.18-.09-3.27-8.3 1.43 2.68-8.91-3.42-11.77-9.63 12 7.14 22.63 9.86 33.34 4.97.02 4.51 6.34 8.67 7.29 2.89.25 4.5.77 1.34 3.41 1.22 4.42 10.19 6.98 6.94 14.6-7.74 3.41-9.04-9.41-11.93 1.63.21 2.43 1.76 5.31-2.55 5.92-.86.12-.32 1.42-.31 2.24 1.06 11.11-4.45 21.15-7.76 31.77-.4 14.83 9.02-12.65 10.03-18.05 4.18-1.73 13.42 6.37 11.67 13.02 1.92 5.42-2.51 6.88-3.4.69-2.36-4.56-9.9-2.58-7.94 2.64 3.87 67.37-154.74 34.6-212.12 40.04-86.61-.27-172.94-16.72-257.15-12.61-13.33-4.56 1.56-2.65 8.44-5.37 9.88-5.07.2-9.8-6.3-9.01-6.36-.03-.72-7.64-5.01-10.7 14.42-11.81 52.53 5.66 74.8 1.19 4.47-1.38-16.97-3.07-22.46-2.52-5.45.29-5.26-7.5.07-5.93 3.43-.2 5.97 4.46 9.72 2.28 1.28-2.99-.68-12.7 5.94-6.7 6.62 4.93-5.66-18.41 14.41-10.44 3.7 9.02 3.43-7.76 10.03-5.52 5.24-2.58 3.67 4.33 6.58 3.46 11.67-2.45-.56-7.76 10.54-8.53-1.36 10.29 11.9.67 11.06 9.17-2.97 1.85-9.13 2.58-.97 4.1 6.11-1.94 7.78-13.34 17.34-7.78 4.74-1.05 6.76 4.49 10.54 4.31 2.16-1.25-.72-2.22-.64-3.44.15-.85 1.26-4.32-.71-3.75-3.59 1.87-4.39-1.16-5.96-3.03-3.87-3.7 7.22-3.5 3.36-9.02-.7-2.03-1.49-5.81-.19-7.52 2.35.65 2.12 5.35 5.86 3.84 9.89-.6 18.78 2.23 28.89 3.38 9.98 8.92-4.06-16.93 5.47-7.62 2.37-.04.48-2.76-1.12-2.38.49-7.08 7.61-11.81 4.54-1.96 3.99 2.22 3.11-4.13 6.45-4.06 5.51-.84-8.65-8.69-.61-8.48 6.48.84.86-7.08 5.21-6.1 8.2 2-.91-9.31.17-11.96 14.89 5.29 2.82-26.59 16.49-13.44 6.35 6.23 1.15-2.55 3.36-2.5 2.61-.95 3.45-1.92 2.14-4.86-2-5.42-5.68 1.75-7.78-2.07-1.57-1.98 3.4-1.72 2.68-4.5 6.86-9.76 9.75 6.76 13.06-.05.57-2.57 2.46-2.36 4.31-2.24 10.19-4.26-2.86-4.94-5.3-6.65-.19-.3-1.01.37-.91 1.02.68 4.2-1.9 1.4-2.5.95-9.21-7.06 5.38-2.61 6.3-10.23.65-2.3 4.65-6.43 6.77-4.51.7 1.24-.17 2.33-1.38 3.17-3.36 1.15.74 8.54 2.05 4.82-1.09-3.39.72-2.7 2.72-2.3 8.48-2.37-6.26-3.72.89-6.59 5.1-1.42-4.19-14.69-4.71-7.98 1.84 2.52 4.18 5.11-1.83 3.77-2.28 3.03-5.84 2.4-3.87-2.05.86-6.43-6.12-1.3-3.44 2.59 1.34 4.2-1.09 11.01-4.14 12.37-.06-3.34 1.61-4.74-2.77-5.07.71-2.07 4.93-1.11 4.37-4.03-2.29-3.53-6.94 4.09-2.66-4.6-1.08-1.81-3.2.15-4.72-.5-1.56-1.63 3.25-1.48.47-3.04-1.02-.57-2.27-.66-1.96-2.18.76-2.95 4.12.03 5.39-2.24-1.44-2.03-1.78-5.04-5.26-5.31-3.06-1.78 3.03-1.89 1.7-3.92-1.78-3.2-5.8 3.06-7.35-.13.42-5.47 15.58-.26 8.75-9.07-2.49-1.52-2 2.36-4.03 2.72.15-2.16-1.16-4.05 1.33-5.84 3.5-4.65-.26-9 3.59-14.51 4.21-4.48 4.75-12.17 1.27-16.07 7.4-.79 2.41-2.94 6.35-4.17 5.05-.74-.13-1.79.92-4.14-.95-6.77-26.11-.58-35.2-2.61 6.62 3.35 5.48 1.84-.47 4.56 3.61 1.35 2.64 4 1.46 6.3-1.1 4.64-.84 9.48-3.54 13.47 3.29 2.15 1.54 3.91-.36 5.7-1.89 3.52 2.84 5.17-3.49 4.68 7.92 7.05-2.8 10.62-7.94 10.07-2.95-2.91 4.09-9.24-2.78-9.96-.51-7.07 9.66-29.04-.21-34.88-2.5-.11-5.14.61-8.15-.98 36.27-2.55-30.61-3.66-44.43-4.17 44.39 5.77 46.33 5.57-2.83 2.69-6.15-1.47-1.4 9.05-5.83 6.08-2.02-10.44-42.66-5.41-36.09-10.34-14.29-6.51-54.05-4.26-69.49-6.03-9.66 8.34-1.19 24.56-5.99 34.96-8.33 13.34 2.28-15.43-4.48-22.51 2.55-.22 3.82-6.39 1.66-6.88-6.38 11.34-3.59-.71-4.06-7.4-3.28 2.5-9.11-3.96-11.32 0 80.28-2.46 187.94 11.74 277.49 8.01-7.73-8.33-21.71 4.07-28.52-5.65 2.14-.68 3.99-1.15 5.31 1.33 1.39 2.62 3.66 1.26 5.57 1.43.62-2.24-3.98-2.6-2.26-5.17 7.73 2.61 18.38 3.11 26.67 3.92 2.51-1.13-3.09-9.02 2.88-5.2 5.92 3.15-.73-7.03-1.62-8.63 1.68-1.05 5.93.05 3.5-3.89-5.37 4.45-13.05-1.21-8.52-7.14 3.68 1.85 18.21 2.35 21.47-2.04-1.56-2.09-4.18 1.46-5.64-1.12 2.36-2.3 9.63-.38 3.96-3.82.74-1.84 4.74-.42 4.29-3.14-1.23-4.71-9-.94-3.53-7.21 10.08-12.55-1.94 2.93 13.49-1.24-2.27-1.86-8.1-3.45-1.16-6.03 4.69-2.95 10.29.25 14.28-1.25-8.61-8.17-5.3-3.51 5.12-4.06 2.29.78-.1-2.29-.01-3.77 2.14-1.88 6.2.94 7.64-1.96.58-5.08 4.81-2.06 6.8-3.91.26-1.47-5.23-2.76-1.32-2.76 7.57 4.94 16.08-.22 22.09-4.17 5.43 2.55 7.19-2.46 11.77-1.65 12.11-8.29 28.14-3.96 39.97-13.65-6.22-1.77-15.16 8.27-20.83 1.29 7.08-10.37 25.69-9.07 31.01-22.1-10.55-.67-44.02 31.68-38 6.57.12-6.38.15-6.37-6.39-8.02-7.54-3.61 24.77-1.29 16.54-3.95-109.04-10.63-220.32-13.11-331.27-15.33 21.66-1.39 43.42.86 65.29-.05 64.34-.58 128.68 1.51 192.76 7.4 31.45 3.01 16.97-1.41-4.21-2.29-76.04-6.43-152.19-7.07-228.45-7.28-20.63 3.88-24.66-8.92-34.08-23.06 2.1-4.25-2.44-.29-2.52-2.76 2.59-1.99 4.4-9.48 8.7-6.25-.32 1.96-3.41-.02-3.49 2.16 1.4 4.21 9.13-.8 9.07 5.86 4.68-2.19 3.5 12.61 16.33 9.23-4.72-7.45 9.65-10.03 7.86.16 4.77-2.47 3.38-12.53 6.69-8.88 3.62 4.26 3.79-4.32 7.48 1.79 4.07 2.1 5.94-5.07 8.1-.87 2.08 5.97 11.96-8.62 8.75-.06-3.76 7.05 15.36-11.65 19.31 4.89 2.31-.54 1.99-2.9 2.72-4.16 3.06.25 6.09.62 2.27-3.56 1.84-3.08 7.39.67 5.39 4.15-.81 4.89 11.3-5.07 17.4-.88 5.03-1.35 3.09 5.69 5.84 6.26 1.29-2.25 4.78 1.8 5.2-1.99 1.38-3.9-4.47-2.07-4.54-5.13 1.18-1.48 6.66-.84 6.31 2.15-.34 4.54 7.74 5.55 3.97 1.1-2.45-2.32.43-2.75 2.23-2.98 1.64-2.42-5.03-6.54-7.21-9.47 1.1-5.52 13.43 1.31 17.42 3.72 6.47 3.69-4.87 11.08 2.62 12.88 4.17.94 3.16 4.25 2.82 7.44 2.54-2.76 10.62-4.2 12.15-9.54-3.84-5.94 3.74-3.19 3.53 1.39 1.76 6.23 5.02-6.07 8.48-6.39.13-4.04-3.64-5.13 3.32-9.85 3.74.83 3.6 12.57 9.76 9.8 10 5.34 6.69 5.88 13.94-2.27 2.61 4.34 4.52 5.37 7.72-.44 13.05 5.47 7.03-7.71 11.52-7.1 7.09 1.68 7.77-1.49 4.54 6.54-.88 2.52.27 3.28 2.58 3.58 7.67.94-2.83 4.99 7.88 6.13-2.29 1.76-12.88-1.27-8.76 2.28 4.87.83 5.98 3.32.67 2.73-1.24 7.48 6.45-1.71 8.46 4.26 4.25 1.68 6.43-8.49 12.21-3.83 2.69-1.12-.51-2.44-2.6-3.13 5.94-.72 4.37-5.56 6.59-8.05.94.08 1.65 1.01 1.33 1.84-1.43 3.98 6.43 5.99 7.35 2.31 2.25-2.21 4.97.81 4.62-3.61 2.24 1 3.7 4.95 6.85 1.81 6.28 7.46 11.4-4.61 19.82-3.36 5.64 2.43-2.23 5.96-5.44 4.86-9.05 4.12 1.02 7.03 5.49 2.79 2.34-4.67 9.36.73 10.06-3.31-.09-7.11 5.82 1.9 7.96-2.63 3.89-6.1 2.74 7.32 13.4 1.44 1.81-3.66-6.8.52-5.7-3.66.4-2.77 3.67-1.58 5.43-1.24 7.94.86-1.07-10.3 4.29-14.09-4.47 3.06-17.98-.56-6.17-.57 5.92.18 6.59-7.36.23-5.98-7.83-.05 1.14-6.14-8.06-5.19-1.45-3.03 4.61-2.64 3.61-5.16-1.74-2.67-4.69 2.41-6.23-.14-1.75-2.5 3.67-1.88 2.47-3.62-2.07-2.78-4.41-7.48-5.2-9.54 8.43-1.01-.5-4-4.29-2.76zm-99.74 227.59c-8.3 4.73 3.09 9.16-2.37 14.04-1.66 3.61 4.3 7.28-4.42 9.88 7.08.7 1.08 5.2 5.33 8.2 2.39 2.63 3.72-.3 4.78-.22.98 2.73-1.51 5.03 3.35 3.57 9.24-.24.85-12 6.87-11.74 2.98.89 5.97-3.66 2.61-5.05-.18-3.41 3.46-11.24 8.67-12.66-5.85.42-9.34-5.01-2.26-4.33.8.69 2.31 1.35 2.77-.09.3-2.41-10-4.62-5.29-7.15 4.21 3.15 4.1 3.03 3.51-2.67 7.44-10.12-14.95-7.31 6.58-9.24-15.63-5.75-28.16 2.59-30.13 17.46zm148.31 196.11c23.62-6.49 27.15-110.12 19.61-138.36-.68-3.82 1.46-25.01-4.22-19.51.47 5.5-4.1-.98-5.55 2.93-1.47 3.44 5.38 3.42 1.47 7.3-3.08 4.88-6.41 14.62-2.15 18.99 2.56 1.94 2.91-1.11 4.21-1.98 5.58-4.16 1.24 6.89-.83 8.62-3.79 13.1 2.93 27.98-5.68 41.52 5.33 25.91 14.84 57.37-6.86 80.49zm33.27-578.89c-.33-4.39-4.43-.31-.02.02-9.5 16.19 4.01 33.29 2.05 51.52 10.21-11.58-13.39-43.31 2.54-47.44 10.51 12.73 10.2 30.51 13.46 45.16 5.77 2.49-.19 22.86 8.8 17.69-2.52-3.49-5.04-6.33-.75-10.35 7.37-27.17-1.47-52.67-14.69-80.07-2.82-6.43-19.83-27.04-22.99-20.29 3.96 5.23-5.39 4.8 4.2 6.28-3.72 7.04 19.81 18.6 9.56 19.13-2.31-2.72-3.79.48-.95 1.73.59 3.16 5.67.1 5.26 2.8-3.68 5.21 1.74 7.86-5.22 5.97-3.93 2.61 4.66 6.92-1.25 7.85zm-134.87 555.03c10.3-3.08 42.09 8.28 34.21-11.37 2.1-70.05 5.73-56.96-69.86-44.4 5.76 33.97-13.59 64.23 35.65 55.77zm117.62-290.55c-.32 2.25-2.89 4.74-1.46 6.43 7.72 7.78-.04 20.98 3.47 31.58-3.01 7.86-.65 15.84-2.71 22.78 1.19 5.39-4.75 15.02.08 17.71 10.43-10.69 5.44-30.69 9.71-45 3.71-9.25 8.91-43.85-7.56-29.12-.92-1.42.24-3.1-1.53-4.38zm36.57 281.84c-4.94-70.99-3.23-141.04-5.18-212.37-.49 70.27-4.1 143.33 5.18 212.37zm6.34-370.98c-15.23 5.55-3.94 28.23-8.05 39.38-2.41 2.57-6.45 15.4-1.37 13.95 6.44-7.94 10.97-18.56 3.59-25.94 5.12-8.7 3.51-20.18 11.68-27.58.14-3.97 4.41-7.08 3.58-10.43-1.33-1.48-2.81-2.72-5.49-.73 3.33.61 2.96 1.95 1.21 3.42-2.11 3.67-10.91 3.91-5.15 7.93zm-15.47-124.5c-15.58 3.38 1.22 54.87-1.36 72.52 6.55-23.53-7.54-52.48 1.36-72.52zm-15.74 291.27c-24.8.69-15.49 49.28-10.42 15.99-3.83-8.93 6.15-10.08 10.42-15.99zm-88.25-105.34c16.82 5.77 41.75 1.41 61.23 2.26l-61.23-2.26zm-100.16 259.93c4.55 5.47 19.72 4.79 18.01-1.65-.3-6.36-5.8-3.27-9.33-6.14-.59-.92-1.48-1.46-2.45-.45-1.11 1.71 1.9 5.84 4.41 3.84 12.05 1.24-4.52 8.02-10.64 4.4zm-14.15-288.56c-1.59 6.54 3.11.04 5.12.11 1.21 1.24-.42 5.15 3.11 3.7 1.58-1.91 3.88 2.01 5.02-.49-3.3-3.1-17.56-16.31-13.25-3.32zm-1.11 277.39c-1.3 1.51-1.4 4.97-5.08 5.56-3.99-1.13-2.76 4.02.83 2.2 12.47-3.85 4.55-20.95 4.25-7.76zm45.91 6.58c-3.39-2.92-8.31-5.64-11.21-3.52.67 5.67 6.95 2.63 11.21 3.52zm140.53-246.97c-2.55-1.55-13.35-1.55-15.9 0h15.9zm21.41 13.39c-1.24-3.16.92-8.35-2.91-10.03-1.47.68 1.23 14.65 2.91 10.03zm-197.8 107.1h-18.13c6.06 1.2 12.12 1.94 18.13 0zm-156.69-148.34c-3.72-2.92-7.38-1.22-10.76-3.61 2.29 7.24 6.46 3.26 10.76 3.61zm152.11 301.56c.46-3.1 4.65-2.8 4.86-5.41-3.4-3.5-7.5 1.76-4.86 5.41zm-130.77 62.27c-8.85-1.88-11.62-1.91-14.92 0h14.92zm316.09-321.43c2.24-1.68 4-3.25 4.39-5.76-1.92-1.97-5.16 2.94-4.39 5.76zm-185.84-44.88c-2.9-1.35-5.16-.74-6.89 2.03 3.11 1.63 4.77-.97 6.89-2.03zm-14.71 277.39c-1.27 1.18-3.55-.35-4.18 1.71.16 2.8 4.91 1.09 4.18-1.71zm-48.94-284.26c-2-.44-3.47-.35-5.34-.11 2.95 3.16 2.95 3.16 5.34.11zm83.11-1.62c-.86 1.76-4.36 2.51-3.17 4.43 1.7 1.04 4.55-2.1 3.17-4.43zm-119.28 2.69c-1.21-2.35-4.14-5.32-5.01-2.38.79 1.86 2.62 1.41 5.01 2.38zm81.42 274.27c1.61 1.39 2.81 2.18 4.43 1.61 1.79-2.09-2.42-3.03-4.43-1.61zm41.69-272.37c-1.46.14-2.01 3.08-.2 2.7 1.21-.24 1.81-2.63.2-2.7zm9.76 315.09c.7-1.55 1.02-2.65-.3-4.32-.72 1.67-1.11 2.77.3 4.32zm-20.96-312.74c-1.63.02-1.03 1.78.07 2.08 1.38.26 1.24-2.07-.07-2.08zm-127.56 152.55c-1.59-.24-1.59 1.87 0 1.58 1.58.27 1.59-1.81 0-1.58zm107.99-157.07c2.52-.52-.99-3.39-1.08-.82 0 .75.59.82 1.08.82zm24.17 6.83c.71-.7.96-1.45.22-1.98-1.34-.16-.98 1.27-.22 1.98zm-19.99-16.2c-1.1-.47-1.77-.87-2.52-.19-.24 1.61 1.07 1.05 2.52.19zm24.99 180.45c-.14-.23-.26-.71-.55-.85-1.9-.32.04 3.35.55.85zm54.69-165.53c-.58-.8-1.21-.95-1.54.01-.16 1.31 1.17 1.23 1.54-.01zm58.3-92.99c.61.42.85.32 1.01-.4-.6-.42-.85-.31-1.01.4zm-123.42 335.43c-.51-.36-1-.26-.97.38.4.54.87.28.97-.38zm77.95-245.86c-.65.23-.69.5-.35 1.05.52-.3 1.05-.51.35-1.05z" class="U"/><g class="Q"><path d="M1904.56 735.96c3.18-7.87-5.65-9.99-6.94-14.6 3.16-2.65 1.55-3.16-1.34-3.41-4.17-.95-3.67-7.25-8.67-7.29-1.6-3.25-3.8-6.78-4.92-10.81-1.42-4.65-10.49-7.49-7.75-14.11.61-1.36 1.23-12.25 4.15-7.02 2.94 4.36-5.67 11.3 2.09 10.37 4.19.03-1.19 1.98.08 3.27.97 1.38 1.93.45 2.89-.2 10.33 1.6 7.45-22.78 8.52-31.32-.77-3.12 6.74-4.15.65-6.18 1.36-3.67-2.55-9.55.52-12.1 3.87-.47.33 5.69 3.91 5.02 1.79-.32 2.3-2.3 1.59-3.37-3.81-5.45 4.52-12.03-1.34-16.21-4.18-2.28-.61-6.25.52-7.27 4.52-4.06-.87-8.42 2.25-12.45-16.57-7.6 2.61-24.58-10.85-33.45 29.56-73.34 28.56-163.33 18.06-258.78-5.03-257.51-254.72-244.65-395.17-208.06 147.51-32.6 31.44-120.89 214.49-120.29-3.93 6.42-11.97 53.81-14.06 32.09 4.22-1.22 2.16-6.03 2.97-9.31 2.56-.7 1.74-2.42 1.09-3.95-1.48-2.83 2.87-2.73 3.18-6.83-9.38 2.14-2.08 10.87-6.18 9.92-17.41-1.47-48.81 48.13-36.38 63.99 12.2-3.54 37.59 7.94 41.07-8.24 2.98 2.9-.02 8.57 7.06 7.33 9.22-2.66 21.53 8.9 25.43-2.17.88 1.17 0 2.21-.17 3.27 6.79 8.05 26.31 5.64 37.34 9.44 8.53-3.47 9.99-19.93 15.38-28.52 3.74-9.25.82-23.43-7.98-27.61-3.36 1.9-.31-3.77-3.25-2.88-5.19 1.45-1.12-6.13 2.05-5.96 28.86-32.91 87.87-19.41 125.44-5.62-26.27 4.96-39.03 50.14-51.1 72.03-20.21 26.16 18.97 35.63 28.24 56.37 6.12 14.33 25.39 28.6 20.1 44.78 20.35 27.52 11.06 118.18 7.12 177.63-5.6 37.27 12.67 74.47 4.69 110.27 3.42 10.25-25.93 34.66-14.1 27.55 4.81-4.13 15.24-19.2 12.57-4.11-.94 17.11 6.68 35.33 9.21 50.8.79 15.68 7.27 30.49 9.31 43.07 1.3 7.09-.77 28.88 4.18 26.41 11.57.86-7.06 9.71-.56 13.89 6.32 23.87-7.01 56.7 2.5 83.87 6.14 29.98 37.08 99.07-11.38 98.13-4.26.61-9.5-1.85-6.07-6.42 2.33-4.29 1.19-34.22-.69-19.93.63 9.48-13.34 6.41-19.1 11.12-4.34 12.67-37.79 4.21-32.1 13.28 2.98 4.01-5.32 1.02-7.51-.49-6.87 2.02-16.09 1.39-23.7 5.79-4.3-3.7 39.1-11.52 42.77-26.57-5.15-3.41-2.49-.23-6.57-1.03 6.78-5.54 1.75-13.07 5.99-18.01 6.14-3.77 5.4 6.41 9.36 6.26 3.58-7.79-3.02-14.1-8.67-18.47-9.02 1.48-2.77 19.64-13.23 24.26-1.06-7.12 5.07-13.36 4.58-20.86 5.86-5.21 2.67-12.96 3.93-18.76 6.62-.74-.86-9.24 5.57-10.54 3.1-.59 1.22 5.09 4.78 3.59 2.64-1.34 4-.76 4.88 1.46 1.43-.66.63-2.06-.73-2.06zm42.65 25.74c.48-5.72 5.61-17.72.35-20.72-3.16 4.13-1.13 14.66-.35 20.72zm-46.41-609.83c.03 3.23-3.38 8.96 1.28 10.01 4.11-1.75 1.27-7.82-1.28-10.01zm39.07 609.36c-3.15.79-2.26 8.76-4.04 13.02 2.87-3.8 2.47-8.61 4.04-13.02zm2.72-11.45c-1.27 2.8-2.45 5.57-2.22 8.64 1.31-2.77 2.35-5.59 2.22-8.64zm7.16-127l.07-.33c-.32.1-.36.12-.07.33zm1.13 95.32c.09 1.96-1.22 2.75-.01 4.11.99-.84 1.27-1.71.01-4.11zM1417.6 593.36c16.31-3.05-.37-30.74 11.87-39 12.97 2.27 63.81-1.89 69.43 8.32 13.92-.45 28.32.35 38.03 8.53 3.72-15.82 35.35.87 49.17-4.44-62.43-5.53-26.28-5 17.85-2.3-5.67 2.55-10.56-.06-15.81 1.66 18.46-1.66 12.12 22.5 7.9 33.73-1.64 3.23 6.1 1.95 2.97 7.77-3.48 9.58 18.82 1.75 8.19-5.74 6.05.57 1.73-1.16 3.49-4.69 1.9-1.79 3.66-3.55.37-5.7 2.65-3.93 2.47-8.87 3.53-13.47 1.19-2.3 2.16-4.94-1.45-6.29 5.9-2.57 7.07-1.26.46-4.55 9.66 2.12 36.33-5.08 35.16 3.98 4.93 4-3.89.91-2.52 4.87-8.14 4.5-1.33-.48-3.21 7.84 3.51 6.93-7.62 11.57-4.02 18.57.87 1.2-2.52 4.26-2.33 6.22-2.5 1.79-1.19 3.68-1.34 5.84 2.03-.36 1.54-4.24 4.03-2.72 4.36 5.44-1.42 6.44-5.69 6.12-1.11.94-3.72 1.28-3.06 2.95 1.57 3.17 5.56-3.05 7.35.13-5.18 6.47 1.25 1.71 3.56 9.23-1.76 1.3-9.18 1.28-3.42 4.42 2.78 1.55-2.03 1.41-.47 3.04 1.42.74 3.71-1.43 4.71.5 1.12 2.05-2.88 2.17-1.75 4.15 1.43 1.46 3.55-2.79 4.41.46.41 3.12-3.53 1.71-4.37 4.03 4.24.25 2.78 1.88 2.76 5.07 6.03.75 2.63-27.44 7.58-14.96-2.09 4.33 1.66 5.28 3.87 2.05 8.68 1.71-.38-3.08 2.51-5.61 14.96 11.14-4.99 8.37 5.72 14.74-.75 4.17-7.13-1.64-5.3 3.96.34 1.05-.81 1.28-1.71.73-4.89-3.09 2.04-5.76 1.04-8.71-2.03-1.75-6.15 1.94-6.77 4.51-.89 7.52-15.55 3.29-6.3 10.22.6.46 3.18 3.25 2.5-.95-.1-.65.72-1.32.91-1.02 1.66 2.64 3.86.81 5.84 1.02 8.7 5.41-3.35 4.21-4.84 7.87-.2.9-.69 1.99-1.99 1.85-3.48.02-1.64-5.35-4.87-4.81-4.61-.17-5.53 2.76-7.76 5.76-.87.21-2.38.23-1.11 1.76 2.08 3.82 5.79-3.35 7.78 2.07 3.28 6.49-7.34 2.51-.88 9.24-5.66-.44-12.32-11.78-12.89 1.66 3.3 18.42-14 .45-5.23 19.57 1.17 5.76-5.69-.43-4.96 3.75 2.65 8.87-12.89.2-2.1 11.05 3.13 2.82-3.64 1.21-3.23 4.25-.69 4.41-7.54 1.4-2.99-.79.18-8.51-9.76 7.04-7.63 9.89 8.5 11.71-13 2.39-18.42 1.11-4.97-.13-14.48 3.31-17.01-2.52-6.13-3.69 3.33 12.39-3.89 12.3-4.43 1.05 1.81 8.62 5.18 6.2 2.29.83 2.57 13.15-2.52 4.82-5.34-2.34-17.12-6.13-19.12 1.63-.37 4.59-7.33 5.99-9.38 1.77 2.43-.55 7.67-.17 5.22-4.4-5.55-3.71-10.69 2.89-10.81-6.43-10.91.69.9 6.19-10.54 8.52-2.81 1.1-1.55-6.15-6.58-3.45-6.04-.69-5.08 5.57-7.63 8.28-3.35-2.91-5.77-5.94-11.57-3.38-7.69.83-1.03 7.1-2.93 11.47-4.89-1.2-7.44-4.74-8.26 3.37 2.72 3.24-3.35 4.73-5.59 2.27-1.92-1.8-7.89-3.32-8.24.51 3.64 8.54 21.13 1.79 28.84 5.32-13.9 6.39-110.37-18.1-66.27 11.28 6.03-1.51 5.69 7.35.44 8.25-6.54 2.36-22.11 1.19-8.44 5.37-9.63 7.58-17.32-8.76-26.03-2.14 2.55-11.44 3.95-22.56-1.09-34.13-1.97-5.76 8.45-9.3 2.95-16.18-2.96 1.64-.75 13.22-3.78 6.66-3.56-65.66 6.99 7.98 10.4-54.81-3.24-18.09-11.08-31.02-7.24-49.77 6.27-6.12 5.74-16.23 8.6-23.96 3.32-1.4 1.8-2.06.54-4.54 4.43-2.31-2.32-7.46 4.63-7.6-5.6-2.74.61-5.19-1.29-9.03 2.7-5.31-.77-17.55 6.84-14.42zm52.2-33.9c-.39-1.47-5.41-2.99-8.06-1.08 2.78-.45 5.31 1.26 8.06 1.08zm-62.2 219.92c1.62 1.14-3.18-4.63-2.97-5.56 1.21-4.73-1.74-3.85-4.41-4.13 2.01 6.02 3.96 8.54 7.38 9.69zm86.85-218.6c-7.23-1.35-14.51-2.06-21.85-1.87 7.17 2.19 14.46 2.68 21.85 1.87zM1557 748.01c1.29 1.41 4.27.42 3.01-1.29-1.44-.68-2.26.11-3.01 1.29zm-5.39-2.03c-.22-1.29-1.52-1.54-1.53-.21.24.93.86.95 1.53.21zm-1.38-5.79c-.81.58-.96 1.22.01 1.55 1.31.16 1.23-1.17-.01-1.55zm-26.12 3.76c-.42.61-.32.85.4 1.01.42-.61.31-.84-.4-1.01z"/></g><g class="U"><path d="M1927.03 489.5c-6.06 4.54-9.57 11.49-16.15 15.39 11.58-14.43 22.1-29.77 23.89-48.97-24.61-77.97 15.65-191.48-12.89-262.34 1.47 10.76-3.34.55-5.02-3.75-.98-4.53 5.28-8.24 1.19-12.66-3.86-13.97-13.99-23.45-20.63-36.13-37.31-41.7-43.13-32.22-14.44-86.67 12.12-13.47 14.36-38.44 37.3-41.72 4.6.71 17.75 13.04 8.69 13.67-2.48-2.3 2.04-5.8-2.78-6.8-6.21 7.95 15.88 22.41 6.53 4.98 10.87 9.93 10.86 28.11 14.86 41.77 20.17 100.66 30.28 207.48 35.2 303.87-13.11 17.33.13 79.68-8.58 54.66-1.21 7.11 6.25 17.35 1.05 24.73-3.27.6-5.97 13.72-.92 13.76-14.22 12.29-9.05 32.73-13.79 49.92 9.6 32.25 8.19 66.71-8.63 96.44 4.08-18-4.26-18.83-.25-.43-1.47-1.68-3 .78-4.48-.07-2.2-12.61 2.67-17.8 2.1-28.95-1.65-16.08-3.52-8.18-3.35 2.58-14.8-18.48-13.3-120.49-18.9-93.28zm-6.34-298.93c-.16-.33-.3-.89-.62-.45.12.37.23.85.62.45zm-90.4-192.28c-15.83 1.32-31.38 12.77-39.84 25.28.37 1.64 1.44.79 2.34.65 2.98-.71-.16 4.53 3.25 2.89 4.38.53 9.98 11.62 9.19 15.96 2.68 13.45-9.58 23.83-11.62 36.9-7.03 6.81-35.75-.69-42.31-6.16 1.76-3.12-1.44-4.52-1.15-.72-5.11 6.91-16.26-3.25-24.1-.39-4.11.13-6.3-.9-5.68-5.4-2.02-2.88-2.5 9.17-13.47 5.99-82.98 17.86 20.83-98.27 7.53-54.38-1.63 23.34 9.57-23.26 12.86-31.21 28.76-17.44 42.91 24.02 61.49 32.62 11.07-12.05 25.32-25.78 41.51-22.03z"/></g><path d="M1404.42 552.67c-4.39 18.97-1.85 106.23-8.95 48.41-5.31-10.35 1.82-22.86-4.44-31.9-2.43-2.44-1.42-3.93 1.07-5.1 6.54-2.34 11.9-3.49 12.32-11.41z" fill="#52525b"/><path d="M1426.57 803.47c16.41-4.43 34.32-2.33 47.66 2.22-15.69.82-36.58 6.12-47.66-2.22z" class="Q"/><path d="M1976.25 418.03c-3.15-13.95.53-31.37 5.94-43.53-1.48 14.38-1.95 30.08-5.94 43.53z" class="R"/><path d="M1427.11 174.25c8.09.71 7.95-8.99 14.48-11.26-5.85 11.69-10.96 28.83-21.37 36.7 2.88-7.22 11.76-17.32 6.89-25.44z" class="U"/><path d="M1978.14 434.14c9.24 3.2.31 27.61-5.69 28.49-3.75-15.25 9.96-7.74 5.69-28.49z" class="R"/><path d="M1398.04 406.14c4.25 6.4 2.94 16.88 1.42 24.58-5.81-3.37-1.28-17.62-1.42-24.58z" class="S"/><path d="M1426.6 175.87c5.84 3.86-1.64 13.51-3.19 18.71-5.78 5.15 1.35-15.04 3.19-18.71z" class="Q"/><g class="R"><path d="M1982.49 358.36c-1.78-10.26-5.01-23.62-2.37-34.1 1.7 11.2 2.63 22.74 2.37 34.1zm-30.82 250.86c-1.58-5.61-.98-11.25-.39-16.9 2.53 5.54 2.21 11.36.39 16.9zm-432.92 197.07c5.92-.45 11.78-.12 17.54 1.39-5.97 1.13-11.8.44-17.54-1.39zm461.34-483.74c-2.94-3.48-1.28-10.68-.79-15.3.96 5.06 1.15 10.16.79 15.3zm-1.33-29.96c-1.69-3.75-.65-7.61-.51-11.44 1.73 3.74.64 7.61.51 11.44z"/></g><path d="M1951.89 653.17c-1.68-4.45-1.01-8.77.71-13.03 1.23 3.52-.39 8.63-.71 13.03z" class="S"/><path d="M1774.45 817.5c3.02-.52 6.04-1.12 9.02.21-3.03.6-6.05 1.47-9.02-.21z" class="Q"/><g class="R"><path d="M1544.29 808.03c2.47-.36 4.97-1.18 7.32.43-2.49.81-4.97 1.27-7.32-.43zm25.61 1.64c2.46-.32 4.95-1.09 7.29.46-2.5.92-5.03 2.35-7.29-.46zm-75.94-4.92c1.92-.69 3.83-1.08 5.65.28-1.94 1.01-3.82.93-5.65-.28zm-24.73-1.63c2.04-1.18 3.97-.45 5.88.37-2.02.84-3.99.82-5.88-.37z"/></g><path d="M1948.88 617.25c-.4-1.54-.21-3.34 1.72-3.45.38 1.83.58 4.23-1.72 3.45z" class="S"/><g class="R"><path d="M1735.88 816.91l2.29-.04c-.02 1.74-2.23 1.8-2.29.04zm-176.24-8c1.11-.51 2.17-.68 3.06.42-1.16.93-2.14.5-3.06-.42zm-135.78-4.94c-.4.22.86 1.23.2 1.89-1.32.38-.64-1.37-.2-1.89zm529.22-159.3c-.8-.84-.82-1.66.05-2.47.42.84.48 1.66-.05 2.47zm-147.82 173.5c1.12-.51 2.24-.51 3.38-.05-1.11 1.96-2.23 1.9-3.38.05zm177.98-456.39c-.88-.4-1.42-.88-.42-1.74.61.47.79 1.04.42 1.74zm-32.36 253.37c-.44-1.04-.12-2.89 1.37-2.6.48.99-.33 2-1.37 2.6zm26.99-337.05c-.81-.43-1-.95-.2-1.58.58.46.7.98.2 1.58z"/><path d="M1977.04 272.13c-.83-.46-.93-.98-.16-1.6.53.49.64 1.02.16 1.6zm-468.56 533.43c.83-.45 1.6-.59 2.22.34-.89.87-1.58.42-2.22-.34zm319.3-807.61c-.61.86-1.13.71-1.6-.14.59-.55 1.12-.51 1.6.14zm1.65 819.96c1.31-.25 2.32-.03 1.16 1.14-.81.23-1-.51-1.16-1.14zm-6.74-820.09c-.47.82-1 .95-1.6.12.49-.63 1.03-.65 1.6-.12zm-76.8 819.23l1.89-.03c-.72 1.27-1.12 1.27-1.89.03zm236.91-446.92c-.92-.9-.42-1.37.52-1.7.19.68.01 1.24-.52 1.7zm-30.49 243.9c1.22.59.91 1.41.5 2.51-.83-.9-.51-2.04-.5-2.51zm-.39-4.38c1.2-1.09 1.46-.2.96.79-.54.31-.97-.11-.96-.79zm-461.63-492.36l-.78.62.78-.62z"/></g><linearGradient id="L" gradientUnits="userSpaceOnUse" x1="1562.017" y1="237.774" x2="1680.843" y2="237.774"><stop offset="0" stop-color="#833ab4"/><stop offset=".5" stop-color="#fd1d1d"/><stop offset="1" stop-color="#fcb045"/></linearGradient><path d="M1574.77 219.44c17.96-9.44 40.83-57.69 59.69-39.7 10.23 21.4 58.53 43.43 43.51 67.54-19.81 11.9-47.82 72.88-68.27 45.53-15.62-22.47-72.85-47.98-34.93-73.37zm36.76 51.19c1.3-18.95 5.43-49.79-.11-67.81-8.57 5.8-6.47 26.83-5.65 36.4-.68 6.52-6.03 36.99 5.76 31.41zm27.15-62.41c-12.41-21.14-9.63 52.62-8.08 61.98 15.9 2.64 3.62-47.16 8.08-61.98z" fill="url(#L)"/><path d="M1573.95 115.6c49.82-7 109.23-3.09 157.9 13.62-51.9-11.83-104.94-11.69-157.9-13.62z" class="U"/><path d="M1614 298.45c24.19 8.68 43.81-38.36 63.97-51.16 15.05-24.16-33.31-46.09-43.5-67.54-6.32-8.35 5.5 1.36 6.48 5.22 10.26 16.72 52.71 39.69 41.14 62.37-13.6 9.58-56.85 75.07-68.09 51.11z" class="S"/><path d="M1798.22 168.7c-12.17-5.05-8.66 18.45-13.09 5.17-5.25.26-9.26 27.94-16.74 16.76-1.93-7.33 5.06-7.83 2.06-15.22 4.33-8.1 15.33-23.45 23.77-17.27 3.64-3.68 5.35 6.02 2.95 6.83-4.25 1.95-1.2 2.29 1.05 3.73z" class="U"/><g class="Q"><path d="M1471.77 424.32c-25.38.81-85.79-9.16-29.83-3.41 3.5-6.22-4.93-1.23-6.02-4.16.32-17.58 25.64 8.55 35.85 7.57zm-69 .99c23.83-3.14 48.08.28 72.05 2.54-22.37-2.52-54.53 2.31-72.05-2.54z"/></g><path d="M1793.99 140.64c-2.19.25-1.98-2.28-1.93-3.64.56-2-5.49-1.69-1.91-3.47 15.79-7.18 16.68 5.02 3.84 7.11z" class="U"/><path d="M1561.03 244.81c8.82 5.18 16.6 15.91 23.4 23.89-8.83-4.82-17.58-15.88-23.4-23.89z" class="S"/><path d="M1402.77 425.31c-5.48 16.35-.36-10.87-3.15-17.81 2.87 3.38 6.71 14.03 3.15 17.81z" class="T"/><path d="M1738.83 132.62c7.56-5.74 14.73-1.17 22.04.53-7.41 2.7-14.63-1.12-22.04-.53z" class="U"/><g class="S"><path d="M1574.77 219.44c-5.5 7-17.26 12.42-14.74 22.83-7.23-8.64 7.68-22.1 14.74-22.83zm100.06 308.02c7.21 1.4 18.88-3.04 24.57 1.17-6.44.59-18.19 3.05-24.57-1.17zm-83.02-251.23c7.25 5.1 14.67 12.49 19.91 19.71-7.74-4.02-15.84-12.21-19.91-19.71z"/></g><path d="M1476.98 135.88c-7.78 2.74-14.62 5.93-21.49 10.52 1.96-5.28 17.46-12.91 21.49-10.52z" class="U"/><g class="S"><path d="M1672.21 528.44c-5.5-1.16-16.8 2.4-19.32-1.52 5.6 1.21 16.39-1.61 19.32 1.52zm-87.23-259.13c3.19 1.47 4.9 4.38 6.86 7.04-4.1-.58-6.71-2.61-6.86-7.04zm93.3 270.69c2.14-1.52 3.52-.12 6.18.6-3.11 1.33-4.49-.41-6.18-.6zm-61.99-135.4c1.88-.12 2.11 2.69.25 2.85-1.87.2-2.12-2.65-.25-2.85zm153.57-50.61c-.51 2.77-2.3 1.41-4.28 1.59 1.34-2.22 3.14-1.32 4.28-1.59zm-301.6 56.73c1.97-.83 3.72.66 2.37 1.74-1.17.1-1.46-.92-2.37-1.74zm216.14 134.35c.75-.7 2.13-.67 1.72.58-.7.97-.98.49-1.72-.58zm-57.77-371.66l-2.52.1c.8-1.23 1.63-1.47 2.52-.1zm-185.04-10.42c.25-.37.36-1.42.77-.82-.23.24-.47 1.13-.77.82zm171.54 134.55c.54.08.91.33.93.93-.72.1-1.02-.22-.93-.93zm23.75-3.21l.34.36c-.23.02-.29-.16-.34-.36zm-24.64 2.13c.52.25.9.61.86 1.25-.7-.13-.81-.67-.86-1.25z"/></g><g class="Q"><path d="M1716.86 753.87c-49.21 8.46-29.92-21.83-35.65-55.77 14.85-9.09 46.4-4.97 66.76-9.08 9.01 12.66-.41 39.05 3.52 55.95 5.53 16.56-25.83 5.71-34.63 8.9zm15.37-28.93c-1.31-7.56 3.15-16.88-.31-21.62-4.7 3.46 1.84 21.54-8.62 19.67-1.1-1.36-.79-5.07 1.45-3.09 8.84-7.5-7.14-10.47-5.43 1.25 0 6.19 7.66 5.77 9.87 1.16 3.03 3.21 1.46 6.71-3.43 5.46-10.05 4.02-12-14.25-5.46-15.86 1.78-1.95-2.36-.58-2.27-2.43 7.67-1.44-.54-9.07-2.79-2.26-3.21 3.5-1.04 5.93-1.02 10.28-2.61 9.16-3.43 3.03-4.76-1.6-7.44 6.67.18-11.41-8.94 5.51-4.81-7.81 6.95-14.17-3.47-11.56-5.38 4.02 6.38 18.65-6.13 17.51 10.26 2.42 54.32 4.74 54.14.71-4.27-.52-13.82 2.62-9.16-4.67 4.44-11.2.67-6.27-3.67 1.54zm119.5-526.1c5.91-.93-2.68-5.24 1.25-7.86 6.98 1.95 1.53-.84 5.22-5.97.41-2.71-4.67.36-5.26-2.8-6.32-5.78 6.2 1.62 3.44-4.4-3.21-4.34-9.18-4.13-9.66-10.16-2.92-1.73-1.2-7.75-4.77-6.89-10.51-22.02 18.89 6.81 21.17 14.59 4.78 16.49 22.48 41.53 16.82 55.41-3.97 6.19 2.41 18.68-2.13 24.66-6.93 4.18 3.95 10-1.3 11.56-6.73-1-11.66-76.95-24.83-62.42 11.9 79.06-8.04 28.2.05-5.72zm-33.27 578.89c21.71-23.19 12.18-54.54 6.86-80.48 8.61-13.56 1.89-28.41 5.67-41.53 2.08-1.79 6.42-12.72.84-8.62-1.3.87-1.65 3.92-4.21 1.98-4.27-4.44-.93-14.04 2.14-18.99 3.92-3.87-2.93-3.84-1.47-7.3 1.45-3.9 6.02 2.54 5.55-2.93 5.7-5.69 3.5 15.9 4.2 19.5 7.57 26.64 4.13 132-19.58 138.37zm-148.35-196.08c2.1-15.03 14.54-23.21 30.16-17.49-21.63 1.93.92-.88-6.58 9.23.57 5.74.73 5.79-3.51 2.68-4.69 2.53 5.56 4.75 5.29 7.15-.46 1.44-1.98.78-2.77.09-7.11-.67-3.56 4.75 2.26 4.32-5.19 1.43-8.88 9.24-8.68 12.66 3.37 1.39.38 5.94-2.6 5.06-5.48.14 2.02 14.74-10.15 11.77-1.55-1.22 1.92-1.83-.07-3.59-1.06-.08-2.38 2.85-4.77.21-4.25-3 1.74-7.49-5.33-8.2 2.87-.49 7.07-4.46 4.62-6.9-3.42-2.82 5.83-6.99-.84-10.29-1.55-1.28 1.83-8.83 4.01-5.42.87-.68-.39-1.36-1.04-1.28zm164.37-118.33c1.77 1.27.61 2.96 1.52 4.38 16.47-14.74 11.26 19.89 7.56 29.12-4.26 14.29.72 34.33-9.7 45-4.84-2.64 1.11-12.37-.09-17.71 2.06-6.93-.3-14.93 2.71-22.78-3.51-10.63 4.26-23.77-3.45-31.58-1.45-1.72 1.13-4.14 1.45-6.43zm36.57 281.84c-9.28-69.05-5.68-142.1-5.19-212.37 1.96 71.33.25 141.38 5.19 212.37zm6.34-370.98c-8.29-4.1 13.34-7.77 3.93-11.36 15.05-3.92-7.81 22.64-6.94 30.24-.03 3.36-2.51 7.23-2.73 10.4 9.4 4.81.66 18.04-3.68 24.04-5.11 1.57-1.01-11.5 1.37-13.95 4.11-11.12-7.17-33.85 8.05-39.37zm-15.47-124.5c-8.9 20.05 5.18 48.98-1.36 72.52 2.6-17.78-14.24-68.94 1.36-72.52zm-15.74 291.27c-4.27 5.9-14.24 7.06-10.43 15.98-5.11 33.34-14.31-15.36 10.43-15.98zm-88.25-105.34l61.23 2.25c-19.46-.84-44.43 3.52-61.23-2.25zm-100.16 259.93c6.11 3.62 22.68-3.16 10.63-4.4-2.52 1.99-5.5-2.1-4.41-3.83.97-1.01 1.86-.47 2.45.45 3.52 2.87 9.04-.22 9.33 6.14 1.72 6.43-13.43 7.1-18 1.64zm-14.15-288.56c-4.31-13 9.95.22 13.26 3.32-1.14 2.51-3.44-1.41-5.03.5-3.54 1.44-1.89-2.46-3.1-3.7-2.01-.08-6.72 6.42-5.13-.12zm-1.11 277.39c.32-13.21 8.2 3.95-4.26 7.75-3.58 1.82-4.82-3.32-.83-2.2 3.7-.58 3.79-4.03 5.09-5.55zm45.91 6.58c-4.24-.89-10.55 2.14-11.21-3.51 2.91-2.13 7.82.59 11.21 3.51z"/></g><path d="M1828.95 443.98c-4.76-.73-12.75 1.45-15.9-.83 4.75.73 12.76-1.46 15.9.83z" class="R"/><path d="M1850.36 457.37c-1.68 4.62-4.38-9.33-2.91-10.03 3.83 1.68 1.67 6.86 2.91 10.03z" class="Q"/><g class="R"><path d="M1652.56 564.47c-6.01 1.94-12.06 1.2-18.13 0h18.13zm-156.69-148.34c-4.3-.35-8.46 3.64-10.76-3.61 3.38 2.38 7.03.68 10.76 3.61z"/></g><path d="M1647.98 717.69c-2.64-3.64 1.45-8.9 4.86-5.41-.2 2.61-4.4 2.31-4.86 5.41z" class="Q"/><path d="M1517.21 779.96h-14.92c3.29-1.91 6.06-1.88 14.92 0z" class="R"/><g class="Q"><path d="M1833.3 458.53c-.78-2.82 2.47-7.73 4.39-5.76-.39 2.51-2.15 4.08-4.39 5.76zm-185.84-44.88c-2.12 1.06-3.78 3.67-6.89 2.03 1.73-2.77 3.98-3.38 6.89-2.03zm-14.71 277.39c.73 2.8-4.02 4.51-4.18 1.71.63-2.05 2.91-.53 4.18-1.71z"/></g><path d="M1583.81 406.78c-2.39 3.05-2.39 3.05-5.34-.11 1.87-.24 3.34-.34 5.34.11z" class="R"/><path d="M1666.92 405.16c1.38 2.33-1.46 5.47-3.17 4.43-1.2-1.92 2.31-2.66 3.17-4.43z" class="Q"/><path d="M1418.21 565.99c-.61-1.94 1.37-8.5 3.51-5.1-.5 1.56.07 7.82-3.51 5.1z" class="T"/><path d="M1547.64 407.85c-2.38-.97-4.22-.52-5.01-2.38.87-2.94 3.79.03 5.01 2.38z" class="R"/><path d="M1629.06 682.12c2.01-1.42 6.22-.48 4.43 1.61-1.62.57-2.82-.23-4.43-1.61z" class="Q"/><path d="M1670.75 409.75c1.61.07 1.01 2.47-.2 2.7-1.82.38-1.26-2.57.2-2.7z" class="R"/><path d="M1680.51 724.84c-1.41-1.55-1.02-2.65-.3-4.32 1.32 1.67 1 2.77.3 4.32z" class="Q"/><g class="R"><path d="M1659.55 412.1c1.31 0 1.45 2.34.07 2.08-1.1-.3-1.69-2.06-.07-2.08zm-56.79 313.63c1.62-.44 3.46 2.42 1.12 2.38-1.39-.26-.95-1.65-1.12-2.38zm-70.77-161.08c1.59-.23 1.58 1.85 0 1.59-1.59.28-1.59-1.83 0-1.59zm107.99-157.07c-.48-.01-1.07-.08-1.08-.82.09-2.56 3.59.3 1.08.82zm211.73-208.72c-1.19.37-3.29-1.92-1.44-2.16 1.1.24 1.48 1.17 1.44 2.16zm-187.56 215.55c-.76-.71-1.11-2.14.22-1.98.73.53.49 1.28-.22 1.98zm-19.99-16.2c-1.44.86-2.76 1.43-2.52-.19.75-.68 1.41-.28 2.52.19zm24.99 180.45c-.5 2.51-2.45-1.16-.55-.85.28.14.41.62.55.85zm54.69-165.53c-.38 1.24-1.7 1.32-1.54.01.33-.96.96-.81 1.54-.01zm58.3-92.99c.17-.72.41-.82 1.01-.4-.16.73-.4.82-1.01.4zm-123.42 335.43c-.1.66-.57.91-.97.38-.03-.63.46-.74.97-.38zm77.95-245.86c.69.54.17.75-.35 1.05-.34-.55-.3-.82.35-1.05zm91.22-237.32c.32.41.3.44-.09.09l.09-.09zm-9.41 605.32c-.12-.11-.57-.44-.16-.27.08.05.09.31.16.27z"/></g><g class="T"><path d="M1415.66 553.05c.32-.19.77-.62.94-.53 1.15 1.11-.1 1.62-.94.53zm510.63-189.15c-7.77 38.88 17.2 74.99 3.06 109.83 6-25.44-1.96-51.77-5.16-78.03-2.2-62.88 13.61-125.82 2.49-188.27 12.71 24.99.49 113.36-.39 156.47zm.74 125.6c4.28-30.52 4.74 41.34 8.98 56.3-3.1-17.59-8.77-37.65-8.98-56.3zm18.9 93.28c1.01-4.36-.72-8.91.98-14.23 5.52 8.62.79 34.46-.98 14.23zm1.28 178.92c-.77-6.05-2.81-16.6.34-20.72 5.27 3.01.14 14.99-.34 20.72z"/></g><path d="M1900.8 151.87c2.55 2.19 5.39 8.27 1.28 10.01-4.66-1.06-1.25-6.78-1.28-10.01z" class="Q"/><path d="M1716.14 10.41c-5.64-7.73 8.64-14.18 1.26-5.69-2.12 1.26 3.24 4.94-1.26 5.69z" class="S"/><g class="T"><path d="M1939.87 761.23c-1.57 4.42-1.16 9.21-4.04 13.02 1.78-4.25.88-12.22 4.04-13.02zm2.72-11.45c.12 3.05-.92 5.88-2.22 8.64-.22-3.07.95-5.84 2.22-8.64z"/></g><g class="S"><path d="M1945.67 582.88c.81 1.2.82 2.52.62 3.88-2.65-.91-1.59-2.4-.62-3.88zm-41.11 153.08c1.32-.14 2.26 1.63.75 2.07-1.01-.36-.53-1.55-.75-2.07z"/></g><g class="T"><path d="M1948.88 617.25c2.53-.46 1.8 2.15-.08 1.59-1.16-.33.21-1.02.08-1.59zm.87 5.53c-.29-.21-.25-.23.07-.33l-.07.33zm1.13 95.32c1.26 2.4.98 3.27-.01 4.11-1.21-1.36.1-2.16.01-4.11zm-543.28 61.28c-3.41-1.15-5.37-3.67-7.38-9.7 2.67.28 5.63-.6 4.41 4.13-.45 1.92 3.49 3.21 2.97 5.57z"/></g><g class="S"><path d="M1494.45 560.78c-7.39.81-14.68.32-21.85-1.87 7.35-.19 14.62.53 21.85 1.87zm-24.65-1.32c-2.75.19-5.28-1.52-8.06-1.08 2.88-1.11 5.69-1.86 8.06 1.08zm87.2 188.55c.55-1.53 3.36-2.4 3.34-.26-.9 1.21-2 1.28-3.34.26zm-5.39-2.03c-.68.74-1.29.73-1.53-.21.01-1.33 1.31-1.08 1.53.21zm-1.38-5.79c1.25.38 1.33 1.72.01 1.55-.97-.34-.82-.97-.01-1.55zm-26.12 3.76c.71.17.82.4.4 1.01-.72-.16-.82-.4-.4-1.01zm-54.34-184.47c.12.11.57.43.16.26-.07-.04-.09-.32-.16-.26z"/></g><path d="M1407.52 779.45c.97.17.12.87.08-.07l-.08.07z" class="T"/><path d="M1932.73 24.5c9.36 17.63-12.75 2.7-6.53-4.97 5.06.54-.74 11.73 6.53 4.97z" class="Q"/><g class="T"><path d="M1978.14 434.14c2.49 10.83-1.51 20.44-1.73 4.04 1.9-4.47-5.38-10.03-2.21-13.38 1.8.83 2.46 6.92 3.94 9.34zm-2.81 15.29c.24 2.18-.03 4.25-1.17 6.47-.67-2.2-.21-5.91 1.17-6.47z"/></g><g class="R"><path d="M1926.28 352.4c-1.15-1.07-.28-1.85.39-2.65 1.07 1.06.96 1.94-.39 2.65zm50.13 85.78c1.14.29 1.87.75.78 1.93-.81-.42-.87-1.15-.78-1.93zm-55.72-247.61c-.39.41-.5-.07-.62-.45.32-.45.46.11.62.45zm6.33 156.63c-.53-.78-.48-1.46.35-2.01.35.76.36 1.45-.35 2.01zm-1.34 25.52c-.3-.59-.22-1.15.18-1.66.86.65.73 1.19-.18 1.66z"/></g><path d="M1976.19 447.72c.12.82.14 1.59-.92 1.81-.27-.9 0-1.52.92-1.81z" class="T"/><g class="R"><path d="M1926.29 357.95c-.69-.65-.72-1.28.07-1.88l-.07 1.88zm1.1-151.99c-.69-.43-.88-.95-.29-1.61l.29 1.61zm-1.1 157.94c-.57-.64-.65-1.26.03-1.88l-.03 1.88z"/></g><g class="Q"><path d="M1637.3 269.1c-1.54 3.18-6.44.26-5.44-4.67 1.14-19.1-2.43-41.67 3.61-59.11 8.14 14.91-.29 48.31 1.83 63.78zm-32.63-23.35c-.28-1.56-1.01-3.17.83-4.39 1.43-2.49-2.78-5.4-.16-8.52 6.58-5.42-.58-20.73 6.18-27 4.2 19.1.75 48-2.03 65.62-6.73-4.77 1.43-25.13-4.82-25.71z"/><path d="M1638.68 208.22c-8.33-14.19-11.62 66.29-1.45 61.95-15.18 17.89-7.59-92.05 1.45-61.95z"/></g><g class="S"><path d="M1613.71 215.86c-2.06-22.13-7.17 3.61-5.81 12.8-4.81 11.87-1.7-16.97-.59-21.86 4.96-11.21 8.71 3.38 6.4 9.06zm-9.04 29.89c5.8.87-.97 19.3 4.06 25.5-9.06-3.12-1.95-19.84-4.06-25.5zm6.79 24.94c1.24-9.4-2.73-22.29 1.42-30.03-1.25 9.41 2.74 22.27-1.42 30.03z"/><path d="M1609.49 271.46c.51-.69 1.05-1.31 2.04-.83-.29 1.24-.45 2.8-2.04.83z"/></g><path d="M1604.52 249.19c.44.21 1.2.36 1.25.63-.23 1.79-1.78.8-1.25-.63z" class="R"/><path d="M1637.3 269.1l-1.39-.74c1.07-.35 1.73-.69 1.39.74z" class="S"/><path d="M1678.78 224.57c-.16.15-.44.46-.47.44-.6-.43.26-.95.47-.44z" class="R"/><path d="M1732.23 724.94c4.28-7.84 8.16-12.72 3.66-1.53-4.66 7.28 4.9 4.15 9.15 4.66 2.19 3.86-45.31 1.83-54.13-.7 12.53 1.13.74-13.48 6.12-17.51 10.4-2.62-1.32 3.78 3.48 11.56 9.17-16.99 1.46 1.2 8.93-5.51 1.33 4.63 2.14 10.77 4.76 1.6-.01-4.34-2.19-6.8 1.03-10.28 2.25-6.79 10.45.79 2.79 2.26-.09 1.84 4.05.49 2.28 2.44-6.54 1.6-4.61 19.88 5.45 15.86 4.94.61 5.78-.57 4.08-5.41-2.97 3.12-10.01 6.15-10.52-1.22-.08-15.61 15.93-4.67 3.42-.83-.08.89 0 2.16.56 2.67 10.46 1.85 3.9-16.18 8.61-19.66 3.49 4.72-.98 14.05.33 21.6zm-22.99 2.75c2.36.33 6.88-.83 5.02-3.93-1.96-.86-3.73 4.44-5.39.2-2.36-4.6-6.22 5.75.37 3.73z" class="T"/><path d="M1670.11 581.65c.66-.08 1.9.59 1.04 1.28-1.01.1-.87-.84-1.04-1.28z" class="S"/><path d="M1709.24 727.69c-6.59 2.02-2.73-8.33-.37-3.72 1.67 4.24 3.42-1.06 5.39-.2 1.86 3.09-2.66 4.25-5.02 3.92z" class="Q"/></g></svg>