<?xml version="1.0" encoding="utf-8"?>
<!-- Generator: Adobe Illustrator 25.2.0, SVG Export Plug-In . SVG Version: 6.00 Build 0)  -->
<svg version="1.1" id="Layer_1" xmlns="http://www.w3.org/2000/svg" xmlns:xlink="http://www.w3.org/1999/xlink" x="0px" y="0px"
	 viewBox="0 0 1900 500" style="enable-background:new 0 0 1900 500;" xml:space="preserve">
<style type="text/css">
	.st0{fill:#262626;}
	.st1{fill:url(#SVGID_1_);}
	.st2{clip-path:url(#SVGID_3_);}
	.st3{fill:url(#SVGID_4_);}
	.st4{fill:url(#SVGID_5_);}
	.st5{fill:url(#SVGID_6_);}
	.st6{fill:url(#SVGID_7_);}
	.st7{fill:none;}
	.st8{clip-path:url(#SVGID_9_);}
	.st9{fill:#404040;}
	.st10{fill:#27272A;}
	.st11{fill:#52525B;}
	.st12{fill:#4F567A;}
	.st13{fill:#282E42;}
	.st14{fill:url(#SVGID_10_);}
	.st15{fill:#FEFEFE;}
</style>
<polygon class="st0" points="995,500 0,500 0,0 497.5,0 "/>
<polygon class="st0" points="995,500 0,500 0,0 497.5,0 "/>
<linearGradient id="SVGID_1_" gradientUnits="userSpaceOnUse" x1="497.5" y1="250" x2="1900" y2="250">
	<stop  offset="0" style="stop-color:#833AB4"/>
	<stop  offset="0.5" style="stop-color:#FD1D1D"/>
	<stop  offset="1" style="stop-color:#FCB045"/>
</linearGradient>
<polygon class="st1" points="995,500 1900,500 1900,0 497.5,0 "/>
<g>
	<path class="st0" d="M846.64,240.99h-39.29c-12.76,0-24.33-5.01-32.73-13.13h0c-8.53-8.23-13.82-19.65-13.82-32.28
		c0-12.63,5.29-24.06,13.82-32.28h0c8.41-8.12,19.97-13.13,32.73-13.13h39.12v13.13h-43.73c-16.42,2.18-29.12,15.83-29.12,32.28
		c0,16.46,12.69,30.11,29.12,32.28h30.78v-28.92h-25.94l-6.06-13.13h45.12V240.99z"/>
	<path class="st0" d="M942.37,149.94v57.9c0,6.88-2.5,13.57-7.19,18.61c-1.82,1.95-3.8,3.75-5.94,5.36
		c-7.63,5.77-17.13,9.18-27.43,9.18c-10.32,0-19.83-3.43-27.47-9.22c-2.14-1.62-4.14-3.44-5.97-5.41
		c-4.66-5.04-7.16-11.71-7.16-18.58v-57.85h13.13v50.26c0,14.82,11.66,27.2,26.46,27.65c0.34,0.01,0.67,0.02,1.01,0.02
		c0.32,0,0.64,0,0.96-0.01c14.81-0.43,26.47-12.83,26.47-27.65v-50.26H942.37z"/>
	<path class="st0" d="M1037.44,195.66c0,2.28-0.17,4.51-0.49,6.69c-2.97,20.23-19.21,36.16-39.6,38.63h-41.87v-71.28h13.13v58.15
		h27.86c13.52-1.96,24.37-12.26,27.16-25.51c0.45-2.16,0.69-4.4,0.69-6.69c0-2.2-0.22-4.35-0.64-6.43
		c-1.59-7.92-6.07-14.81-12.29-19.52c-5.1-3.87-11.38-6.27-18.19-6.56h-37.72v-13.18h36.81l0,0.02
		c22.81,0.25,41.59,17.22,44.69,39.23C1037.29,191.33,1037.44,193.48,1037.44,195.66z"/>
	<path class="st0" d="M1076.12,173.09l8.62,15.74l-28.87,52.16h-17.34L1076.12,173.09z M1139.65,240.99h-17.35l-33.21-60.01
		l-8.67-15.66l8.66-15.66l0-0.01l8.67,15.67L1139.65,240.99z"/>
	<path class="st0" d="M1218.99,149.95v90.63l-13.13-13.13l-45.99-46v0l-13.13-13.13v-18.57l59.12,59.12v-58.94H1218.99z
		 M1146.75,177.61l13.13,13.13v50.25h-13.13V177.61z"/>
	<path class="st0" d="M1316.44,240.99h-39.29c-12.76,0-24.33-5.01-32.73-13.13c-8.53-8.23-13.82-19.65-13.82-32.28
		c0-12.63,5.29-24.06,13.82-32.28c8.41-8.12,19.97-13.13,32.73-13.13h39.12v13.13h-43.73c-16.42,2.18-29.12,15.83-29.12,32.28
		c0,16.46,12.69,30.11,29.12,32.28h30.78v-28.92h-25.93l-6.06-13.13h45.12V240.99z"/>
</g>
<g>
	<path class="st0" d="M888.95,323.04h-10.46l-17.84-29.25l-0.49-0.8c-0.04,0.01-0.07,0.02-0.11,0.03c-0.16,0.04-0.32,0.09-0.48,0.13
		c-0.05,0.01-0.1,0.03-0.16,0.04c-0.23,0.06-0.46,0.11-0.69,0.17c-0.53,0.12-1.06,0.23-1.6,0.32c-0.15,0.03-0.3,0.05-0.46,0.07
		c-0.08,0.01-0.16,0.03-0.24,0.04c-0.2,0.03-0.4,0.06-0.6,0.08c-0.09,0.01-0.17,0.02-0.26,0.03c-0.21,0.03-0.42,0.05-0.64,0.07
		c-0.26,0.03-0.51,0.05-0.78,0.07c-0.01,0-0.01,0-0.02,0c-0.24,0.02-0.48,0.03-0.72,0.04c-0.04,0-0.08,0.01-0.13,0.01
		c-0.17,0.01-0.35,0.01-0.52,0.02c-0.11,0-0.22,0.01-0.33,0.01c-0.21,0-0.43,0.01-0.64,0.01h-11.5v28.91h-8.93v-62.07h51.33
		c0.05,0.72,0.08,1.45,0.08,2.19c0,2.32-0.25,4.57-0.74,6.74c-1.31,5.92-4.32,11.2-8.48,15.31c-0.39,0.38-0.78,0.75-1.19,1.11
		c-0.14,0.12-0.27,0.24-0.41,0.36c-0.02,0.02-0.03,0.03-0.05,0.04c-0.18,0.15-0.36,0.3-0.54,0.45c-0.13,0.11-0.26,0.21-0.39,0.32
		c-0.09,0.07-0.19,0.15-0.28,0.22c-0.34,0.26-0.69,0.52-1.04,0.77c-0.17,0.12-0.33,0.23-0.5,0.35c-0.01,0.01-0.02,0.01-0.03,0.02
		c-0.15,0.11-0.31,0.21-0.47,0.31c-0.02,0.02-0.05,0.04-0.08,0.05c-0.06,0.04-0.12,0.07-0.17,0.11l1.07,1.76L888.95,323.04z
		 M867.27,278.86c2.56-2.52,4.44-5.59,5.52-8.96h-32.51v15.31h11.5c3.06,0,6.03-0.62,8.76-1.8
		C863.02,282.34,865.3,280.81,867.27,278.86z"/>
	<path class="st0" d="M948.52,261.15v8.93h-54.73v-8.93H948.52z M902.71,314.12h45.8v8.93h-54.73v-48.5h8.93v10.85h39.81v8.93
		h-39.81V314.12z"/>
	<path class="st0" d="M1006.83,296.55c1.48,2.59,2.33,5.59,2.33,8.78c0,3.2-0.84,6.2-2.33,8.78c-3.05,5.33-8.8,8.93-15.38,8.93
		h-19.28c-6.59,0-12.34-3.59-15.4-8.93c-1.41-2.46-2.25-5.3-2.33-8.33h8.94c0.26,4.64,4.1,8.33,8.8,8.33h19.28
		c4.84,0,8.78-3.94,8.78-8.78c0-4.84-3.94-8.78-8.78-8.78h-19.31c-4.98,0-9.49-2.06-12.7-5.37c-1.04-1.06-1.94-2.26-2.68-3.56
		c-1.48-2.59-2.33-5.59-2.33-8.78c0-3.2,0.84-6.2,2.33-8.78c3.05-5.33,8.8-8.93,15.38-8.93h18.82c0.16-0.01,0.31-0.01,0.46-0.01
		c0.16,0,0.31,0,0.46,0.01c6.4,0.16,11.95,3.71,14.94,8.92c0,0,0,0.01,0.01,0.01c1.41,2.46,2.25,5.29,2.33,8.32h-8.94
		c-0.25-4.53-3.92-8.15-8.47-8.32h-19.61c-4.84,0-8.78,3.94-8.78,8.78c0,4.55,3.47,8.3,7.91,8.74c0.3-0.01,0.6-0.02,0.9-0.02
		c0.52,0,1.03,0.03,1.54,0.07h17.74C998.03,287.62,1003.78,291.22,1006.83,296.55z"/>
	<path class="st0" d="M1073.83,261.15v8.93h-54.73v-8.93H1073.83z M1028.02,314.12h45.8v8.93h-54.73v-48.5h8.93v10.85h39.81v8.93
		h-39.81V314.12z"/>
	<path class="st0" d="M1130.97,314.12v8.93h-48.16v-62.37h8.93v53.45H1130.97z"/>
	<path class="st0" d="M1187.99,314.12v8.93h-48.16v-62.37h8.93v53.45H1187.99z"/>
	<path class="st0" d="M1252.61,261.15v8.93h-54.73v-8.93H1252.61z M1206.81,314.12h45.8v8.93h-54.73v-48.5h8.93v10.85h39.81v8.93
		h-39.81V314.12z"/>
	<path class="st0" d="M1319.18,323.04h-10.46l-17.84-29.25l-0.49-0.8c-0.04,0.01-0.07,0.02-0.11,0.03
		c-0.16,0.04-0.32,0.09-0.48,0.13c-0.05,0.01-0.1,0.03-0.16,0.04c-0.23,0.06-0.46,0.11-0.69,0.17c-0.53,0.12-1.06,0.23-1.6,0.32
		c-0.15,0.03-0.3,0.05-0.46,0.07c-0.08,0.01-0.16,0.03-0.24,0.04c-0.2,0.03-0.4,0.06-0.6,0.08c-0.09,0.01-0.17,0.02-0.26,0.03
		c-0.21,0.03-0.42,0.05-0.64,0.07c-0.26,0.03-0.51,0.05-0.78,0.07c-0.01,0-0.02,0-0.02,0c-0.24,0.02-0.48,0.03-0.72,0.04
		c-0.04,0-0.08,0.01-0.13,0.01c-0.17,0.01-0.35,0.01-0.52,0.02c-0.11,0-0.22,0.01-0.33,0.01c-0.21,0-0.42,0.01-0.64,0.01h-11.5
		v28.91h-8.93v-62.07h51.33c0.05,0.72,0.08,1.45,0.08,2.19c0,2.32-0.25,4.57-0.74,6.74c-1.31,5.92-4.32,11.2-8.48,15.31
		c-0.39,0.38-0.78,0.75-1.19,1.11c-0.14,0.12-0.27,0.24-0.41,0.36c-0.02,0.02-0.03,0.03-0.05,0.04c-0.18,0.15-0.36,0.3-0.54,0.45
		c-0.13,0.11-0.26,0.21-0.39,0.32c-0.09,0.07-0.19,0.15-0.28,0.22c-0.34,0.26-0.69,0.52-1.04,0.77c-0.17,0.12-0.33,0.23-0.5,0.35
		c-0.01,0.01-0.02,0.01-0.03,0.02c-0.15,0.11-0.31,0.21-0.47,0.31c-0.02,0.02-0.05,0.04-0.08,0.05c-0.06,0.04-0.12,0.07-0.17,0.11
		l1.07,1.76L1319.18,323.04z M1297.51,278.86c2.56-2.52,4.44-5.59,5.52-8.96h-32.51v15.31h11.5c3.06,0,6.03-0.62,8.76-1.8
		C1293.26,282.34,1295.54,280.81,1297.51,278.86z"/>
</g>
<g>
	<defs>
		<polygon id="SVGID_2_" points="995,388 0,388 0,-312 497.5,-312 		"/>
	</defs>
	<clipPath id="SVGID_3_">
		<use xlink:href="#SVGID_2_"  style="overflow:visible;"/>
	</clipPath>
	<g class="st2">
		<linearGradient id="SVGID_4_" gradientUnits="userSpaceOnUse" x1="-403.2427" y1="-199.7126" x2="604.3967" y2="-199.7126">
			<stop  offset="0" style="stop-color:#833AB4"/>
			<stop  offset="0.5" style="stop-color:#FD1D1D"/>
			<stop  offset="1" style="stop-color:#FCB045"/>
		</linearGradient>
		<path class="st3" d="M-403.24-483.36c21.24-11.59,42.49-23.17,63.73-34.76c27.37-14.93,54.72-29.9,82.12-44.78
			c20.96-11.39,41.96-22.69,62.95-34.01c26.52-14.3,53.05-28.59,79.6-42.84c14.66-7.87,29.35-15.67,44.05-23.47
			c26.1-13.86,52.19-27.73,78.31-41.55c14.6-7.73,29.23-15.4,43.89-23.03c15.99-8.33,32.02-16.59,48.05-24.86
			c1.01-0.52,1.93-1.31,3.43-1.37c-0.13,1.32-1.25,1.63-2.01,2.11c-13.61,8.73-27.22,17.48-40.88,26.12
			c-25.17,15.92-50.35,31.84-75.59,47.65c-33.82,21.18-67.67,42.33-101.58,63.37c-36.98,22.94-74.01,45.79-111.08,68.58
			c-26.76,16.46-53.6,32.77-80.41,49.15c-6.25,3.82-12.52,7.63-18.76,11.47c-1.06,0.65-2.23,1.21-3.02,2.14
			c0.32,1.24,1.36,1.41,2.12,1.84c36.35,20.08,72.76,40.08,109.07,60.24c43.53,24.17,87,48.46,130.48,72.74
			c34.03,19,68.04,38.03,102.03,57.11c29.12,16.35,58.2,32.75,87.23,49.24c2.51,1.42,4.28,1.21,6.63-0.18
			c40.43-23.97,80.87-47.93,121.39-71.76c49.05-28.83,98.14-57.59,147.27-86.28c50.53-29.52,101.13-58.93,151.7-88.37
			c24.53-14.28,49.09-28.52,73.64-42.79c1.11-0.64,2.2-1.32,3.29-1.98c0,91.25,0,182.49,0,273.74c-0.53,1.46-0.41,2.98-0.41,4.49
			c-0.02,13.73,0,27.46-0.05,41.19c-0.18,48.17,0.18,96.34-0.64,144.51c-0.5,29.2-0.1,58.4-0.7,87.6
			c-0.36,17.68-0.18,35.37-0.29,53.06c-0.04,6.72,0.32,5.53-5.1,8.61c-14.46,8.23-28.99,16.33-43.48,24.5
			c-24.22,13.65-48.42,27.35-72.66,40.97c-27.69,15.56-55.4,31.08-83.11,46.6c-26.7,14.95-53.39,29.91-80.12,44.79
			c-28.77,16.01-57.57,31.96-86.39,47.89c-35.33,19.53-70.69,39.01-106.03,58.53c-7.02,3.88-14,7.84-21,11.77c-0.47,0-0.93,0-1.4,0
			c-17.86-10.95-35.72-21.88-53.57-32.84c-38.57-23.69-77.18-47.31-115.69-71.1c-39.5-24.4-78.94-48.9-118.31-73.51
			c-37.59-23.5-75.09-47.15-112.57-70.82c-21.64-13.67-43.17-27.53-64.74-41.31c-1.55-0.99-3.03-2.07-4.41-3.38
			c1.69-0.21,2.96,0.78,4.28,1.46c14.45,7.51,28.9,15.04,43.33,22.59c34.94,18.29,69.81,36.74,104.58,55.35
			c22.16,11.86,44.38,23.61,66.51,35.51c33.61,18.08,67.18,36.23,100.74,54.39c25.38,13.74,50.73,27.52,76.06,41.33
			c23.19,12.65,46.33,25.37,69.5,38.06c0.31,0.17,0.64,0.3,0.91,0.51c2.58,1.94,4.89,1.56,7.63-0.11
			c47.12-28.66,94.26-57.3,141.48-85.8c48.31-29.17,96.68-58.25,145.08-87.27c33.83-20.28,67.76-40.41,101.65-60.59
			c16.4-9.77,32.77-19.56,49.24-29.2c2.63-1.54,3.76-3.22,3.67-6.34c-0.87-30.36-0.33-60.74-0.88-91.1
			c-0.57-31.07-0.17-62.14-0.65-93.2c-0.87-55.62-0.12-111.25-0.76-166.87c-0.44-38.63-0.12-77.26-0.38-115.9
			c-0.01-1.16,0-2.33-0.07-3.49c-0.08-1.3-0.79-1.59-1.89-1.01c-1.03,0.54-2.04,1.11-3.05,1.69c-25.8,14.89-51.57,29.82-77.39,44.68
			c-30.86,17.76-61.74,35.48-92.63,53.19c-31.5,18.05-63,36.1-94.53,54.08c-27.9,15.91-55.84,31.74-83.76,47.59
			c-28.33,16.09-56.69,32.13-84.96,48.31c-2.68,1.54-4.64,1.55-7.3-0.04c-27.35-16.39-54.76-32.67-82.17-48.96
			c-71.03-42.2-141.9-84.65-212.66-127.29c-53.22-32.07-106.31-64.37-159.44-96.57c-15.03-9.11-30.02-18.27-45.03-27.4
			c-1.29-0.78-2.54-1.66-4.07-1.94C-403.24-482.89-403.24-483.13-403.24-483.36z"/>
		<linearGradient id="SVGID_5_" gradientUnits="userSpaceOnUse" x1="-306.3795" y1="-68.581" x2="75.9601" y2="-68.581">
			<stop  offset="0" style="stop-color:#833AB4"/>
			<stop  offset="0.5" style="stop-color:#FD1D1D"/>
			<stop  offset="1" style="stop-color:#FCB045"/>
		</linearGradient>
		<path class="st4" d="M68.79,238.68c0.84-1.25,0.71-2.68,0.66-4.06c-0.72-20.81-0.51-41.65-1-62.46
			c-0.35-14.89-0.11-29.79-0.64-44.66c-0.51-14.19-0.2-28.39-0.73-42.57c-0.5-13.38-0.17-26.76-0.67-40.13
			c-0.58-15.24-0.17-30.48-0.72-45.71C65.17-15.45,65.53-30,65.02-44.53c-0.66-18.49-0.2-37-0.73-55.48
			c-0.38-13.03-0.32-26.06-0.39-39.08c-0.02-2.93-1-4.61-3.53-6.07c-26.13-15-52.21-30.09-78.28-45.21
			c-24.96-14.47-49.9-28.98-74.83-43.51c-41.51-24.2-83.01-48.42-124.49-72.67c-23-13.44-45.96-26.97-68.95-40.43
			c-1.24-0.73-2.53-2.33-4-1.43c-1.25,0.76-0.62,2.59-0.62,3.94c-0.05,9.77-0.03,19.55-0.06,29.32c-0.15,48.4-0.33,96.8-0.48,145.2
			c-0.1,32.12,0.18,64.24-0.32,96.35c-0.46,29.32-0.16,58.64-0.56,87.95c-0.01,1.05,0.09,2.11-0.02,3.14
			c-0.28,2.53,0.85,4.03,3.01,5.3c14.23,8.39,28.39,16.9,42.59,25.34c50.91,30.25,101.53,61,152.26,91.54
			c51.93,31.27,103.83,62.59,155.74,93.89c1.49,0.9,3.05,1.71,4.23,3.06c-1.83-0.06-3.3-1.09-4.8-1.94
			c-22.09-12.46-44.15-24.97-66.25-37.42c-21.89-12.33-43.83-24.6-65.74-36.91c-20.69-11.62-41.38-23.25-62.06-34.9
			c-26.56-14.96-53.12-29.91-79.63-44.95c-27.53-15.61-54.99-31.33-82.49-47c-2.43-1.38-4.83-2.8-7.29-4.13
			c-1.61-0.87-2.38-2.07-2.3-3.93c0.09-1.86,0.03-3.72,0-5.58c-0.77-48.28-0.36-96.57-0.83-144.86
			c-0.81-82.03-0.31-164.07-0.59-246.1c0-1.16-0.01-2.33,0.06-3.49c0.08-1.29,0.82-1.58,1.91-1.06c0.73,0.35,1.43,0.77,2.14,1.18
			c45.18,26.68,90.38,53.34,135.55,80.05c34.65,20.5,69.28,41.03,103.87,61.61c39,23.2,77.94,46.48,116.91,69.73
			c6.29,3.76,12.55,7.59,18.91,11.22c2.21,1.26,3.01,2.84,2.99,5.34c-0.15,13.96,0.14,27.94-0.31,41.89
			c-0.53,16.52-0.1,33.04-0.6,49.55c-0.51,17.21-0.28,34.44-0.8,51.64c-0.42,13.84-0.13,27.69-0.62,41.52
			c-0.53,14.77-0.2,29.55-0.76,44.31c-0.48,12.8-0.13,25.6-0.64,38.38c-0.63,15.82-0.19,31.65-0.75,47.46
			c-0.57,16.05-0.22,32.11-0.67,48.16c-0.19,6.74-0.49,13.48-0.62,20.22C70.17,237.48,70.69,238.99,68.79,238.68z"/>
		<linearGradient id="SVGID_6_" gradientUnits="userSpaceOnUse" x1="135.1058" y1="-72.8254" x2="517.8721" y2="-72.8254">
			<stop  offset="0" style="stop-color:#833AB4"/>
			<stop  offset="0.5" style="stop-color:#FD1D1D"/>
			<stop  offset="1" style="stop-color:#FCB045"/>
		</linearGradient>
		<path class="st5" d="M141.45,233.83c-0.89-1.36-0.71-2.91-0.73-4.41c-0.09-7.68,0.04-15.37-0.27-23.04
			c-0.69-17.21-0.18-34.44-0.74-51.65c-0.45-13.84-0.15-27.7-0.66-41.53c-0.53-14.31-0.19-28.63-0.72-42.92
			c-0.53-14.19-0.15-28.39-0.69-42.58c-0.58-15.36-0.15-30.72-0.71-46.07c-0.55-15.12-0.18-30.25-0.68-45.37
			c-0.73-21.99-0.3-43.98-0.72-65.97c-0.13-6.86-0.25-13.72-0.42-20.58c-0.07-2.74,0.81-4.45,3.26-5.91
			c50.09-29.82,100.11-59.76,150.2-89.6c32.39-19.3,64.84-38.49,97.29-57.68c42.57-25.17,85.17-50.28,127.76-75.42
			c3.65-2.16,4.17-1.85,4.17,2.58c0,15.36,0.23,30.73-0.08,46.09c-0.72,35.26-0.25,70.52-0.4,105.77
			c-0.18,43.41,0.16,86.82-0.35,130.23c-0.43,37.47-0.2,74.94-0.6,112.41c-0.01,0.58-0.04,1.16-0.02,1.75
			c0.1,2.72-1.07,4.44-3.53,5.82c-17.64,9.93-35.2,20.02-52.8,30.02c-26.91,15.29-53.82,30.59-80.77,45.81
			c-28.67,16.19-57.4,32.28-86.1,48.43c-34.68,19.51-69.36,39.04-104.03,58.56c-14.5,8.16-28.99,16.34-43.49,24.5
			c-0.91,0.51-1.86,0.96-2.82,1.38c-0.63,0.27-1.12,0.01-1.39-0.64c1.07-0.13,2.01-0.59,2.9-1.14c3.97-2.43,7.92-4.89,11.91-7.29
			c49.62-29.92,99.24-59.86,148.89-89.75c51.24-30.86,102.34-61.93,153.78-92.46c14.01-8.32,27.95-16.74,42-24.99
			c2.13-1.25,2.97-2.72,2.7-5.07c-0.21-1.85-0.35-3.71-0.37-5.57c-0.39-40.61,0.12-81.22-0.67-121.83
			c-0.33-16.99-0.16-33.98-0.18-50.97c-0.05-54.47-0.08-108.93-0.12-163.4c-0.01-7.22-0.02-14.43-0.05-21.65
			c-0.02-3.65-0.14-3.7-3.4-1.8c-4.52,2.64-9.05,5.27-13.57,7.92c-28.61,16.77-57.2,33.58-85.83,50.31
			c-40.19,23.47-80.41,46.9-120.63,70.32c-23.93,13.94-47.88,27.84-71.84,41.72c-18.93,10.97-37.87,21.91-56.85,32.79
			c-2.07,1.18-2.92,2.55-2.94,4.96c-0.15,18.27,0.07,36.53-0.52,54.8c-0.52,16.16-0.12,32.34-0.68,48.51
			c-0.54,15.58-0.15,31.18-0.72,46.76c-0.52,14.18-0.15,28.38-0.67,42.58c-0.54,14.99-0.22,30.01-0.76,45.02
			c-0.46,12.67-0.22,25.36-0.63,38.04c-0.56,17.09-0.13,34.2-0.73,51.3C141.82,199.87,142.76,216.87,141.45,233.83z"/>
		<linearGradient id="SVGID_7_" gradientUnits="userSpaceOnUse" x1="-237.5522" y1="-486.7871" x2="461.5802" y2="-486.7871">
			<stop  offset="0" style="stop-color:#833AB4"/>
			<stop  offset="0.5" style="stop-color:#FD1D1D"/>
			<stop  offset="1" style="stop-color:#FCB045"/>
		</linearGradient>
		<path class="st6" d="M107.9-681.67c1.68-1.22,3.12-0.18,4.54,0.53c7.48,3.78,14.93,7.59,22.39,11.4
			c25.39,12.96,50.78,25.9,76.15,38.9c23.6,12.1,47.19,24.23,70.75,36.42c31.1,16.09,62.19,32.2,93.25,48.39
			c27.96,14.57,55.86,29.25,83.77,43.91c1.09,0.57,2.81,0.83,2.83,2.27c0.02,1.4-1.66,1.79-2.72,2.41
			c-34.71,20.38-69.39,40.82-104.16,61.1c-53.96,31.48-107.98,62.87-161.99,94.28c-28.56,16.61-57.16,33.16-85.71,49.79
			c-2.06,1.2-3.68,1.23-5.79,0.06c-42.06-23.47-84.16-46.86-126.23-70.3c-37.09-20.67-74.19-41.33-111.23-62.09
			c-32.88-18.43-65.69-36.98-98.53-55.48c-3.67-2.07-3.69-2.51-0.09-4.62c24.52-14.31,49.01-28.67,73.58-42.88
			c51.16-29.59,102.32-59.18,153.56-88.64c37.22-21.4,74.55-42.59,111.83-63.87c1.21-0.69,2.41-1.43,3.83-1.61
			c-2.56,2.81-6.02,4.34-9.16,6.29c-38.74,24.08-77.49,48.15-116.3,72.11c-40.69,25.13-81.43,50.18-122.19,75.19
			c-23.7,14.54-47.51,28.93-71.25,43.41c-0.84,0.51-1.97,0.79-2.22,2.29c1.97,1.11,3.96,2.27,5.99,3.37
			c17.49,9.49,35,18.94,52.46,28.47c31.46,17.17,62.9,34.36,94.33,51.58c24.28,13.31,48.54,26.66,72.8,40.02
			c29.15,16.05,58.33,32.05,87.39,48.26c3.27,1.82,5.58,1.49,8.59-0.27c15.87-9.29,31.84-18.39,47.78-27.55
			c33.8-19.42,67.58-38.86,101.4-58.25c30.19-17.3,60.4-34.55,90.62-51.78c28.81-16.42,57.66-32.78,86.48-49.18
			c0.77-0.44,1.77-0.67,2.12-1.72c-0.45-1.24-1.71-1.46-2.68-1.99c-23.35-12.84-46.72-25.63-70.07-38.47
			c-25.38-13.97-50.76-27.95-76.09-42.01c-32.05-17.78-64.07-35.62-96.06-53.5c-26.71-14.93-53.37-29.95-80.05-44.93
			C110.59-681.04,109.36-681.7,107.9-681.67z"/>
	</g>
</g>
<polygon class="st7" points="995,700 1900,700 1900,0 497.5,0 "/>
<g>
	<defs>
		<polygon id="SVGID_8_" points="995,700 1900,700 1900,0 497.5,0 		"/>
	</defs>
	<clipPath id="SVGID_9_">
		<use xlink:href="#SVGID_8_"  style="overflow:visible;"/>
	</clipPath>
	<g class="st8">
		<path class="st9" d="M1398.04,406.14c-4.57-120.5,6.83-262.05,99.19-289.18c106.15-32.08,255.8-50.49,342.09,31.32
			c-2.39-0.02-3.29-3.28-5.83-2.62c0.65,5.98-2.72,3.1-3.39-0.81c-10.64-1.63,6.15,25.91,3.34,33.87c-0.73,3.33-4.51,1.39-2.5-1.02
			c3.18-4.99-3.34-8.96-3.85-13.92c-5.31-8.98,0.45,4.85,0.72,8.69c-4.83-3.29-5.77-9.5-8.08-13.62c-4.71-1.24-18.01-4.11-9.42-8.06
			c-4.03-4.88-9.36,1.38-13.47-1.19c-2.47-4.54-14.2-2.29-12.07-8.15c3.51-4.05-1.38-7.97-2.83-1.25c-1.76,6.06-8.57-3.9-4.92-6.76
			c2.39-2.79,13.8-6.82,8.27-9.79c-5.61,5.69-7.89,4.24-14.86,3.34c-3.3,25.36,56.59,27.18,62.19,59.43
			c1.61,8.1-10.1,7.13-12.78,14.76c-8.31,7.85-31.7,27.85-9.11,30.88c-2.23,7.68-7.51-1.21-6.82,6.4
			c-1.95,4.94-12.53,3.5-11.83,11.8c-0.89,5.59-15.12,11.45,2.04,13.73c7.48,2.17-3.65,6.45-5.64,1.3
			c-1.43-4.31-7.72,4.05-6.75,5.27c3.08,6.12,15.33-5.01,15.4,1.99c-5.01,4.54,1.01,15.09-6.28,2.91
			c0.39,7.18,3.63,38.61-10.01,28.45c-5.22,2.22,8.75,5.37,1.03,6.63c-2.45,0.27-2.77,1.49-1.73,3.51c3.65,4.01-6.76,2.88-1.81,6
			c6.12,6.68-3.21,14.83-6.55,19.08c11.98,3.91,1.15,1.94,4.53,10.67c-8.62-4.52-3.81,3.79-10.74,5.78c3.8,1,4.26-2.52,8.11-1.55
			c4.73-0.83,5.47,2.97,0.5,2.78c0.8,2.02,3.12,6.81,5.2,9.54c1.25,1.81-4.22,1.02-2.47,3.62c1.57,2.62,4.5-2.64,6.23,0.14
			c1.06,2.6-5.05,2.01-3.61,5.15c8.98-0.97,0.39,5.19,8.06,5.19c6.2-1.32,5.86,6.06-0.23,5.98c-12.05,0.12,1.94,3.47,6.16,0.57
			c-5.28,3.78,3.58,14.98-4.29,14.1c-1.77-0.34-5.03-1.53-5.43,1.24c-1.07,4.2,7.5-0.03,5.7,3.66c-10.27,5.76-9.86-7.35-13.4-1.45
			c-1.02,1.85-2.4,1.71-3.92,0.73c-5.59-4.45-2.12,5.24-6.45,3.42c-5.36-1.77-9.6,3.31-14.57,4.66c-3.45,0.25-2.16-6.1,1.43-5.66
			c3.09,1.13,11.2-2.49,5.44-4.86c-8.44-1.33-13.55,10.92-19.82,3.36c-3.15,3.14-4.62-0.81-6.85-1.81
			c-0.69,1.13,0.69,4.14-2.46,2.64c-2.56-0.97-3.04,5.09-5.7,2.67c-1.3-1.2-5.38-0.02-3.81-4.02c-2.71-5.89-1.84,6.86-7.92,6.21
			c9.79,4.03-4.37,0.67-6.8,6.22c-3.23,3.55-5.04-4.72-9.1-0.36c-2.85,1.86-3.29-5.59-0.5-3.03c4.47,0.33-0.06-3.08-2.33-2.85
			c-4.07-3.63,6.41-0.38,8.75-2.28c-2-2.01-4.53-0.1-6.17-1.72c5.8-6.55-10.7-2.47-2.27-12.55c1.86-2.47-4.91-0.99-6.55-1.98
			c-4.57-0.49,1.66,12.48-11.52,7.11c-3.36,5.89-5.04,4.79-7.71,0.44c-7.21,8.28-4.13,7.43-13.94,2.27c-6.17,2.69-6-8.87-9.76-9.8
			c-10.36,8.5,2.65,3.88-9.44,17.23c-3.69,2.91-1.62-6.56-7.52-6.38c5.36,7.5-7.28,10.65-10.52,13.54c0.34-3.18,1.36-6.49-2.82-7.44
			c-7.5-1.76,3.85-9.25-2.62-12.88c-4.18-2.46-16.14-9.14-17.43-3.72c3.83,5.35,12.53,8.26,3.8,10.84c6.1,5.63-3.25,6.17-2.85-0.35
			c-1.75-4.57-10.7-0.19-3.23,0.78c5.84,3.63-4.43,6.87-5.16,3.64c1.27-6.19-9.12-5.37-11.43-6.25c-17.96,9.7-4.03-2.14-14.74-2.9
			c-0.72,0.1-1.25,0.73-0.99,1.01c5.32,6.09-2.3,1.53-2.79,5.06c-2.09,5.1-11.73-12.55-19.26-1.06c-5.42,4.29-0.24-2.9-1.87-4
			c-3.14-0.04-5.86,7.79-9.13,2.89c-2.04-4.2-5.98,4.29-9.33-0.01c-2.89-4.91-1.07,3.72-8.76-2.03c0.17,9.44-2.86,9.5-7.4,3.24
			c-12.46-0.3,3.4,12.23-14.63,4.88c-4.75-1.22,0.52-8.4-6.62-7.83c0.43-6.57-7.69-1.19-8.8-5.56c0.08-2.17,3.16-0.21,3.49-2.16
			c-3.48-3.48-9.29,6.07-7.95,7.34c3.04-1.86,1.88,0.16,1.78,1.67c1.32,4.8,7.04,6.19,7.42,11.77c8.84,18.64,32.35,9.23,50,11.7
			c77.01-0.9,154.59,1.99,230.96,9.25c-89.65-4.92-182.27-8.54-273.15-8.24c75.54,4.69,225.96,4.49,324.73,16.14
			c8.28,2.63-24.14,0.36-16.54,3.94c6.53,1.66,6.5,1.65,6.39,8.03c-0.33,3.24-4.11,11.32,2.31,9.75
			c8.53-0.09,41.85-25.4,31.52-11.26c-2.43,7.52-33.44,11.8-24.27,18.65c48.39-6.49-34.92,11.71-44.42,17.92
			c-4.17,1.65-9.44-1.33-12.5-0.73c1.07,0.2,4.56,2.78,1.52,2.99c-5.5-2.89-4.16,5.17-8.94,4.43c-7.35-1.83-1.65,4.2-4.34,4.35
			c-10.93,0.38-13.33-3.86-5.12,4.05c-4.32,1.96-15.49-3.21-17.42,4.64c10.74,4.62-7.98,5.03-4.38-1.67
			c-4.5,0.34-0.03,5.78-4.8,5.56c-0.67,0.01-1.98,2.66-1.81,3.93c2.07,0.12,9.62,3.79,2.36,5.52c-4.08,3.19,7.42,1.2-5.27,4.72
			c16.84,2.93-13.18,6.32-15.83,3.16c-4.02,3.22,1.55,12.26,6.38,8.03c2.53-3.85,4.27,3.47,0.77,2.66
			c-6.67-2.82,7.68,13.02-0.52,8.97c-5.96-3.94-0.4,4.06-2.88,5.19c-8.29-0.78-18.95-1.32-26.68-3.92c-1.72,2.37,2.9,3.02,2.26,5.16
			c-1.91-0.17-4.18,1.2-5.57-1.42c-8.24-6.22-3.17,5.13,3.46,2.42c48.82,5.08-142.8-1.91-174.04-2.73
			c-30.83-7.89-87.91,10.95-87.57-29.97c-2.16-25.2-3.01-51.35-18.7-72.09c-4.68-6.28,17.29-23.2,17.57-21.42
			c10.94-14.64,109.9,1,48.48-6.88c-15.35-1.39-30.75-2.6-45.98-0.23C1405.97,420.87,1402.73,409.32,1398.04,406.14z M1613.1,297.71
			c13.39,25.11,52.86-38.89,68.99-50.36c11.45-24.41-32.91-46.09-41.91-63.85c-18.24-30.3-60.72,37.78-80.89,48.74
			C1554.08,251.01,1600.8,284.6,1613.1,297.71z M1573.95,115.6c52.95,1.93,106,1.8,157.9,13.63
			C1683.2,112.51,1623.76,108.59,1573.95,115.6z M1798.22,168.7c-2.24-1.44-5.3-1.78-1.05-3.72c2.42-0.82,0.68-10.51-2.95-6.83
			c-8.45-6.17-19.42,9.16-23.76,17.27c3,7.4-4,7.88-2.06,15.22c7.48,11.18,11.49-16.51,16.74-16.76
			C1789.56,187.15,1786.05,163.65,1798.22,168.7z M1471.77,424.32c-10.16,0.99-35.57-25.15-35.85-7.58
			c1.08,2.92,9.53-2.05,6.03,4.17C1385.95,415.15,1446.43,425.14,1471.77,424.32z M1793.99,140.64c12.84-2.09,11.95-14.29-3.84-7.11
			c-3.58,1.78,2.47,1.48,1.91,3.47C1792,138.36,1791.8,140.88,1793.99,140.64z M1738.83,132.62c7.4-0.59,14.63,3.23,22.04,0.53
			C1753.56,131.45,1746.39,126.88,1738.83,132.62z M1674.83,527.46c6.36,4.22,18.15,1.76,24.57,1.18
			C1693.7,524.41,1682.05,528.86,1674.83,527.46z M1476.98,135.88c-4.03-2.39-19.53,5.24-21.49,10.52
			C1462.36,141.8,1469.19,138.62,1476.98,135.88z M1672.21,528.44c-2.93-3.14-13.71-0.32-19.32-1.53
			C1655.41,530.84,1666.7,527.29,1672.21,528.44z M1678.28,540c1.69,0.18,3.07,1.93,6.18,0.6
			C1681.8,539.89,1680.42,538.49,1678.28,540z M1616.28,404.6c-1.86,0.2-1.61,3.06,0.25,2.85
			C1618.4,407.29,1618.17,404.47,1616.28,404.6z M1468.26,410.72c0.92,0.82,1.2,1.84,2.36,1.74
			C1471.97,411.37,1470.23,409.88,1468.26,410.72z M1684.4,545.07c0.75,1.07,1.03,1.56,1.72,0.58
			C1686.52,544.4,1685.15,544.37,1684.4,545.07z"/>
		<path class="st10" d="M1769.89,354.03c-0.02-6.14,0.9-6.83,6.43-4.23c-3.62-8.6,7.78-6.79-4.54-10.67
			c3.45-4.51,12.61-12.22,6.55-19.08c-1.57-0.93-2.47-2.46,0.62-2.71c5.3-0.65-3.06-6.41,2.91-6.8c5.92-0.72-1.4-3.52-2.26-5.09
			c2.26-5.67,5.79,4.95,8.53-0.44c4.95-12.55,3.45-16.47,2.71-29.55c3.44,0.69,1.52,9.9,4.45,3.96c-2.99-3.37,4.82-7.64,1.15-8.87
			c-6.36,0.17-21.04,5.31-11.22-5.55c3.13-3.7,6.74,6.81,11.17,1.78c0.96-5.09-9.3-1.09-10.45-6.56c-1.75-1.42,1.59-4.78,3.47-5.53
			c4.99-4.23,2.49-13.54,11.98-13.35c3.97-0.56,1.54-4.74,3.33-7.29c2.67,3.59,4.2,1.56,5.99-2c-22.55-3.05,0.73-22.97,9.11-30.88
			c2.44-7.08,14.53-7.07,12.79-14.77c-5.63-32.28-65.53-33.92-62.22-59.42c9.85,2.24,8.06,0.66,15.97-3.4
			c1.96,6.44-19.73,11.35-6.38,18.49c3.27,0.26,1.61-6.27,4.85-5.71c4.51,2.04-4.08,6.84,1.01,8.35c3.62,1.67,7.92,1.69,10.96,4.88
			c4.1,2.54,9.49-3.71,13.47,1.2c-8.55,3.87,4.66,6.9,9.41,8.06c3.39,12.59,12.04,17.74,4.29,1.26c3.72,3.69,8.91,12.38,6.94,17.58
			c9.49,8.7-8.47-29.46-2.96-34.65c3.27,0.13,1.81,5.96,4.71,6.12c2.36-0.44,0.02-2.41,0.8-3.53c2.54-0.67,3.45,2.6,5.83,2.63
			c-86.34-81.89-235.86-63.31-342.08-31.33c-16.96-2.13,73.2-19.78,92.54-24.96c157.69-25.42,312.68,31.75,316.48,210.95
			c12.41,91.35,11.84,184.32-9.2,255.87c-17.15,20.64,4.18,14.32-3.77,31.6c-1.46,23.14,8.25,7.66,6.88,23.37
			c2.81,5.53-8.11,9.15-2.18,14.22c5.88,4.21-2.48,10.73,1.34,16.21c0.71,1.07,0.2,3.05-1.59,3.37c-3.32,0.64-0.21-5.33-3.91-5.02
			c-4.25,2.18,2.59,7.77-1.1,11.09c5.13,3.45,0.82,3.11-0.08,7.19c-0.76,10.52,1.86,35.25-11.4,31.53
			c-0.75-1.09,3.74-3.18-0.09-3.27c-8.3,1.43,2.68-8.91-3.42-11.77c-9.63,12,7.14,22.63,9.86,33.34c4.97,0.02,4.51,6.34,8.67,7.29
			c2.89,0.25,4.5,0.77,1.34,3.41c1.22,4.42,10.19,6.98,6.94,14.6c-7.74,3.41-9.04-9.41-11.93,1.63c0.21,2.43,1.76,5.31-2.55,5.92
			c-0.86,0.12-0.32,1.42-0.31,2.24c1.06,11.11-4.45,21.15-7.76,31.77c-0.4,14.83,9.02-12.65,10.03-18.05
			c4.18-1.73,13.42,6.37,11.67,13.02c1.92,5.42-2.51,6.88-3.4,0.69c-2.36-4.56-9.9-2.58-7.94,2.64
			c3.87,67.37-154.74,34.6-212.12,40.04c-86.61-0.27-172.94-16.72-257.15-12.61c-13.33-4.56,1.56-2.65,8.44-5.37
			c9.88-5.07,0.2-9.8-6.3-9.01c-6.36-0.03-0.72-7.64-5.01-10.7c14.42-11.81,52.53,5.66,74.8,1.19c4.47-1.38-16.97-3.07-22.46-2.52
			c-5.45,0.29-5.26-7.5,0.07-5.93c3.43-0.2,5.97,4.46,9.72,2.28c1.28-2.99-0.68-12.7,5.94-6.7c6.62,4.93-5.66-18.41,14.41-10.44
			c3.7,9.02,3.43-7.76,10.03-5.52c5.24-2.58,3.67,4.33,6.58,3.46c11.67-2.45-0.56-7.76,10.54-8.53c-1.36,10.29,11.9,0.67,11.06,9.17
			c-2.97,1.85-9.13,2.58-0.97,4.1c6.11-1.94,7.78-13.34,17.34-7.78c4.74-1.05,6.76,4.49,10.54,4.31c2.16-1.25-0.72-2.22-0.64-3.44
			c0.15-0.85,1.26-4.32-0.71-3.75c-3.59,1.87-4.39-1.16-5.96-3.03c-3.87-3.7,7.22-3.5,3.36-9.02c-0.7-2.03-1.49-5.81-0.19-7.52
			c2.35,0.65,2.12,5.35,5.86,3.84c9.89-0.6,18.78,2.23,28.89,3.38c9.98,8.92-4.06-16.93,5.47-7.62c2.37-0.04,0.48-2.76-1.12-2.38
			c0.49-7.08,7.61-11.81,4.54-1.96c3.99,2.22,3.11-4.13,6.45-4.06c5.51-0.84-8.65-8.69-0.61-8.48c6.48,0.84,0.86-7.08,5.21-6.1
			c8.2,2-0.91-9.31,0.17-11.96c14.89,5.29,2.82-26.59,16.49-13.44c6.35,6.23,1.15-2.55,3.36-2.5c2.61-0.95,3.45-1.92,2.14-4.86
			c-2-5.42-5.68,1.75-7.78-2.07c-1.57-1.98,3.4-1.72,2.68-4.5c6.86-9.76,9.75,6.76,13.06-0.05c0.57-2.57,2.46-2.36,4.31-2.24
			c10.19-4.26-2.86-4.94-5.3-6.65c-0.19-0.3-1.01,0.37-0.91,1.02c0.68,4.2-1.9,1.4-2.5,0.95c-9.21-7.06,5.38-2.61,6.3-10.23
			c0.65-2.3,4.65-6.43,6.77-4.51c0.7,1.24-0.17,2.33-1.38,3.17c-3.36,1.15,0.74,8.54,2.05,4.82c-1.09-3.39,0.72-2.7,2.72-2.3
			c8.48-2.37-6.26-3.72,0.89-6.59c5.1-1.42-4.19-14.69-4.71-7.98c1.84,2.52,4.18,5.11-1.83,3.77c-2.28,3.03-5.84,2.4-3.87-2.05
			c0.86-6.43-6.12-1.3-3.44,2.59c1.34,4.2-1.09,11.01-4.14,12.37c-0.06-3.34,1.61-4.74-2.77-5.07c0.71-2.07,4.93-1.11,4.37-4.03
			c-2.29-3.53-6.94,4.09-2.66-4.6c-1.08-1.81-3.2,0.15-4.72-0.5c-1.56-1.63,3.25-1.48,0.47-3.04c-1.02-0.57-2.27-0.66-1.96-2.18
			c0.76-2.95,4.12,0.03,5.39-2.24c-1.44-2.03-1.78-5.04-5.26-5.31c-3.06-1.78,3.03-1.89,1.7-3.92c-1.78-3.2-5.8,3.06-7.35-0.13
			c0.42-5.47,15.58-0.26,8.75-9.07c-2.49-1.52-2,2.36-4.03,2.72c0.15-2.16-1.16-4.05,1.33-5.84c3.5-4.65-0.26-9,3.59-14.51
			c4.21-4.48,4.75-12.17,1.27-16.07c7.4-0.79,2.41-2.94,6.35-4.17c5.05-0.74-0.13-1.79,0.92-4.14c-0.95-6.77-26.11-0.58-35.2-2.61
			c6.62,3.35,5.48,1.84-0.47,4.56c3.61,1.35,2.64,4,1.46,6.3c-1.1,4.64-0.84,9.48-3.54,13.47c3.29,2.15,1.54,3.91-0.36,5.7
			c-1.89,3.52,2.84,5.17-3.49,4.68c7.92,7.05-2.8,10.62-7.94,10.07c-2.95-2.91,4.09-9.24-2.78-9.96
			c-0.51-7.07,9.66-29.04-0.21-34.88c-2.5-0.11-5.14,0.61-8.15-0.98c36.27-2.55-30.61-3.66-44.43-4.17
			c44.39,5.77,46.33,5.57-2.83,2.69c-6.15-1.47-1.4,9.05-5.83,6.08c-2.02-10.44-42.66-5.41-36.09-10.34
			c-14.29-6.51-54.05-4.26-69.49-6.03c-9.66,8.34-1.19,24.56-5.99,34.96c-8.33,13.34,2.28-15.43-4.48-22.51
			c2.55-0.22,3.82-6.39,1.66-6.88c-6.38,11.34-3.59-0.71-4.06-7.4c-3.28,2.5-9.11-3.96-11.32,0c80.28-2.46,187.94,11.74,277.49,8.01
			c-7.73-8.33-21.71,4.07-28.52-5.65c2.14-0.68,3.99-1.15,5.31,1.33c1.39,2.62,3.66,1.26,5.57,1.43c0.62-2.24-3.98-2.6-2.26-5.17
			c7.73,2.61,18.38,3.11,26.67,3.92c2.51-1.13-3.09-9.02,2.88-5.2c5.92,3.15-0.73-7.03-1.62-8.63c1.68-1.05,5.93,0.05,3.5-3.89
			c-5.37,4.45-13.05-1.21-8.52-7.14c3.68,1.85,18.21,2.35,21.47-2.04c-1.56-2.09-4.18,1.46-5.64-1.12c2.36-2.3,9.63-0.38,3.96-3.82
			c0.74-1.84,4.74-0.42,4.29-3.14c-1.23-4.71-9-0.94-3.53-7.21c10.08-12.55-1.94,2.93,13.49-1.24c-2.27-1.86-8.1-3.45-1.16-6.03
			c4.69-2.95,10.29,0.25,14.28-1.25c-8.61-8.17-5.3-3.51,5.12-4.06c2.29,0.78-0.1-2.29-0.01-3.77c2.14-1.88,6.2,0.94,7.64-1.96
			c0.58-5.08,4.81-2.06,6.8-3.91c0.26-1.47-5.23-2.76-1.32-2.76c7.57,4.94,16.08-0.22,22.09-4.17c5.43,2.55,7.19-2.46,11.77-1.65
			c12.11-8.29,28.14-3.96,39.97-13.65c-6.22-1.77-15.16,8.27-20.83,1.29c7.08-10.37,25.69-9.07,31.01-22.1
			c-10.55-0.67-44.02,31.68-38,6.57c0.12-6.38,0.15-6.37-6.39-8.02c-7.54-3.61,24.77-1.29,16.54-3.95
			c-109.04-10.63-220.32-13.11-331.27-15.33c21.66-1.39,43.42,0.86,65.29-0.05c64.34-0.58,128.68,1.51,192.76,7.4
			c31.45,3.01,16.97-1.41-4.21-2.29c-76.04-6.43-152.19-7.07-228.45-7.28c-20.63,3.88-24.66-8.92-34.08-23.06
			c2.1-4.25-2.44-0.29-2.52-2.76c2.59-1.99,4.4-9.48,8.7-6.25c-0.32,1.96-3.41-0.02-3.49,2.16c1.4,4.21,9.13-0.8,9.07,5.86
			c4.68-2.19,3.5,12.61,16.33,9.23c-4.72-7.45,9.65-10.03,7.86,0.16c4.77-2.47,3.38-12.53,6.69-8.88c3.62,4.26,3.79-4.32,7.48,1.79
			c4.07,2.1,5.94-5.07,8.1-0.87c2.08,5.97,11.96-8.62,8.75-0.06c-3.76,7.05,15.36-11.65,19.31,4.89c2.31-0.54,1.99-2.9,2.72-4.16
			c3.06,0.25,6.09,0.62,2.27-3.56c1.84-3.08,7.39,0.67,5.39,4.15c-0.81,4.89,11.3-5.07,17.4-0.88c5.03-1.35,3.09,5.69,5.84,6.26
			c1.29-2.25,4.78,1.8,5.2-1.99c1.38-3.9-4.47-2.07-4.54-5.13c1.18-1.48,6.66-0.84,6.31,2.15c-0.34,4.54,7.74,5.55,3.97,1.1
			c-2.45-2.32,0.43-2.75,2.23-2.98c1.64-2.42-5.03-6.54-7.21-9.47c1.1-5.52,13.43,1.31,17.42,3.72c6.47,3.69-4.87,11.08,2.62,12.88
			c4.17,0.94,3.16,4.25,2.82,7.44c2.54-2.76,10.62-4.2,12.15-9.54c-3.84-5.94,3.74-3.19,3.53,1.39c1.76,6.23,5.02-6.07,8.48-6.39
			c0.13-4.04-3.64-5.13,3.32-9.85c3.74,0.83,3.6,12.57,9.76,9.8c10,5.34,6.69,5.88,13.94-2.27c2.61,4.34,4.52,5.37,7.72-0.44
			c13.05,5.47,7.03-7.71,11.52-7.1c7.09,1.68,7.77-1.49,4.54,6.54c-0.88,2.52,0.27,3.28,2.58,3.58c7.67,0.94-2.83,4.99,7.88,6.13
			c-2.29,1.76-12.88-1.27-8.76,2.28c4.87,0.83,5.98,3.32,0.67,2.73c-1.24,7.48,6.45-1.71,8.46,4.26c4.25,1.68,6.43-8.49,12.21-3.83
			c2.69-1.12-0.51-2.44-2.6-3.13c5.94-0.72,4.37-5.56,6.59-8.05c0.94,0.08,1.65,1.01,1.33,1.84c-1.43,3.98,6.43,5.99,7.35,2.31
			c2.25-2.21,4.97,0.81,4.62-3.61c2.24,1,3.7,4.95,6.85,1.81c6.28,7.46,11.4-4.61,19.82-3.36c5.64,2.43-2.23,5.96-5.44,4.86
			c-9.05,4.12,1.02,7.03,5.49,2.79c2.34-4.67,9.36,0.73,10.06-3.31c-0.09-7.11,5.82,1.9,7.96-2.63c3.89-6.1,2.74,7.32,13.4,1.44
			c1.81-3.66-6.8,0.52-5.7-3.66c0.4-2.77,3.67-1.58,5.43-1.24c7.94,0.86-1.07-10.3,4.29-14.09c-4.47,3.06-17.98-0.56-6.17-0.57
			c5.92,0.18,6.59-7.36,0.23-5.98c-7.83-0.05,1.14-6.14-8.06-5.19c-1.45-3.03,4.61-2.64,3.61-5.16c-1.74-2.67-4.69,2.41-6.23-0.14
			c-1.75-2.5,3.67-1.88,2.47-3.62c-2.07-2.78-4.41-7.48-5.2-9.54C1782.61,355.78,1773.68,352.79,1769.89,354.03z M1670.15,581.62
			c-8.3,4.73,3.09,9.16-2.37,14.04c-1.66,3.61,4.3,7.28-4.42,9.88c7.08,0.7,1.08,5.2,5.33,8.2c2.39,2.63,3.72-0.3,4.78-0.22
			c0.98,2.73-1.51,5.03,3.35,3.57c9.24-0.24,0.85-12,6.87-11.74c2.98,0.89,5.97-3.66,2.61-5.05c-0.18-3.41,3.46-11.24,8.67-12.66
			c-5.85,0.42-9.34-5.01-2.26-4.33c0.8,0.69,2.31,1.35,2.77-0.09c0.3-2.41-10-4.62-5.29-7.15c4.21,3.15,4.1,3.03,3.51-2.67
			c7.44-10.12-14.95-7.31,6.58-9.24C1684.65,558.41,1672.12,566.75,1670.15,581.62z M1818.46,777.73
			c23.62-6.49,27.15-110.12,19.61-138.36c-0.68-3.82,1.46-25.01-4.22-19.51c0.47,5.5-4.1-0.98-5.55,2.93
			c-1.47,3.44,5.38,3.42,1.47,7.3c-3.08,4.88-6.41,14.62-2.15,18.99c2.56,1.94,2.91-1.11,4.21-1.98c5.58-4.16,1.24,6.89-0.83,8.62
			c-3.79,13.1,2.93,27.98-5.68,41.52C1830.65,723.15,1840.16,754.61,1818.46,777.73z M1851.73,198.84
			c-0.33-4.39-4.43-0.31-0.02,0.02c-9.5,16.19,4.01,33.29,2.05,51.52c10.21-11.58-13.39-43.31,2.54-47.44
			c10.51,12.73,10.2,30.51,13.46,45.16c5.77,2.49-0.19,22.86,8.8,17.69c-2.52-3.49-5.04-6.33-0.75-10.35
			c7.37-27.17-1.47-52.67-14.69-80.07c-2.82-6.43-19.83-27.04-22.99-20.29c3.96,5.23-5.39,4.8,4.2,6.28
			c-3.72,7.04,19.81,18.6,9.56,19.13c-2.31-2.72-3.79,0.48-0.95,1.73c0.59,3.16,5.67,0.1,5.26,2.8c-3.68,5.21,1.74,7.86-5.22,5.97
			C1849.05,193.6,1857.64,197.91,1851.73,198.84z M1716.86,753.87c10.3-3.08,42.09,8.28,34.21-11.37
			c2.1-70.05,5.73-56.96-69.86-44.4C1686.97,732.07,1667.62,762.33,1716.86,753.87z M1834.48,463.32c-0.32,2.25-2.89,4.74-1.46,6.43
			c7.72,7.78-0.04,20.98,3.47,31.58c-3.01,7.86-0.65,15.84-2.71,22.78c1.19,5.39-4.75,15.02,0.08,17.71
			c10.43-10.69,5.44-30.69,9.71-45c3.71-9.25,8.91-43.85-7.56-29.12C1835.09,466.28,1836.25,464.6,1834.48,463.32z M1871.05,745.16
			c-4.94-70.99-3.23-141.04-5.18-212.37C1865.38,603.06,1861.77,676.12,1871.05,745.16z M1877.39,374.18
			c-15.23,5.55-3.94,28.23-8.05,39.38c-2.41,2.57-6.45,15.4-1.37,13.95c6.44-7.94,10.97-18.56,3.59-25.94
			c5.12-8.7,3.51-20.18,11.68-27.58c0.14-3.97,4.41-7.08,3.58-10.43c-1.33-1.48-2.81-2.72-5.49-0.73c3.33,0.61,2.96,1.95,1.21,3.42
			C1880.43,369.92,1871.63,370.16,1877.39,374.18z M1861.92,249.68c-15.58,3.38,1.22,54.87-1.36,72.52
			C1867.11,298.67,1853.02,269.72,1861.92,249.68z M1846.18,540.95c-24.8,0.69-15.49,49.28-10.42,15.99
			C1831.93,548.01,1841.91,546.86,1846.18,540.95z M1757.93,435.61c16.82,5.77,41.75,1.41,61.23,2.26
			C1798.75,437.12,1778.34,436.36,1757.93,435.61z M1657.77,695.54c4.55,5.47,19.72,4.79,18.01-1.65c-0.3-6.36-5.8-3.27-9.33-6.14
			c-0.59-0.92-1.48-1.46-2.45-0.45c-1.11,1.71,1.9,5.84,4.41,3.84C1680.46,692.38,1663.89,699.16,1657.77,695.54z M1643.62,406.98
			c-1.59,6.54,3.11,0.04,5.12,0.11c1.21,1.24-0.42,5.15,3.11,3.7c1.58-1.91,3.88,2.01,5.02-0.49
			C1653.57,407.2,1639.31,393.99,1643.62,406.98z M1642.51,684.37c-1.3,1.51-1.4,4.97-5.08,5.56c-3.99-1.13-2.76,4.02,0.83,2.2
			C1650.73,688.28,1642.81,671.18,1642.51,684.37z M1688.42,690.95c-3.39-2.92-8.31-5.64-11.21-3.52
			C1677.88,693.1,1684.16,690.06,1688.42,690.95z M1828.95,443.98c-2.55-1.55-13.35-1.55-15.9,0
			C1818.35,443.98,1823.65,443.98,1828.95,443.98z M1850.36,457.37c-1.24-3.16,0.92-8.35-2.91-10.03
			C1845.98,448.02,1848.68,461.99,1850.36,457.37z M1652.56,564.47c-6.04,0-12.08,0-18.13,0
			C1640.49,565.67,1646.55,566.41,1652.56,564.47z M1495.87,416.13c-3.72-2.92-7.38-1.22-10.76-3.61
			C1487.4,419.76,1491.57,415.78,1495.87,416.13z M1647.98,717.69c0.46-3.1,4.65-2.8,4.86-5.41
			C1649.44,708.78,1645.34,714.04,1647.98,717.69z M1517.21,779.96c-8.85-1.88-11.62-1.91-14.92,0
			C1507.35,779.96,1511.91,779.96,1517.21,779.96z M1833.3,458.53c2.24-1.68,4-3.25,4.39-5.76
			C1835.77,450.8,1832.53,455.71,1833.3,458.53z M1647.46,413.65c-2.9-1.35-5.16-0.74-6.89,2.03
			C1643.68,417.31,1645.34,414.71,1647.46,413.65z M1632.75,691.04c-1.27,1.18-3.55-0.35-4.18,1.71
			C1628.73,695.55,1633.48,693.84,1632.75,691.04z M1583.81,406.78c-2-0.44-3.47-0.35-5.34-0.11
			C1581.42,409.83,1581.42,409.83,1583.81,406.78z M1666.92,405.16c-0.86,1.76-4.36,2.51-3.17,4.43
			C1665.45,410.63,1668.3,407.49,1666.92,405.16z M1547.64,407.85c-1.21-2.35-4.14-5.32-5.01-2.38
			C1543.42,407.33,1545.25,406.88,1547.64,407.85z M1629.06,682.12c1.61,1.39,2.81,2.18,4.43,1.61
			C1635.28,681.64,1631.07,680.7,1629.06,682.12z M1670.75,409.75c-1.46,0.14-2.01,3.08-0.2,2.7
			C1671.76,412.21,1672.36,409.82,1670.75,409.75z M1680.51,724.84c0.7-1.55,1.02-2.65-0.3-4.32
			C1679.49,722.19,1679.1,723.29,1680.51,724.84z M1659.55,412.1c-1.63,0.02-1.03,1.78,0.07,2.08
			C1661,414.44,1660.86,412.11,1659.55,412.1z M1531.99,564.65c-1.59-0.24-1.59,1.87,0,1.58
			C1533.57,566.5,1533.58,564.42,1531.99,564.65z M1639.98,407.58c2.52-0.52-0.99-3.39-1.08-0.82
			C1638.9,407.51,1639.49,407.58,1639.98,407.58z M1664.15,414.41c0.71-0.7,0.96-1.45,0.22-1.98
			C1663.03,412.27,1663.39,413.7,1664.15,414.41z M1644.16,398.21c-1.1-0.47-1.77-0.87-2.52-0.19
			C1641.4,399.63,1642.71,399.07,1644.16,398.21z M1669.15,578.66c-0.14-0.23-0.26-0.71-0.55-0.85
			C1666.7,577.49,1668.64,581.16,1669.15,578.66z M1723.84,413.13c-0.58-0.8-1.21-0.95-1.54,0.01
			C1722.14,414.45,1723.47,414.37,1723.84,413.13z M1782.14,320.14c0.61,0.42,0.85,0.32,1.01-0.4
			C1782.55,319.32,1782.3,319.43,1782.14,320.14z M1658.72,655.57c-0.51-0.36-1-0.26-0.97,0.38
			C1658.15,656.49,1658.62,656.23,1658.72,655.57z M1736.67,409.71c-0.65,0.23-0.69,0.5-0.35,1.05
			C1736.84,410.46,1737.37,410.25,1736.67,409.71z"/>
		<path class="st9" d="M1904.56,735.96c3.18-7.87-5.65-9.99-6.94-14.6c3.16-2.65,1.55-3.16-1.34-3.41
			c-4.17-0.95-3.67-7.25-8.67-7.29c-1.6-3.25-3.8-6.78-4.92-10.81c-1.42-4.65-10.49-7.49-7.75-14.11c0.61-1.36,1.23-12.25,4.15-7.02
			c2.94,4.36-5.67,11.3,2.09,10.37c4.19,0.03-1.19,1.98,0.08,3.27c0.97,1.38,1.93,0.45,2.89-0.2c10.33,1.6,7.45-22.78,8.52-31.32
			c-0.77-3.12,6.74-4.15,0.65-6.18c1.36-3.67-2.55-9.55,0.52-12.1c3.87-0.47,0.33,5.69,3.91,5.02c1.79-0.32,2.3-2.3,1.59-3.37
			c-3.81-5.45,4.52-12.03-1.34-16.21c-4.18-2.28-0.61-6.25,0.52-7.27c4.52-4.06-0.87-8.42,2.25-12.45
			c-16.57-7.6,2.61-24.58-10.85-33.45c29.56-73.34,28.56-163.33,18.06-258.78c-5.03-257.51-254.72-244.65-395.17-208.06
			c147.51-32.6,31.44-120.89,214.49-120.29c-3.93,6.42-11.97,53.81-14.06,32.09c4.22-1.22,2.16-6.03,2.97-9.31
			c2.56-0.7,1.74-2.42,1.09-3.95c-1.48-2.83,2.87-2.73,3.18-6.83c-9.38,2.14-2.08,10.87-6.18,9.92
			c-17.41-1.47-48.81,48.13-36.38,63.99c12.2-3.54,37.59,7.94,41.07-8.24c2.98,2.9-0.02,8.57,7.06,7.33
			c9.22-2.66,21.53,8.9,25.43-2.17c0.88,1.17,0,2.21-0.17,3.27c6.79,8.05,26.31,5.64,37.34,9.44c8.53-3.47,9.99-19.93,15.38-28.52
			c3.74-9.25,0.82-23.43-7.98-27.61c-3.36,1.9-0.31-3.77-3.25-2.88c-5.19,1.45-1.12-6.13,2.05-5.96
			c28.86-32.91,87.87-19.41,125.44-5.62c-26.27,4.96-39.03,50.14-51.1,72.03c-20.21,26.16,18.97,35.63,28.24,56.37
			c6.12,14.33,25.39,28.6,20.1,44.78c20.35,27.52,11.06,118.18,7.12,177.63c-5.6,37.27,12.67,74.47,4.69,110.27
			c3.42,10.25-25.93,34.66-14.1,27.55c4.81-4.13,15.24-19.2,12.57-4.11c-0.94,17.11,6.68,35.33,9.21,50.8
			c0.79,15.68,7.27,30.49,9.31,43.07c1.3,7.09-0.77,28.88,4.18,26.41c11.57,0.86-7.06,9.71-0.56,13.89
			c6.32,23.87-7.01,56.7,2.5,83.87c6.14,29.98,37.08,99.07-11.38,98.13c-4.26,0.61-9.5-1.85-6.07-6.42
			c2.33-4.29,1.19-34.22-0.69-19.93c0.63,9.48-13.34,6.41-19.1,11.12c-4.34,12.67-37.79,4.21-32.1,13.28
			c2.98,4.01-5.32,1.02-7.51-0.49c-6.87,2.02-16.09,1.39-23.7,5.79c-4.3-3.7,39.1-11.52,42.77-26.57c-5.15-3.41-2.49-0.23-6.57-1.03
			c6.78-5.54,1.75-13.07,5.99-18.01c6.14-3.77,5.4,6.41,9.36,6.26c3.58-7.79-3.02-14.1-8.67-18.47
			c-9.02,1.48-2.77,19.64-13.23,24.26c-1.06-7.12,5.07-13.36,4.58-20.86c5.86-5.21,2.67-12.96,3.93-18.76
			c6.62-0.74-0.86-9.24,5.57-10.54c3.1-0.59,1.22,5.09,4.78,3.59c2.64-1.34,4-0.76,4.88,1.46
			C1906.72,737.36,1905.92,735.96,1904.56,735.96z M1947.21,761.7c0.48-5.72,5.61-17.72,0.35-20.72
			C1944.4,745.11,1946.43,755.64,1947.21,761.7z M1900.8,151.87c0.03,3.23-3.38,8.96,1.28,10.01
			C1906.19,160.13,1903.35,154.06,1900.8,151.87z M1939.87,761.23c-3.15,0.79-2.26,8.76-4.04,13.02
			C1938.7,770.45,1938.3,765.64,1939.87,761.23z M1942.59,749.78c-1.27,2.8-2.45,5.57-2.22,8.64
			C1941.68,755.65,1942.72,752.83,1942.59,749.78z M1949.75,622.78l0.07-0.33C1949.5,622.55,1949.46,622.57,1949.75,622.78z
			 M1950.88,718.1c0.09,1.96-1.22,2.75-0.01,4.11C1951.86,721.37,1952.14,720.5,1950.88,718.1z"/>
		<path class="st9" d="M1417.6,593.36c16.31-3.05-0.37-30.74,11.87-39c12.97,2.27,63.81-1.89,69.43,8.32
			c13.92-0.45,28.32,0.35,38.03,8.53c3.72-15.82,35.35,0.87,49.17-4.44c-62.43-5.53-26.28-5,17.85-2.3
			c-5.67,2.55-10.56-0.06-15.81,1.66c18.46-1.66,12.12,22.5,7.9,33.73c-1.64,3.23,6.1,1.95,2.97,7.77
			c-3.48,9.58,18.82,1.75,8.19-5.74c6.05,0.57,1.73-1.16,3.49-4.69c1.9-1.79,3.66-3.55,0.37-5.7c2.65-3.93,2.47-8.87,3.53-13.47
			c1.19-2.3,2.16-4.94-1.45-6.29c5.9-2.57,7.07-1.26,0.46-4.55c9.66,2.12,36.33-5.08,35.16,3.98c4.93,4-3.89,0.91-2.52,4.87
			c-8.14,4.5-1.33-0.48-3.21,7.84c3.51,6.93-7.62,11.57-4.02,18.57c0.87,1.2-2.52,4.26-2.33,6.22c-2.5,1.79-1.19,3.68-1.34,5.84
			c2.03-0.36,1.54-4.24,4.03-2.72c4.36,5.44-1.42,6.44-5.69,6.12c-1.11,0.94-3.72,1.28-3.06,2.95c1.57,3.17,5.56-3.05,7.35,0.13
			c-5.18,6.47,1.25,1.71,3.56,9.23c-1.76,1.3-9.18,1.28-3.42,4.42c2.78,1.55-2.03,1.41-0.47,3.04c1.42,0.74,3.71-1.43,4.71,0.5
			c1.12,2.05-2.88,2.17-1.75,4.15c1.43,1.46,3.55-2.79,4.41,0.46c0.41,3.12-3.53,1.71-4.37,4.03c4.24,0.25,2.78,1.88,2.76,5.07
			c6.03,0.75,2.63-27.44,7.58-14.96c-2.09,4.33,1.66,5.28,3.87,2.05c8.68,1.71-0.38-3.08,2.51-5.61
			c14.96,11.14-4.99,8.37,5.72,14.74c-0.75,4.17-7.13-1.64-5.3,3.96c0.34,1.05-0.81,1.28-1.71,0.73c-4.89-3.09,2.04-5.76,1.04-8.71
			c-2.03-1.75-6.15,1.94-6.77,4.51c-0.89,7.52-15.55,3.29-6.3,10.22c0.6,0.46,3.18,3.25,2.5-0.95c-0.1-0.65,0.72-1.32,0.91-1.02
			c1.66,2.64,3.86,0.81,5.84,1.02c8.7,5.41-3.35,4.21-4.84,7.87c-0.2,0.9-0.69,1.99-1.99,1.85c-3.48,0.02-1.64-5.35-4.87-4.81
			c-4.61-0.17-5.53,2.76-7.76,5.76c-0.87,0.21-2.38,0.23-1.11,1.76c2.08,3.82,5.79-3.35,7.78,2.07c3.28,6.49-7.34,2.51-0.88,9.24
			c-5.66-0.44-12.32-11.78-12.89,1.66c3.3,18.42-14,0.45-5.23,19.57c1.17,5.76-5.69-0.43-4.96,3.75c2.65,8.87-12.89,0.2-2.1,11.05
			c3.13,2.82-3.64,1.21-3.23,4.25c-0.69,4.41-7.54,1.4-2.99-0.79c0.18-8.51-9.76,7.04-7.63,9.89c8.5,11.71-13,2.39-18.42,1.11
			c-4.97-0.13-14.48,3.31-17.01-2.52c-6.13-3.69,3.33,12.39-3.89,12.3c-4.43,1.05,1.81,8.62,5.18,6.2
			c2.29,0.83,2.57,13.15-2.52,4.82c-5.34-2.34-17.12-6.13-19.12,1.63c-0.37,4.59-7.33,5.99-9.38,1.77c2.43-0.55,7.67-0.17,5.22-4.4
			c-5.55-3.71-10.69,2.89-10.81-6.43c-10.91,0.69,0.9,6.19-10.54,8.52c-2.81,1.1-1.55-6.15-6.58-3.45
			c-6.04-0.69-5.08,5.57-7.63,8.28c-3.35-2.91-5.77-5.94-11.57-3.38c-7.69,0.83-1.03,7.1-2.93,11.47c-4.89-1.2-7.44-4.74-8.26,3.37
			c2.72,3.24-3.35,4.73-5.59,2.27c-1.92-1.8-7.89-3.32-8.24,0.51c3.64,8.54,21.13,1.79,28.84,5.32
			c-13.9,6.39-110.37-18.1-66.27,11.28c6.03-1.51,5.69,7.35,0.44,8.25c-6.54,2.36-22.11,1.19-8.44,5.37
			c-9.63,7.58-17.32-8.76-26.03-2.14c2.55-11.44,3.95-22.56-1.09-34.13c-1.97-5.76,8.45-9.3,2.95-16.18
			c-2.96,1.64-0.75,13.22-3.78,6.66c-3.56-65.66,6.99,7.98,10.4-54.81c-3.24-18.09-11.08-31.02-7.24-49.77
			c6.27-6.12,5.74-16.23,8.6-23.96c3.32-1.4,1.8-2.06,0.54-4.54c4.43-2.31-2.32-7.46,4.63-7.6c-5.6-2.74,0.61-5.19-1.29-9.03
			C1413.46,602.47,1409.99,590.23,1417.6,593.36z M1469.8,559.46c-0.39-1.47-5.41-2.99-8.06-1.08
			C1464.52,557.93,1467.05,559.64,1469.8,559.46z M1407.6,779.38c1.62,1.14-3.18-4.63-2.97-5.56c1.21-4.73-1.74-3.85-4.41-4.13
			C1402.23,775.71,1404.18,778.23,1407.6,779.38z M1494.45,560.78c-7.23-1.35-14.51-2.06-21.85-1.87
			C1479.77,561.1,1487.06,561.59,1494.45,560.78z M1557,748.01c1.29,1.41,4.27,0.42,3.01-1.29
			C1558.57,746.04,1557.75,746.83,1557,748.01z M1551.61,745.98c-0.22-1.29-1.52-1.54-1.53-0.21
			C1550.32,746.7,1550.94,746.72,1551.61,745.98z M1550.23,740.19c-0.81,0.58-0.96,1.22,0.01,1.55
			C1551.55,741.9,1551.47,740.57,1550.23,740.19z M1524.11,743.95c-0.42,0.61-0.32,0.85,0.4,1.01
			C1524.93,744.35,1524.82,744.12,1524.11,743.95z"/>
		<path class="st10" d="M1927.03,489.5c-6.06,4.54-9.57,11.49-16.15,15.39c11.58-14.43,22.1-29.77,23.89-48.97
			c-24.61-77.97,15.65-191.48-12.89-262.34c1.47,10.76-3.34,0.55-5.02-3.75c-0.98-4.53,5.28-8.24,1.19-12.66
			c-3.86-13.97-13.99-23.45-20.63-36.13c-37.31-41.7-43.13-32.22-14.44-86.67c12.12-13.47,14.36-38.44,37.3-41.72
			c4.6,0.71,17.75,13.04,8.69,13.67c-2.48-2.3,2.04-5.8-2.78-6.8c-6.21,7.95,15.88,22.41,6.53,4.98
			c10.87,9.93,10.86,28.11,14.86,41.77c20.17,100.66,30.28,207.48,35.2,303.87c-13.11,17.33,0.13,79.68-8.58,54.66
			c-1.21,7.11,6.25,17.35,1.05,24.73c-3.27,0.6-5.97,13.72-0.92,13.76c-14.22,12.29-9.05,32.73-13.79,49.92
			c9.6,32.25,8.19,66.71-8.63,96.44c4.08-18-4.26-18.83-0.25-0.43c-1.47-1.68-3,0.78-4.48-0.07c-2.2-12.61,2.67-17.8,2.1-28.95
			c-1.65-16.08-3.52-8.18-3.35,2.58C1931.13,564.3,1932.63,462.29,1927.03,489.5z M1920.69,190.57c-0.16-0.33-0.3-0.89-0.62-0.45
			C1920.19,190.49,1920.3,190.97,1920.69,190.57z"/>
		<path class="st10" d="M1830.29-1.71c-15.83,1.32-31.38,12.77-39.84,25.28c0.37,1.64,1.44,0.79,2.34,0.65
			c2.98-0.71-0.16,4.53,3.25,2.89c4.38,0.53,9.98,11.62,9.19,15.96c2.68,13.45-9.58,23.83-11.62,36.9
			c-7.03,6.81-35.75-0.69-42.31-6.16c1.76-3.12-1.44-4.52-1.15-0.72c-5.11,6.91-16.26-3.25-24.1-0.39c-4.11,0.13-6.3-0.9-5.68-5.4
			c-2.02-2.88-2.5,9.17-13.47,5.99c-82.98,17.86,20.83-98.27,7.53-54.38c-1.63,23.34,9.57-23.26,12.86-31.21
			c28.76-17.44,42.91,24.02,61.49,32.62C1799.85,8.27,1814.1-5.46,1830.29-1.71z"/>
		<path class="st11" d="M1404.42,552.67c-4.39,18.97-1.85,106.23-8.95,48.41c-5.31-10.35,1.82-22.86-4.44-31.9
			c-2.43-2.44-1.42-3.93,1.07-5.1C1398.64,561.74,1404,560.59,1404.42,552.67z"/>
		<path class="st9" d="M1426.57,803.47c16.41-4.43,34.32-2.33,47.66,2.22C1458.54,806.51,1437.65,811.81,1426.57,803.47z"/>
		<path class="st12" d="M1976.25,418.03c-3.15-13.95,0.53-31.37,5.94-43.53C1980.71,388.88,1980.24,404.58,1976.25,418.03z"/>
		<path class="st10" d="M1427.11,174.25c8.09,0.71,7.95-8.99,14.48-11.26c-5.85,11.69-10.96,28.83-21.37,36.7
			C1423.1,192.47,1431.98,182.37,1427.11,174.25z"/>
		<path class="st12" d="M1978.14,434.14c9.24,3.2,0.31,27.61-5.69,28.49C1968.7,447.38,1982.41,454.89,1978.14,434.14z"/>
		<path class="st13" d="M1398.04,406.14c4.25,6.4,2.94,16.88,1.42,24.58C1393.65,427.35,1398.18,413.1,1398.04,406.14z"/>
		<path class="st9" d="M1426.6,175.87c5.84,3.86-1.64,13.51-3.19,18.71C1417.63,199.73,1424.76,179.54,1426.6,175.87z"/>
		<path class="st12" d="M1982.49,358.36c-1.78-10.26-5.01-23.62-2.37-34.1C1981.82,335.46,1982.75,347,1982.49,358.36z"/>
		<path class="st12" d="M1951.67,609.22c-1.58-5.61-0.98-11.25-0.39-16.9C1953.81,597.86,1953.49,603.68,1951.67,609.22z"/>
		<path class="st12" d="M1518.75,806.29c5.92-0.45,11.78-0.12,17.54,1.39C1530.32,808.81,1524.49,808.12,1518.75,806.29z"/>
		<path class="st12" d="M1980.09,322.55c-2.94-3.48-1.28-10.68-0.79-15.3C1980.26,312.31,1980.45,317.41,1980.09,322.55z"/>
		<path class="st12" d="M1978.76,292.59c-1.69-3.75-0.65-7.61-0.51-11.44C1979.98,284.89,1978.89,288.76,1978.76,292.59z"/>
		<path class="st13" d="M1951.89,653.17c-1.68-4.45-1.01-8.77,0.71-13.03C1953.83,643.66,1952.21,648.77,1951.89,653.17z"/>
		<path class="st9" d="M1774.45,817.5c3.02-0.52,6.04-1.12,9.02,0.21C1780.44,818.31,1777.42,819.18,1774.45,817.5z"/>
		<path class="st12" d="M1544.29,808.03c2.47-0.36,4.97-1.18,7.32,0.43C1549.12,809.27,1546.64,809.73,1544.29,808.03z"/>
		<path class="st12" d="M1569.9,809.67c2.46-0.32,4.95-1.09,7.29,0.46C1574.69,811.05,1572.16,812.48,1569.9,809.67z"/>
		<path class="st12" d="M1493.96,804.75c1.92-0.69,3.83-1.08,5.65,0.28C1497.67,806.04,1495.79,805.96,1493.96,804.75z"/>
		<path class="st12" d="M1469.23,803.12c2.04-1.18,3.97-0.45,5.88,0.37C1473.09,804.33,1471.12,804.31,1469.23,803.12z"/>
		<path class="st13" d="M1948.88,617.25c-0.4-1.54-0.21-3.34,1.72-3.45C1950.98,615.63,1951.18,618.03,1948.88,617.25z"/>
		<path class="st12" d="M1735.88,816.91c0.76-0.01,1.53-0.02,2.29-0.04C1738.15,818.61,1735.94,818.67,1735.88,816.91z"/>
		<path class="st12" d="M1559.64,808.91c1.11-0.51,2.17-0.68,3.06,0.42C1561.54,810.26,1560.56,809.83,1559.64,808.91z"/>
		<path class="st12" d="M1423.86,803.97c-0.4,0.22,0.86,1.23,0.2,1.89C1422.74,806.24,1423.42,804.49,1423.86,803.97z"/>
		<path class="st12" d="M1953.08,644.67c-0.8-0.84-0.82-1.66,0.05-2.47C1953.55,643.04,1953.61,643.86,1953.08,644.67z"/>
		<path class="st12" d="M1805.26,818.17c1.12-0.51,2.24-0.51,3.38-0.05C1807.53,820.08,1806.41,820.02,1805.26,818.17z"/>
		<path class="st12" d="M1983.24,361.78c-0.88-0.4-1.42-0.88-0.42-1.74C1983.43,360.51,1983.61,361.08,1983.24,361.78z"/>
		<path class="st12" d="M1950.88,615.15c-0.44-1.04-0.12-2.89,1.37-2.6C1952.73,613.54,1951.92,614.55,1950.88,615.15z"/>
		<path class="st12" d="M1977.87,278.1c-0.81-0.43-1-0.95-0.2-1.58C1978.25,276.98,1978.37,277.5,1977.87,278.1z"/>
		<path class="st12" d="M1977.04,272.13c-0.83-0.46-0.93-0.98-0.16-1.6C1977.41,271.02,1977.52,271.55,1977.04,272.13z"/>
		<path class="st12" d="M1508.48,805.56c0.83-0.45,1.6-0.59,2.22,0.34C1509.81,806.77,1509.12,806.32,1508.48,805.56z"/>
		<path class="st12" d="M1827.78-2.05c-0.61,0.86-1.13,0.71-1.6-0.14C1826.77-2.74,1827.3-2.7,1827.78-2.05z"/>
		<path class="st12" d="M1829.43,817.91c1.31-0.25,2.32-0.03,1.16,1.14C1829.78,819.28,1829.59,818.54,1829.43,817.91z"/>
		<path class="st12" d="M1822.69-2.18c-0.47,0.82-1,0.95-1.6,0.12C1821.58-2.69,1822.12-2.71,1822.69-2.18z"/>
		<path class="st12" d="M1745.89,817.05c0.63-0.01,1.26-0.02,1.89-0.03C1747.06,818.29,1746.66,818.29,1745.89,817.05z"/>
		<path class="st12" d="M1982.8,370.13c-0.92-0.9-0.42-1.37,0.52-1.7C1983.51,369.11,1983.33,369.67,1982.8,370.13z"/>
		<path class="st12" d="M1952.31,614.03c1.22,0.59,0.91,1.41,0.5,2.51C1951.98,615.64,1952.3,614.5,1952.31,614.03z"/>
		<path class="st12" d="M1951.92,609.65c1.2-1.09,1.46-0.2,0.96,0.79C1952.34,610.75,1951.91,610.33,1951.92,609.65z"/>
		<path class="st12" d="M1490.29,117.29c-0.26,0.21-0.52,0.41-0.78,0.62C1489.77,117.7,1490.03,117.5,1490.29,117.29z"/>
		<linearGradient id="SVGID_10_" gradientUnits="userSpaceOnUse" x1="1562.0168" y1="237.7738" x2="1680.8433" y2="237.7738">
			<stop  offset="0" style="stop-color:#833AB4"/>
			<stop  offset="0.5" style="stop-color:#FD1D1D"/>
			<stop  offset="1" style="stop-color:#FCB045"/>
		</linearGradient>
		<path class="st14" d="M1574.77,219.44c17.96-9.44,40.83-57.69,59.69-39.7c10.23,21.4,58.53,43.43,43.51,67.54
			c-19.81,11.9-47.82,72.88-68.27,45.53C1594.08,270.34,1536.85,244.83,1574.77,219.44z M1611.53,270.63
			c1.3-18.95,5.43-49.79-0.11-67.81c-8.57,5.8-6.47,26.83-5.65,36.4C1605.09,245.74,1599.74,276.21,1611.53,270.63z M1638.68,208.22
			c-12.41-21.14-9.63,52.62-8.08,61.98C1646.5,272.84,1634.22,223.04,1638.68,208.22z"/>
		<path class="st10" d="M1573.95,115.6c49.82-7,109.23-3.09,157.9,13.62C1679.95,117.39,1626.91,117.53,1573.95,115.6z"/>
		<path class="st13" d="M1614,298.45c24.19,8.68,43.81-38.36,63.97-51.16c15.05-24.16-33.31-46.09-43.5-67.54
			c-6.32-8.35,5.5,1.36,6.48,5.22c10.26,16.72,52.71,39.69,41.14,62.37C1668.49,256.92,1625.24,322.41,1614,298.45z"/>
		<path class="st10" d="M1798.22,168.7c-12.17-5.05-8.66,18.45-13.09,5.17c-5.25,0.26-9.26,27.94-16.74,16.76
			c-1.93-7.33,5.06-7.83,2.06-15.22c4.33-8.1,15.33-23.45,23.77-17.27c3.64-3.68,5.35,6.02,2.95,6.83
			C1792.92,166.92,1795.97,167.26,1798.22,168.7z"/>
		<path class="st9" d="M1471.77,424.32c-25.38,0.81-85.79-9.16-29.83-3.41c3.5-6.22-4.93-1.23-6.02-4.16
			C1436.24,399.17,1461.56,425.3,1471.77,424.32z"/>
		<path class="st9" d="M1402.77,425.31c23.83-3.14,48.08,0.28,72.05,2.54C1452.45,425.33,1420.29,430.16,1402.77,425.31z"/>
		<path class="st10" d="M1793.99,140.64c-2.19,0.25-1.98-2.28-1.93-3.64c0.56-2-5.49-1.69-1.91-3.47
			C1805.94,126.35,1806.83,138.55,1793.99,140.64z"/>
		<path class="st13" d="M1561.03,244.81c8.82,5.18,16.6,15.91,23.4,23.89C1575.6,263.88,1566.85,252.82,1561.03,244.81z"/>
		<path class="st15" d="M1402.77,425.31c-5.48,16.35-0.36-10.87-3.15-17.81C1402.49,410.88,1406.33,421.53,1402.77,425.31z"/>
		<path class="st10" d="M1738.83,132.62c7.56-5.74,14.73-1.17,22.04,0.53C1753.46,135.85,1746.24,132.03,1738.83,132.62z"/>
		<path class="st13" d="M1574.77,219.44c-5.5,7-17.26,12.42-14.74,22.83C1552.8,233.63,1567.71,220.17,1574.77,219.44z"/>
		<path class="st13" d="M1674.83,527.46c7.21,1.4,18.88-3.04,24.57,1.17C1692.96,529.22,1681.21,531.68,1674.83,527.46z"/>
		<path class="st13" d="M1591.81,276.23c7.25,5.1,14.67,12.49,19.91,19.71C1603.98,291.92,1595.88,283.73,1591.81,276.23z"/>
		<path class="st10" d="M1476.98,135.88c-7.78,2.74-14.62,5.93-21.49,10.52C1457.45,141.12,1472.95,133.49,1476.98,135.88z"/>
		<path class="st13" d="M1672.21,528.44c-5.5-1.16-16.8,2.4-19.32-1.52C1658.49,528.13,1669.28,525.31,1672.21,528.44z"/>
		<path class="st13" d="M1584.98,269.31c3.19,1.47,4.9,4.38,6.86,7.04C1587.74,275.77,1585.13,273.74,1584.98,269.31z"/>
		<path class="st13" d="M1678.28,540c2.14-1.52,3.52-0.12,6.18,0.6C1681.35,541.93,1679.97,540.19,1678.28,540z"/>
		<path class="st13" d="M1616.29,404.6c1.88-0.12,2.11,2.69,0.25,2.85C1614.67,407.65,1614.42,404.8,1616.29,404.6z"/>
		<path class="st13" d="M1769.86,353.99c-0.51,2.77-2.3,1.41-4.28,1.59C1766.92,353.36,1768.72,354.26,1769.86,353.99z"/>
		<path class="st13" d="M1468.26,410.72c1.97-0.83,3.72,0.66,2.37,1.74C1469.46,412.56,1469.17,411.54,1468.26,410.72z"/>
		<path class="st13" d="M1684.4,545.07c0.75-0.7,2.13-0.67,1.72,0.58C1685.42,546.62,1685.14,546.14,1684.4,545.07z"/>
		<path class="st13" d="M1626.63,173.41c-0.84,0.03-1.68,0.07-2.52,0.1C1624.91,172.28,1625.74,172.04,1626.63,173.41z"/>
		<path class="st13" d="M1441.59,162.99c0.25-0.37,0.36-1.42,0.77-0.82C1442.13,162.41,1441.89,163.3,1441.59,162.99z"/>
		<path class="st13" d="M1613.13,297.54c0.54,0.08,0.91,0.33,0.93,0.93C1613.34,298.57,1613.04,298.25,1613.13,297.54z"/>
		<path class="st13" d="M1636.88,294.33c0.11,0.12,0.23,0.24,0.34,0.36C1636.99,294.71,1636.93,294.53,1636.88,294.33z"/>
		<path class="st13" d="M1612.24,296.46c0.52,0.25,0.9,0.61,0.86,1.25C1612.4,297.58,1612.29,297.04,1612.24,296.46z"/>
		<path class="st9" d="M1716.86,753.87c-49.21,8.46-29.92-21.83-35.65-55.77c14.85-9.09,46.4-4.97,66.76-9.08
			c9.01,12.66-0.41,39.05,3.52,55.95C1757.02,761.53,1725.66,750.68,1716.86,753.87z M1732.23,724.94
			c-1.31-7.56,3.15-16.88-0.31-21.62c-4.7,3.46,1.84,21.54-8.62,19.67c-1.1-1.36-0.79-5.07,1.45-3.09c8.84-7.5-7.14-10.47-5.43,1.25
			c0,6.19,7.66,5.77,9.87,1.16c3.03,3.21,1.46,6.71-3.43,5.46c-10.05,4.02-12-14.25-5.46-15.86c1.78-1.95-2.36-0.58-2.27-2.43
			c7.67-1.44-0.54-9.07-2.79-2.26c-3.21,3.5-1.04,5.93-1.02,10.28c-2.61,9.16-3.43,3.03-4.76-1.6c-7.44,6.67,0.18-11.41-8.94,5.51
			c-4.81-7.81,6.95-14.17-3.47-11.56c-5.38,4.02,6.38,18.65-6.13,17.51c10.26,2.42,54.32,4.74,54.14,0.71
			c-4.27-0.52-13.82,2.62-9.16-4.67C1740.34,712.2,1736.57,717.13,1732.23,724.94z"/>
		<path class="st9" d="M1851.73,198.84c5.91-0.93-2.68-5.24,1.25-7.86c6.98,1.95,1.53-0.84,5.22-5.97c0.41-2.71-4.67,0.36-5.26-2.8
			c-6.32-5.78,6.2,1.62,3.44-4.4c-3.21-4.34-9.18-4.13-9.66-10.16c-2.92-1.73-1.2-7.75-4.77-6.89
			c-10.51-22.02,18.89,6.81,21.17,14.59c4.78,16.49,22.48,41.53,16.82,55.41c-3.97,6.19,2.41,18.68-2.13,24.66
			c-6.93,4.18,3.95,10-1.3,11.56c-6.73-1-11.66-76.95-24.83-62.42C1863.58,283.62,1843.64,232.76,1851.73,198.84z"/>
		<path class="st9" d="M1818.46,777.73c21.71-23.19,12.18-54.54,6.86-80.48c8.61-13.56,1.89-28.41,5.67-41.53
			c2.08-1.79,6.42-12.72,0.84-8.62c-1.3,0.87-1.65,3.92-4.21,1.98c-4.27-4.44-0.93-14.04,2.14-18.99c3.92-3.87-2.93-3.84-1.47-7.3
			c1.45-3.9,6.02,2.54,5.55-2.93c5.7-5.69,3.5,15.9,4.2,19.5C1845.61,666,1842.17,771.36,1818.46,777.73z"/>
		<path class="st9" d="M1670.11,581.65c2.1-15.03,14.54-23.21,30.16-17.49c-21.63,1.93,0.92-0.88-6.58,9.23
			c0.57,5.74,0.73,5.79-3.51,2.68c-4.69,2.53,5.56,4.75,5.29,7.15c-0.46,1.44-1.98,0.78-2.77,0.09c-7.11-0.67-3.56,4.75,2.26,4.32
			c-5.19,1.43-8.88,9.24-8.68,12.66c3.37,1.39,0.38,5.94-2.6,5.06c-5.48,0.14,2.02,14.74-10.15,11.77
			c-1.55-1.22,1.92-1.83-0.07-3.59c-1.06-0.08-2.38,2.85-4.77,0.21c-4.25-3,1.74-7.49-5.33-8.2c2.87-0.49,7.07-4.46,4.62-6.9
			c-3.42-2.82,5.83-6.99-0.84-10.29c-1.55-1.28,1.83-8.83,4.01-5.42C1672.02,582.25,1670.76,581.57,1670.11,581.65z"/>
		<path class="st9" d="M1834.48,463.32c1.77,1.27,0.61,2.96,1.52,4.38c16.47-14.74,11.26,19.89,7.56,29.12
			c-4.26,14.29,0.72,34.33-9.7,45c-4.84-2.64,1.11-12.37-0.09-17.71c2.06-6.93-0.3-14.93,2.71-22.78
			c-3.51-10.63,4.26-23.77-3.45-31.58C1831.58,468.03,1834.16,465.61,1834.48,463.32z"/>
		<path class="st9" d="M1871.05,745.16c-9.28-69.05-5.68-142.1-5.19-212.37C1867.82,604.12,1866.11,674.17,1871.05,745.16z"/>
		<path class="st9" d="M1877.39,374.18c-8.29-4.1,13.34-7.77,3.93-11.36c15.05-3.92-7.81,22.64-6.94,30.24
			c-0.03,3.36-2.51,7.23-2.73,10.4c9.4,4.81,0.66,18.04-3.68,24.04c-5.11,1.57-1.01-11.5,1.37-13.95
			C1873.45,402.43,1862.17,379.7,1877.39,374.18z"/>
		<path class="st9" d="M1861.92,249.68c-8.9,20.05,5.18,48.98-1.36,72.52C1863.16,304.42,1846.32,253.26,1861.92,249.68z"/>
		<path class="st9" d="M1846.18,540.95c-4.27,5.9-14.24,7.06-10.43,15.98C1830.64,590.27,1821.44,541.57,1846.18,540.95z"/>
		<path class="st9" d="M1757.93,435.61c20.41,0.75,40.82,1.5,61.23,2.25C1799.7,437.02,1774.73,441.38,1757.93,435.61z"/>
		<path class="st9" d="M1657.77,695.54c6.11,3.62,22.68-3.16,10.63-4.4c-2.52,1.99-5.5-2.1-4.41-3.83c0.97-1.01,1.86-0.47,2.45,0.45
			c3.52,2.87,9.04-0.22,9.33,6.14C1677.49,700.33,1662.34,701,1657.77,695.54z"/>
		<path class="st9" d="M1643.62,406.98c-4.31-13,9.95,0.22,13.26,3.32c-1.14,2.51-3.44-1.41-5.03,0.5c-3.54,1.44-1.89-2.46-3.1-3.7
			C1646.74,407.02,1642.03,413.52,1643.62,406.98z"/>
		<path class="st9" d="M1642.51,684.37c0.32-13.21,8.2,3.95-4.26,7.75c-3.58,1.82-4.82-3.32-0.83-2.2
			C1641.12,689.34,1641.21,685.89,1642.51,684.37z"/>
		<path class="st9" d="M1688.42,690.95c-4.24-0.89-10.55,2.14-11.21-3.51C1680.12,685.31,1685.03,688.03,1688.42,690.95z"/>
		<path class="st12" d="M1828.95,443.98c-4.76-0.73-12.75,1.45-15.9-0.83C1817.8,443.88,1825.81,441.69,1828.95,443.98z"/>
		<path class="st9" d="M1850.36,457.37c-1.68,4.62-4.38-9.33-2.91-10.03C1851.28,449.02,1849.12,454.2,1850.36,457.37z"/>
		<path class="st12" d="M1652.56,564.47c-6.01,1.94-12.06,1.2-18.13,0C1640.47,564.47,1646.51,564.47,1652.56,564.47z"/>
		<path class="st12" d="M1495.87,416.13c-4.3-0.35-8.46,3.64-10.76-3.61C1488.49,414.9,1492.14,413.2,1495.87,416.13z"/>
		<path class="st9" d="M1647.98,717.69c-2.64-3.64,1.45-8.9,4.86-5.41C1652.64,714.89,1648.44,714.59,1647.98,717.69z"/>
		<path class="st12" d="M1517.21,779.96c-5.3,0-9.86,0-14.92,0C1505.58,778.05,1508.35,778.08,1517.21,779.96z"/>
		<path class="st9" d="M1833.3,458.53c-0.78-2.82,2.47-7.73,4.39-5.76C1837.3,455.28,1835.54,456.85,1833.3,458.53z"/>
		<path class="st9" d="M1647.46,413.65c-2.12,1.06-3.78,3.67-6.89,2.03C1642.3,412.91,1644.55,412.3,1647.46,413.65z"/>
		<path class="st9" d="M1632.75,691.04c0.73,2.8-4.02,4.51-4.18,1.71C1629.2,690.7,1631.48,692.22,1632.75,691.04z"/>
		<path class="st12" d="M1583.81,406.78c-2.39,3.05-2.39,3.05-5.34-0.11C1580.34,406.43,1581.81,406.33,1583.81,406.78z"/>
		<path class="st9" d="M1666.92,405.16c1.38,2.33-1.46,5.47-3.17,4.43C1662.55,407.67,1666.06,406.93,1666.92,405.16z"/>
		<path class="st15" d="M1418.21,565.99c-0.61-1.94,1.37-8.5,3.51-5.1C1421.22,562.45,1421.79,568.71,1418.21,565.99z"/>
		<path class="st12" d="M1547.64,407.85c-2.38-0.97-4.22-0.52-5.01-2.38C1543.5,402.53,1546.42,405.5,1547.64,407.85z"/>
		<path class="st9" d="M1629.06,682.12c2.01-1.42,6.22-0.48,4.43,1.61C1631.87,684.3,1630.67,683.5,1629.06,682.12z"/>
		<path class="st12" d="M1670.75,409.75c1.61,0.07,1.01,2.47-0.2,2.7C1668.73,412.83,1669.29,409.88,1670.75,409.75z"/>
		<path class="st9" d="M1680.51,724.84c-1.41-1.55-1.02-2.65-0.3-4.32C1681.53,722.19,1681.21,723.29,1680.51,724.84z"/>
		<path class="st12" d="M1659.55,412.1c1.31,0,1.45,2.34,0.07,2.08C1658.52,413.88,1657.93,412.12,1659.55,412.1z"/>
		<path class="st12" d="M1602.76,725.73c1.62-0.44,3.46,2.42,1.12,2.38C1602.49,727.85,1602.93,726.46,1602.76,725.73z"/>
		<path class="st12" d="M1531.99,564.65c1.59-0.23,1.58,1.85,0,1.59C1530.4,566.52,1530.4,564.41,1531.99,564.65z"/>
		<path class="st12" d="M1639.98,407.58c-0.48-0.01-1.07-0.08-1.08-0.82C1638.99,404.2,1642.49,407.06,1639.98,407.58z"/>
		<path class="st12" d="M1851.71,198.86c-1.19,0.37-3.29-1.92-1.44-2.16C1851.37,196.94,1851.75,197.87,1851.71,198.86z"/>
		<path class="st12" d="M1664.15,414.41c-0.76-0.71-1.11-2.14,0.22-1.98C1665.1,412.96,1664.86,413.71,1664.15,414.41z"/>
		<path class="st12" d="M1644.16,398.21c-1.44,0.86-2.76,1.43-2.52-0.19C1642.39,397.34,1643.05,397.74,1644.16,398.21z"/>
		<path class="st12" d="M1669.15,578.66c-0.5,2.51-2.45-1.16-0.55-0.85C1668.88,577.95,1669.01,578.43,1669.15,578.66z"/>
		<path class="st12" d="M1723.84,413.13c-0.38,1.24-1.7,1.32-1.54,0.01C1722.63,412.18,1723.26,412.33,1723.84,413.13z"/>
		<path class="st12" d="M1782.14,320.14c0.17-0.72,0.41-0.82,1.01-0.4C1782.99,320.47,1782.75,320.56,1782.14,320.14z"/>
		<path class="st12" d="M1658.72,655.57c-0.1,0.66-0.57,0.91-0.97,0.38C1657.72,655.32,1658.21,655.21,1658.72,655.57z"/>
		<path class="st12" d="M1736.67,409.71c0.69,0.54,0.17,0.75-0.35,1.05C1735.98,410.21,1736.02,409.94,1736.67,409.71z"/>
		<path class="st12" d="M1827.89,172.39c0.32,0.41,0.3,0.44-0.09,0.09C1827.8,172.48,1827.89,172.39,1827.89,172.39z"/>
		<path class="st12" d="M1818.48,777.71c-0.12-0.11-0.57-0.44-0.16-0.27C1818.4,777.49,1818.41,777.75,1818.48,777.71z"/>
		<path class="st15" d="M1415.66,553.05c0.32-0.19,0.77-0.62,0.94-0.53C1417.75,553.63,1416.5,554.14,1415.66,553.05z"/>
		<path class="st15" d="M1926.29,363.9c-7.77,38.88,17.2,74.99,3.06,109.83c6-25.44-1.96-51.77-5.16-78.03
			c-2.2-62.88,13.61-125.82,2.49-188.27C1939.39,232.42,1927.17,320.79,1926.29,363.9z"/>
		<path class="st15" d="M1927.03,489.5c4.28-30.52,4.74,41.34,8.98,56.3C1932.91,528.21,1927.24,508.15,1927.03,489.5z"/>
		<path class="st15" d="M1945.93,582.78c1.01-4.36-0.72-8.91,0.98-14.23C1952.43,577.17,1947.7,603.01,1945.93,582.78z"/>
		<path class="st15" d="M1947.21,761.7c-0.77-6.05-2.81-16.6,0.34-20.72C1952.82,743.99,1947.69,755.97,1947.21,761.7z"/>
		<path class="st9" d="M1900.8,151.87c2.55,2.19,5.39,8.27,1.28,10.01C1897.42,160.82,1900.83,155.1,1900.8,151.87z"/>
		<path class="st13" d="M1716.14,10.41c-5.64-7.73,8.64-14.18,1.26-5.69C1715.28,5.98,1720.64,9.66,1716.14,10.41z"/>
		<path class="st15" d="M1939.87,761.23c-1.57,4.42-1.16,9.21-4.04,13.02C1937.61,770,1936.71,762.03,1939.87,761.23z"/>
		<path class="st15" d="M1942.59,749.78c0.12,3.05-0.92,5.88-2.22,8.64C1940.15,755.35,1941.32,752.58,1942.59,749.78z"/>
		<path class="st13" d="M1945.67,582.88c0.81,1.2,0.82,2.52,0.62,3.88C1943.64,585.85,1944.7,584.36,1945.67,582.88z"/>
		<path class="st13" d="M1904.56,735.96c1.32-0.14,2.26,1.63,0.75,2.07C1904.3,737.67,1904.78,736.48,1904.56,735.96z"/>
		<path class="st15" d="M1948.88,617.25c2.53-0.46,1.8,2.15-0.08,1.59C1947.64,618.51,1949.01,617.82,1948.88,617.25z"/>
		<path class="st15" d="M1949.75,622.78c-0.29-0.21-0.25-0.23,0.07-0.33C1949.82,622.45,1949.75,622.78,1949.75,622.78z"/>
		<path class="st15" d="M1950.88,718.1c1.26,2.4,0.98,3.27-0.01,4.11C1949.66,720.85,1950.97,720.05,1950.88,718.1z"/>
		<path class="st15" d="M1407.6,779.38c-3.41-1.15-5.37-3.67-7.38-9.7c2.67,0.28,5.63-0.6,4.41,4.13
			C1404.18,775.73,1408.12,777.02,1407.6,779.38z"/>
		<path class="st13" d="M1494.45,560.78c-7.39,0.81-14.68,0.32-21.85-1.87C1479.95,558.72,1487.22,559.44,1494.45,560.78z"/>
		<path class="st13" d="M1469.8,559.46c-2.75,0.19-5.28-1.52-8.06-1.08C1464.62,557.27,1467.43,556.52,1469.8,559.46z"/>
		<path class="st13" d="M1557,748.01c0.55-1.53,3.36-2.4,3.34-0.26C1559.44,748.96,1558.34,749.03,1557,748.01z"/>
		<path class="st13" d="M1551.61,745.98c-0.68,0.74-1.29,0.73-1.53-0.21C1550.09,744.44,1551.39,744.69,1551.61,745.98z"/>
		<path class="st13" d="M1550.23,740.19c1.25,0.38,1.33,1.72,0.01,1.55C1549.27,741.4,1549.42,740.77,1550.23,740.19z"/>
		<path class="st13" d="M1524.11,743.95c0.71,0.17,0.82,0.4,0.4,1.01C1523.79,744.8,1523.69,744.56,1524.11,743.95z"/>
		<path class="st13" d="M1469.77,559.48c0.12,0.11,0.57,0.43,0.16,0.26C1469.86,559.7,1469.84,559.42,1469.77,559.48z"/>
		<path class="st15" d="M1407.52,779.45c0.97,0.17,0.12,0.87,0.08-0.07C1407.6,779.38,1407.52,779.45,1407.52,779.45z"/>
		<path class="st9" d="M1932.73,24.5c9.36,17.63-12.75,2.7-6.53-4.97C1931.26,20.07,1925.46,31.26,1932.73,24.5z"/>
		<path class="st15" d="M1978.14,434.14c2.49,10.83-1.51,20.44-1.73,4.04c1.9-4.47-5.38-10.03-2.21-13.38
			C1976,425.63,1976.66,431.72,1978.14,434.14z"/>
		<path class="st15" d="M1975.33,449.43c0.24,2.18-0.03,4.25-1.17,6.47C1973.49,453.7,1973.95,449.99,1975.33,449.43z"/>
		<path class="st12" d="M1926.28,352.4c-1.15-1.07-0.28-1.85,0.39-2.65C1927.74,350.81,1927.63,351.69,1926.28,352.4z"/>
		<path class="st12" d="M1976.41,438.18c1.14,0.29,1.87,0.75,0.78,1.93C1976.38,439.69,1976.32,438.96,1976.41,438.18z"/>
		<path class="st12" d="M1920.69,190.57c-0.39,0.41-0.5-0.07-0.62-0.45C1920.39,189.67,1920.53,190.23,1920.69,190.57z"/>
		<path class="st12" d="M1927.02,347.2c-0.53-0.78-0.48-1.46,0.35-2.01C1927.72,345.95,1927.73,346.64,1927.02,347.2z"/>
		<path class="st12" d="M1925.68,372.72c-0.3-0.59-0.22-1.15,0.18-1.66C1926.72,371.71,1926.59,372.25,1925.68,372.72z"/>
		<path class="st15" d="M1976.19,447.72c0.12,0.82,0.14,1.59-0.92,1.81C1975,448.63,1975.27,448.01,1976.19,447.72z"/>
		<path class="st12" d="M1926.29,357.95c-0.69-0.65-0.72-1.28,0.07-1.88C1926.33,356.7,1926.31,357.32,1926.29,357.95z"/>
		<path class="st12" d="M1927.39,205.96c-0.69-0.43-0.88-0.95-0.29-1.61C1927.19,204.88,1927.29,205.42,1927.39,205.96z"/>
		<path class="st12" d="M1926.29,363.9c-0.57-0.64-0.65-1.26,0.03-1.88C1926.31,362.65,1926.3,363.27,1926.29,363.9z"/>
		<path class="st9" d="M1637.3,269.1c-1.54,3.18-6.44,0.26-5.44-4.67c1.14-19.1-2.43-41.67,3.61-59.11
			C1643.61,220.23,1635.18,253.63,1637.3,269.1z"/>
		<path class="st9" d="M1604.67,245.75c-0.28-1.56-1.01-3.17,0.83-4.39c1.43-2.49-2.78-5.4-0.16-8.52c6.58-5.42-0.58-20.73,6.18-27
			c4.2,19.1,0.75,48-2.03,65.62C1602.76,266.69,1610.92,246.33,1604.67,245.75z"/>
		<path class="st9" d="M1638.68,208.22c-8.33-14.19-11.62,66.29-1.45,61.95C1622.05,288.06,1629.64,178.12,1638.68,208.22z"/>
		<path class="st13" d="M1613.71,215.86c-2.06-22.13-7.17,3.61-5.81,12.8c-4.81,11.87-1.7-16.97-0.59-21.86
			C1612.27,195.59,1616.02,210.18,1613.71,215.86z"/>
		<path class="st13" d="M1604.67,245.75c5.8,0.87-0.97,19.3,4.06,25.5C1599.67,268.13,1606.78,251.41,1604.67,245.75z"/>
		<path class="st13" d="M1611.46,270.69c1.24-9.4-2.73-22.29,1.42-30.03C1611.63,250.07,1615.62,262.93,1611.46,270.69z"/>
		<path class="st13" d="M1609.49,271.46c0.51-0.69,1.05-1.31,2.04-0.83C1611.24,271.87,1611.08,273.43,1609.49,271.46z"/>
		<path class="st12" d="M1604.52,249.19c0.44,0.21,1.2,0.36,1.25,0.63C1605.54,251.61,1603.99,250.62,1604.52,249.19z"/>
		<path class="st13" d="M1637.3,269.1c-0.46-0.25-0.93-0.49-1.39-0.74C1636.98,268.01,1637.64,267.67,1637.3,269.1z"/>
		<path class="st12" d="M1678.78,224.57c-0.16,0.15-0.44,0.46-0.47,0.44C1677.71,224.58,1678.57,224.06,1678.78,224.57z"/>
		<path class="st15" d="M1732.23,724.94c4.28-7.84,8.16-12.72,3.66-1.53c-4.66,7.28,4.9,4.15,9.15,4.66
			c2.19,3.86-45.31,1.83-54.13-0.7c12.53,1.13,0.74-13.48,6.12-17.51c10.4-2.62-1.32,3.78,3.48,11.56c9.17-16.99,1.46,1.2,8.93-5.51
			c1.33,4.63,2.14,10.77,4.76,1.6c-0.01-4.34-2.19-6.8,1.03-10.28c2.25-6.79,10.45,0.79,2.79,2.26c-0.09,1.84,4.05,0.49,2.28,2.44
			c-6.54,1.6-4.61,19.88,5.45,15.86c4.94,0.61,5.78-0.57,4.08-5.41c-2.97,3.12-10.01,6.15-10.52-1.22
			c-0.08-15.61,15.93-4.67,3.42-0.83c-0.08,0.89,0,2.16,0.56,2.67c10.46,1.85,3.9-16.18,8.61-19.66
			C1735.39,708.06,1730.92,717.39,1732.23,724.94z M1709.24,727.69c2.36,0.33,6.88-0.83,5.02-3.93c-1.96-0.86-3.73,4.44-5.39,0.2
			C1706.51,719.36,1702.65,729.71,1709.24,727.69z"/>
		<path class="st13" d="M1670.11,581.65c0.66-0.08,1.9,0.59,1.04,1.28C1670.14,583.03,1670.28,582.09,1670.11,581.65z"/>
		<path class="st9" d="M1709.24,727.69c-6.59,2.02-2.73-8.33-0.37-3.72c1.67,4.24,3.42-1.06,5.39-0.2
			C1716.12,726.86,1711.6,728.02,1709.24,727.69z"/>
	</g>
</g>
<g>
</g>
<g>
</g>
<g>
</g>
<g>
</g>
<g>
</g>
<g>
</g>
</svg>
