<?xml version="1.0" encoding="utf-8"?>
<!-- Generator: Adobe Illustrator 25.2.0, SVG Export Plug-In . SVG Version: 6.00 Build 0)  -->
<svg version="1.1" xmlns="http://www.w3.org/2000/svg" xmlns:xlink="http://www.w3.org/1999/xlink" x="0px" y="0px"
	 viewBox="0 0 1900 500" style="enable-background:new 0 0 1900 500;" xml:space="preserve">
<style type="text/css">
	.st0{fill:#262626;}
	.st1{fill:url(#SVGID_1_);}
	.st2{clip-path:url(#SVGID_3_);fill:#262626;}
	.st3{clip-path:url(#SVGID_3_);fill:#3F3F46;}
	.st4{clip-path:url(#SVGID_3_);fill:url(#SVGID_4_);}
	.st5{clip-path:url(#SVGID_3_);fill:#FEFEFE;}
	.st6{clip-path:url(#SVGID_3_);fill:#049AC6;}
	.st7{clip-path:url(#SVGID_3_);fill:#030709;}
	.st8{clip-path:url(#SVGID_6_);}
	.st9{fill:#404040;}
</style>
<g id="bg1">
	<polygon class="st0" points="950,500 0,500 0,0 475,0 	"/>
</g>
<g id="bg2">
	<linearGradient id="SVGID_1_" gradientUnits="userSpaceOnUse" x1="475" y1="250" x2="1900" y2="250">
		<stop  offset="0" style="stop-color:#833AB4"/>
		<stop  offset="0.5" style="stop-color:#FD1D1D"/>
		<stop  offset="1" style="stop-color:#FCB045"/>
	</linearGradient>
	<polygon class="st1" points="950,500 1900,500 1900,0 475,0 	"/>
</g>
<g id="Gudang">
	<g>
		<path class="st0" d="M772.75,210.6h-38.18c-12.4,0-23.63-4.87-31.8-12.75h0c-8.29-7.99-13.43-19.09-13.43-31.37
			s5.14-23.37,13.43-31.37h0c8.17-7.89,19.4-12.75,31.8-12.75h38.01v12.75h-42.49c-15.96,2.12-28.29,15.38-28.29,31.37
			s12.33,29.25,28.29,31.37h29.9v-28.1h-25.2l-5.89-12.75h43.84V210.6z"/>
		<path class="st0" d="M865.76,122.14v56.26c0,6.69-2.43,13.19-6.98,18.08c-1.76,1.9-3.69,3.64-5.77,5.2
			c-7.41,5.6-16.64,8.92-26.65,8.92c-10.02,0-19.27-3.33-26.69-8.95c-2.08-1.58-4.03-3.34-5.8-5.25c-4.53-4.9-6.96-11.38-6.96-18.05
			v-56.21h12.75v48.83c0,14.4,11.33,26.43,25.71,26.86c0.33,0.01,0.65,0.02,0.98,0.02c0.31,0,0.62,0,0.93-0.01
			c14.39-0.42,25.72-12.47,25.72-26.86v-48.83H865.76z"/>
		<path class="st0" d="M958.13,166.56c0,2.21-0.16,4.38-0.48,6.5c-2.89,19.66-18.67,35.13-38.48,37.54H878.5v-69.25h12.75v56.5
			h27.07c13.14-1.9,23.68-11.91,26.38-24.78c0.44-2.1,0.67-4.28,0.67-6.5c0-2.14-0.21-4.23-0.62-6.25
			c-1.55-7.7-5.9-14.39-11.94-18.96c-4.96-3.76-11.05-6.09-17.67-6.38H878.5v-12.8h35.77l0,0.02c22.16,0.25,40.41,16.73,43.42,38.12
			C957.98,162.35,958.13,164.44,958.13,166.56z"/>
		<path class="st0" d="M995.71,144.63l8.38,15.29l-28.05,50.68H959.2L995.71,144.63z M1057.43,210.6h-16.85l-32.27-58.31
			l-8.42-15.22l8.42-15.21l0-0.01l8.43,15.22L1057.43,210.6z"/>
		<path class="st0" d="M1134.53,122.14v88.06l-12.75-12.75l-44.69-44.69v0L1064.33,140v-18.04l57.44,57.44v-57.26H1134.53z
			 M1064.33,149.02l12.75,12.75v48.82h-12.75V149.02z"/>
		<path class="st0" d="M1229.2,210.6h-38.18c-12.4,0-23.63-4.87-31.8-12.75h0c-8.29-7.99-13.43-19.09-13.43-31.37
			s5.14-23.37,13.43-31.37h0c8.17-7.89,19.4-12.75,31.8-12.75h38.01v12.75h-42.49c-15.96,2.12-28.29,15.38-28.29,31.37
			s12.33,29.25,28.29,31.37h29.91v-28.1h-25.2l-5.89-12.75h43.84V210.6z"/>
	</g>
</g>
<g id="Reseller">
	<g>
		<path class="st0" d="M833.18,289.4h-9.89l-16.86-27.65l-0.46-0.76c-0.03,0.01-0.07,0.02-0.1,0.03c-0.15,0.04-0.3,0.08-0.45,0.12
			c-0.05,0.01-0.1,0.03-0.15,0.04c-0.22,0.06-0.44,0.11-0.66,0.16c-0.5,0.12-1,0.22-1.51,0.3c-0.14,0.03-0.29,0.05-0.43,0.07
			c-0.08,0.01-0.15,0.03-0.23,0.04c-0.19,0.03-0.38,0.06-0.57,0.08c-0.08,0.01-0.16,0.02-0.24,0.03c-0.2,0.03-0.4,0.05-0.6,0.07
			c-0.24,0.03-0.49,0.05-0.73,0.07c-0.01,0-0.01,0-0.02,0c-0.23,0.02-0.45,0.03-0.68,0.04c-0.04,0-0.08,0.01-0.12,0.01
			c-0.16,0.01-0.33,0.01-0.5,0.02c-0.1,0-0.21,0.01-0.31,0.01c-0.2,0-0.4,0.01-0.6,0.01h-10.88v27.33h-8.44v-58.68h48.53
			c0.05,0.68,0.07,1.37,0.07,2.07c0,2.19-0.24,4.32-0.7,6.37c-1.24,5.6-4.08,10.59-8.02,14.48c-0.37,0.36-0.74,0.71-1.13,1.05
			c-0.13,0.12-0.26,0.23-0.39,0.34c-0.02,0.01-0.03,0.03-0.05,0.04c-0.17,0.14-0.34,0.29-0.51,0.43c-0.12,0.1-0.25,0.2-0.37,0.3
			c-0.09,0.07-0.18,0.14-0.26,0.21c-0.32,0.25-0.65,0.49-0.99,0.73c-0.16,0.11-0.31,0.22-0.48,0.33c-0.01,0.01-0.02,0.01-0.03,0.02
			c-0.15,0.1-0.3,0.2-0.45,0.29c-0.02,0.02-0.05,0.03-0.07,0.05c-0.05,0.04-0.11,0.07-0.17,0.11l1.02,1.67L833.18,289.4z
			 M812.69,247.62c2.42-2.39,4.2-5.28,5.22-8.47h-30.73v14.48h10.88c2.9,0,5.7-0.59,8.28-1.7
			C808.67,250.91,810.83,249.46,812.69,247.62z"/>
		<path class="st0" d="M889.51,230.88v8.44h-51.75v-8.44H889.51z M846.2,280.96h43.31v8.44h-51.75v-45.85h8.44v10.26h37.64v8.44
			H846.2V280.96z"/>
		<path class="st0" d="M944.64,264.35c1.4,2.45,2.2,5.28,2.2,8.3s-0.8,5.86-2.2,8.3c-2.89,5.04-8.32,8.44-14.54,8.44h-18.23
			c-6.23,0-11.67-3.4-14.56-8.44c-1.33-2.33-2.13-5.01-2.21-7.87h8.45c0.24,4.38,3.88,7.87,8.32,7.87h18.23c4.58,0,8.3-3.72,8.3-8.3
			s-3.72-8.3-8.3-8.3h-18.26c-4.71,0-8.97-1.95-12.01-5.08c-0.98-1.01-1.83-2.14-2.53-3.36c-1.4-2.45-2.2-5.28-2.2-8.3
			s0.8-5.86,2.2-8.31c2.89-5.04,8.32-8.44,14.54-8.44h17.79c0.15-0.01,0.29-0.01,0.44-0.01s0.29,0,0.44,0.01
			c6.05,0.15,11.3,3.51,14.13,8.43c0,0,0,0,0.01,0.01c1.33,2.33,2.12,5,2.2,7.86h-8.45c-0.24-4.28-3.71-7.71-8.01-7.86h-18.54
			c-4.58,0-8.31,3.73-8.31,8.31c0,4.3,3.29,7.85,7.48,8.26c0.28-0.01,0.56-0.02,0.85-0.02c0.49,0,0.98,0.02,1.46,0.06h16.77
			C936.32,255.91,941.75,259.3,944.64,264.35z"/>
		<path class="st0" d="M1007.98,230.88v8.44h-51.75v-8.44H1007.98z M964.67,280.96h43.31v8.44h-51.75v-45.85h8.44v10.26h37.64v8.44
			h-37.64V280.96z"/>
		<path class="st0" d="M1062.01,280.96v8.44h-45.53v-58.97h8.44v50.53H1062.01z"/>
		<path class="st0" d="M1115.91,280.96v8.44h-45.53v-58.97h8.44v50.53H1115.91z"/>
		<path class="st0" d="M1177.01,230.88v8.44h-51.75v-8.44H1177.01z M1133.71,280.96h43.31v8.44h-51.75v-45.85h8.44v10.26h37.64v8.44
			h-37.64V280.96z"/>
		<path class="st0" d="M1239.95,289.4h-9.89l-16.86-27.65l-0.46-0.76c-0.03,0.01-0.07,0.02-0.1,0.03c-0.15,0.04-0.3,0.08-0.45,0.12
			c-0.05,0.01-0.1,0.03-0.15,0.04c-0.22,0.06-0.44,0.11-0.66,0.16c-0.5,0.12-1,0.22-1.51,0.3c-0.14,0.03-0.29,0.05-0.43,0.07
			c-0.08,0.01-0.15,0.03-0.23,0.04c-0.19,0.03-0.38,0.06-0.57,0.08c-0.08,0.01-0.16,0.02-0.25,0.03c-0.2,0.03-0.4,0.05-0.6,0.07
			c-0.24,0.03-0.49,0.05-0.73,0.07c-0.01,0-0.01,0-0.02,0c-0.23,0.02-0.45,0.03-0.68,0.04c-0.04,0-0.08,0.01-0.12,0.01
			c-0.16,0.01-0.33,0.01-0.5,0.02c-0.1,0-0.21,0.01-0.31,0.01c-0.2,0-0.4,0.01-0.6,0.01h-10.88v27.33h-8.44v-58.68h48.53
			c0.05,0.68,0.07,1.37,0.07,2.07c0,2.19-0.24,4.32-0.7,6.37c-1.24,5.6-4.08,10.59-8.02,14.48c-0.37,0.36-0.74,0.71-1.13,1.05
			c-0.13,0.12-0.26,0.23-0.39,0.34c-0.02,0.01-0.03,0.03-0.05,0.04c-0.17,0.14-0.34,0.29-0.51,0.43c-0.12,0.1-0.24,0.2-0.37,0.3
			c-0.09,0.07-0.18,0.14-0.26,0.21c-0.32,0.25-0.65,0.49-0.99,0.73c-0.16,0.11-0.32,0.22-0.48,0.33c-0.01,0.01-0.02,0.01-0.03,0.02
			c-0.15,0.1-0.29,0.2-0.45,0.29c-0.02,0.02-0.05,0.03-0.07,0.05c-0.05,0.04-0.11,0.07-0.17,0.11l1.02,1.67L1239.95,289.4z
			 M1219.46,247.62c2.42-2.39,4.2-5.28,5.22-8.47h-30.73v14.48h10.88c2.89,0,5.7-0.59,8.28-1.7
			C1215.44,250.91,1217.6,249.46,1219.46,247.62z"/>
	</g>
</g>
<g id="Produk">
	<g>
		<defs>
			<polygon id="SVGID_2_" points="950,500 1900,500 1900,0 475,0 			"/>
		</defs>
		<clipPath id="SVGID_3_">
			<use xlink:href="#SVGID_2_"  style="overflow:visible;"/>
		</clipPath>
		<path class="st2" d="M1485.83,595.93c-3.87,0.87-7.73,1.94-11.75,1c-4.51-1.05-5.23-2.84-2.67-6.71c1.09-1.65,2.03-3.57,3.54-4.72
			c4.58-3.52,4.82-7.86,3.53-12.99c-3.9-15.53-0.81-31.27-0.92-46.9c-0.16-22.89-0.29-45.77-1.23-68.64
			c-0.24-5.97,3.19-10.58,4.76-15.87c0.51-1.72,2.01-0.83,3.12-0.93c5.33-0.45,8.67-4.99,7.2-10.12c-1.2-4.19-1.36-8.09,0.75-12.15
			c1.31-2.52,1.79-5.46,2.64-8.22c5.71,0.4,11.44,0.67,17.14,1.21c20.1,1.9,40.3,1.53,60.44,2.55c18.31,0.93,36.68,0.63,55.03,0.74
			c32.2,0.2,64.4-0.01,96.6,1.67c19.81,1.03,39.66,0.81,59.52-1.28c9.23-0.97,17.78-3.41,26.33-6.47c3.35-1.2,4.83-3.57,3.86-7.12
			c-0.8-2.97-1.37-6.14-0.54-8.96c1.26-4.27,0.55-8.16,0.16-12.39c-0.32-3.55-2.18-7.07-0.8-10.99c2.73-7.75,2.54-15.9,2.04-24
			c-0.22-3.49-0.41-6.97-0.62-10.46c1.11,0.68,1.54,1.45,1.77,2.27c2.73,9.65,3.37,19.5,3.03,29.49
			c-0.21,6.22,0.51,12.43,1.66,18.57c0.27,6.42-0.61,12.88,0.85,19.26c0-6.34,0-12.69,0-19.03c-0.48-11.09-0.94-22.18-1.44-33.27
			c-0.25-5.5-0.95-10.92-2.91-16.13c-1.2-3.19-2.54-5.65-6.39-6.75c-4.72-1.35-9.38-2.22-14.24-2.17
			c-36.95,0.44-73.89-0.3-110.84-1.02c-16.48-0.32-32.95-1.47-49.44-0.79c-5.82-0.03-11.64-0.06-17.45-0.09
			c-13.45-1.46-26.94-2.02-40.47-1.71c-8.89-0.39-17.79-0.78-26.68-1.16c-5.62-1.05-11.21-0.94-16.79-0.01
			c2.93,1.56,5.9,1.38,8.87,0.86c1.46,0.03,2.92,0.05,4.38,0.08c-0.51,1.18-1.51,0.7-2.35,0.66c-7.67-0.33-15.34-0.68-23.35-1.04
			c2.3-0.77,4.55,0.52,7.6-1.83c-15.5-1.03-29.78-2.94-44.13,0.33c-2.14-0.76-1.71-2.65-1.8-4.25c-0.6-11.9-1.07-23.82-1.8-35.71
			c-0.41-6.82-1.25-13.62-1.85-20.44c-1.28-14.51,2.27-28.27,5.09-42.39c3.08-15.41,8.15-30.09,12.47-45.03
			c4.42-15.29,8.37-31.06,18.79-43.75c13.79-16.79,28.85-32.31,47.38-44.03c0.58-0.16,1.2-0.25,1.73-0.5
			c31.97-15.2,65.99-20.87,101.04-21.67c12.57-0.29,25,0.88,37.23,3.91c13.87,3.44,27.82,6.58,41.59,10.39
			c8.92,2.46,17.63,5.7,26.33,8.9c14.48,5.32,28.74,10.88,39.77,22.6c5.3,5.63,11.13,10.82,16.35,16.55
			c13.06,14.33,28.33,26.77,37.75,44.24c8.16,15.12,16.55,30.18,20.6,47.02c2.88,11.98,7.98,23.18,11.14,35.04
			c2.7,10.11,5.54,20.19,7.09,30.54c0.72,4.82,2.38,9.47,2.77,14.26c0.38,4.71,0.6,9.45,1.98,13.93c2.29,7.42,3.88,14.96,5.16,22.6
			c0.24,1.45,0.62,2.99,2.36,3.54c1.13,5.5,1.08,11.06,0.8,16.64c-2.57,3.7-1.74,8.54-4.08,12.32c-1.53-3.04-1.43-5.84,0.04-9.08
			c3.6-7.96,2.13-16.31-3.39-21.08c0.86,7.24-3.87,12.01-7.01,17.46c0,0-0.03,0.13-0.03,0.13c0.19-0.83,0.14-1.42-0.96-0.97
			l0.09,0.11c0.55-1.23,0.1-2.12-0.98-2.79l0,0c0.52-1.28,0.71-2.7-0.43-3.55c-0.72-0.54-1.49,0.39-1.92,1.16
			c-3.68,1.99-0.55,4.21,0.18,5.85c0.98,2.21,1,3.71-0.27,5.79c-4.12,6.74-8.13,13.56-11.92,20.5c-4.51,8.27-8.92,16.61-13.03,25.08
			c-2.46,5.06-1.18,10.08,2.47,12.77c0.83,0.61,1.34,0.9,1.12-0.53c3.38,0.55,5-1.5,6.21-4.18c5.49-12.2,11.83-23.95,18.34-35.62
			c0.63-1.14,2.24-2.19,1.21-3.92l-0.11-0.21c2.51,0.9,1.24-1.53,1.95-2.21c1.88,3.03,2.87,5.84,0.59,9.44
			c-2.16,3.42-3.51,7.39-4.24,11.46c-0.96,3.59-2.1,7.14-2.84,10.77c-1.21,5.96-2.47,11.89-4.5,17.63l-0.04,0.01
			c0.44,1.12,0.46,2.12-0.81,2.73l-0.04,0.01c0.74,5-1.4,9.49-2.47,14.17c-0.27,1.18-0.89,2.4,0.98,2.83
			c1.6,0.37,1.67-0.91,1.99-1.85c1.27-3.75,2.92-7.44,3.69-11.3c2.56-12.84,7.31-25.08,10.16-37.83c1.65-2.08,0.46-4.67,1.25-6.93
			c0.81,2.54,1.17,5.22,2.78,7.44c-0.29,1.48-0.67,2.9-0.6,4.48c0.4,9.15,0.25,18.31,0.45,27.45c0.27,11.8,1.66,23.58,2.64,35.37
			c0.11,1.3,0.83,2.53,1.07,3.84c0.25,1.39,0.84,2.27,2.33,2.27c2.05,0,1.18-1.68,1.24-2.55c0.67-8.68,1.26-17.36,1.78-26.05
			c0.2-3.33,1.12-6.65,0.06-10.01c-4.01-12.7-1.34-24.97,2.57-37.11c1.96-6.07,1.78-6.45-4.65-5.9c-4.8,0.41-6.74-1.78-5.67-6.63
			c0.52-2.36,1.36-4.65,2.06-6.97c2.31-4.25,3.15-8.89,3.56-13.64c1.16-10.56-0.47-20.93-2-31.34c-1.5-10.22-4.97-20.11-5.17-30.55
			c0.26-20.3-1-40.52-2.51-60.77c-1.54-20.77-4.93-41.05-10.82-61c-1.66-5.63-3.53-11.18-5.25-16.74
			c-2.53-8.15-4.88-16.55-5.5-25.26c-0.83-11.52-7.94-20.82-11.74-31.3c-0.75-2.06-2.39-3.76-4.18-5.32
			c-5.21-4.54-10.09-9.45-15.24-14.07c-4.62-4.14-8.64-9.49-14.97-10.85c-4.43-0.95-7.72-3.04-10.77-6
			c-0.43-4.61-0.85-9.22-1.32-14.28c-2.91,2.98-2.47,6.44-4.04,9.1c-6.08-2.94-12.6-4.31-19.14-5.79c-3.02-0.68-6.2-0.42-9.09-1.86
			c-8.41-4.17-17.28-5.45-26.56-3.88c-1.33,0.23-3.04,0.58-4.05-0.02c-7.28-4.29-15.61-4.68-23.54-6.33
			c-10.41-2.17-20.8-4.41-31.72-2.68c-9.71,1.54-19.57,2.13-29.36,3.37c-10.38,1.32-20.7,2.03-30.45,6.15
			c-10,0.95-20.01,1.9-30.09,2.86c-0.77-6-0.77-11.71,0.09-17.52c0.99-6.63,1.54-13.36,0.99-20.08c-0.2-2.46,0.64-4.33,1.8-6.4
			c2.09-3.73,6.4-5.53,7.93-9.83c0.47-1.33,3.03-1.64,4.89-1.69c19.4-0.54,38.8-1.14,58.2-1.61c2.82-0.07,5.32-0.54,7.83-1.94
			c4.67-2.61,9.66-4.49,14.95-5.57c3.88-0.79,7.71-1.91,11.25-3.78c5.91-3.13,11.95-2.62,16.75,1.47
			c7.25,6.19,15.5,11.7,19.11,21.31c0.25,0.68,1.04,3.27,3.28,1.33c13.89-12.03,31-9.88,47.41-10.52
			c17.1-0.66,34.23-0.67,51.31-1.59c8.26-0.44,15.11,2.39,22.09,6.03c11.5,6,14.11,16.66,16.27,28.14
			c4.11,21.87,4.66,43.97,5.4,66.09c0.87,26.24,4.28,52.24,7.5,78.26c1.9,15.3,2.88,30.72,4.34,46.08
			c1.67,17.5,6.11,34.61,7.67,52.1c2.09,23.33,7.31,46.09,11.43,69.05c0.75,4.18,0.65,8.52,0.93,12.78
			c0.13,1.95,0.24,3.62,3.13,2.91c3.37-0.83,4.12,2.53,4.98,4.35c3.77,8.01,6.61,16.36,7.05,25.34c0.08,1.72-0.08,3.33-0.68,4.94
			c-1.69,4.57-3.38,9.14-4.99,13.74c-1.52,4.34-3.71,8.13-8.42,9.54c-2.17,0.65-1.59,2.25-1.81,3.65
			c-1.49,9.12-0.58,17.97,1.82,26.91c2.3,8.56,0.7,17.33-0.98,25.86c-3.26,16.54-5.91,33.22-10.9,49.37
			c-3.42,11.07-6.89,22.12-10.51,33.13c-0.71,2.14-1.16,4.41-0.12,6.11c1.54,2.52,0.56,5.01,0.9,7.47
			c-1.47,2.15-3.38,3.85-5.36,5.53c-9.81,8.3-21.38,13.59-33.05,18.37c-12.11,4.96-24.85,8.26-37.72,10.79
			c-10.45,2.05-20.95,3.81-31.58,4.7c-0.52,0.04-1.41-0.11-1.15,0.78c0.09,0.33,1.02,0.41,1.56,0.62c0.04,0.02,0,0.21,0,0.63
			c-7.33-1.68-14.09-0.78-19.87,4.48c-0.81,0.74-2.29,1.08-3.45,1.05c-9.93-0.26-19.78,1.62-29.73,1.03
			c-25.75-1.51-51.48-3.39-77.25-4.35c-22.25-0.84-44.49-2.29-66.79-1.96c-21.22,0.31-42.42-0.38-63.64-1.59
			c-20.52-1.16-40.95-2.28-61-7.09C1490.4,594.54,1488.03,594.48,1485.83,595.93z M1773.44,543.95c0.08,0.45,0.37,0.86,0.77,0.5
			c0.42-0.38,0-0.67-0.43-0.79c-1.27-2.1,1.82-4.63-0.64-6.65c-0.32,0.71-0.63,1.38-0.93,2.05c-1.34-1-1.13-2.46-1.14-3.85
			c0.08-0.12,0.21-0.24,0.23-0.37c0.01-0.1-0.12-0.3-0.2-0.3c-1.36-0.05-2.95-2.19-4.01,0.44c-13.01,0-26.02,0-39,0
			c0.02,4.86,0.15,10.15-0.06,15.47c-0.34,8.89-0.16,17.81-0.03,26.72c0.02,1.12-0.24,2.81,1.43,3.44c1.15,2.94,3.72,1.91,5.78,1.9
			c12.61-0.06,25.22-0.35,37.83-0.25c2.6,0.02,0.37-0.81,0.51-1.19c2.17-5.69-0.31-11.82,1.63-17.56c0.17-0.49-0.63-1.31-0.98-1.98
			c0.74-3.89,0.86-7.78,0.03-11.68c0.86-2.07-0.52-2.8-2.05-3.45c0.01-1.11,0.01-2.21,0.02-3.32
			C1772.39,543.7,1772.72,544.11,1773.44,543.95z M1932.53,377.47c-0.9,0.46-1.76,1.15-2.71,1.32c-1.5,0.27-3.43,0.43-2.76,2.34
			c0.56,1.6,2.43,1.35,3.9,0.49c0.5-0.3,1.09-0.44,1.65-0.66c4.7-0.83,8.72-3.42,13.11-5.03c1.13-0.41,1.91-0.97,1.33-2.32
			c-0.47-1.09-1.24-1.89-2.46-1.24C1940.71,374.42,1936.06,374.63,1932.53,377.47z M1637.19,250.9c1.63,0.08,2.91-0.55,4.19-1.53
			c13.82-10.58,26.88-22.08,40.17-33.29c4.49-3.79,4.48-7.28,0.68-11.72c-11.42-13.32-23.59-26-34.37-39.87
			c-5.38-6.93-7.23-7.02-13.94-1.15c-13.74,12.02-25.86,25.75-39.78,37.59c-2.76,2.35-2.87,5.33-0.96,8.21
			c1.42,2.14,3.11,4.14,4.92,5.96c10.88,10.93,21.85,21.76,32.72,32.68C1632.65,249.61,1634.67,250.7,1637.19,250.9z M1734.98,23
			c3.78-2.45,3.4-6.71,5.2-9.95c3.11-5.58,6.17-11.18,9.6-16.59c3.07-4.83,2.37-6.28-3.12-7.81c-1.91-0.53-3.82-1.05-5.76-1.45
			c-6.45-1.34-12.99-1.59-19.56-1.53c-1.81,0.02-3.15,0.62-3.2,2.43c-0.06,2.39,1.92,1.26,3.06,1.36c2.28,0.2,4.59,0.06,6.85,0.39
			c4.8,0.7,7.59,4.43,6.98,9.13C1734.01,6.94,1736.46,14.9,1734.98,23z M1916.11,479.08c1.44,7.49,1.51,15.16,1.85,22.8
			C1917.83,494.26,1919.99,486.48,1916.11,479.08z M1950.91,367.01c0.18,2.75-0.12,4.9,1.41,6.64c0.07,0.08,0.96-0.27,1.01-0.5
			C1953.73,370.92,1952.81,369.11,1950.91,367.01z"/>
		<path class="st3" d="M1485.64,320.74c14.35-3.27,28.63-1.36,44.13-0.33c-3.04,2.35-5.29,1.06-7.6,1.83
			c8.02,0.36,15.68,0.71,23.35,1.04c0.84,0.04,1.84,0.52,2.35-0.66c4.07-0.3,8.1-0.17,12.18,0.27c5.99,0.64,12.03,1.01,18.04-0.04
			c13.53-0.31,27.01,0.25,40.47,1.71c0.29,0.16,0.35,0.38,0.17,0.65c-3.65,0.18-7.29,0.37-12.28,0.62
			c35.82,1.13,70.29,2.99,104.81,1.58c-14.47-0.45-28.95-0.06-43.4-0.58c-10.64-0.38-21.36,0.74-31.93-1.35
			c-0.1-0.3-0.07-0.58,0.09-0.85c16.5-0.68,32.96,0.47,49.44,0.79c36.94,0.72,73.88,1.46,110.84,1.02
			c4.86-0.06,9.52,0.81,14.24,2.17c3.85,1.1,5.19,3.56,6.39,6.75c1.96,5.21,2.66,10.63,2.91,16.13c0.5,11.09,0.96,22.18,1.44,33.27
			c-0.32,0.07-0.61-0.01-0.85-0.23c-1.15-6.14-1.88-12.35-1.66-18.57c0.35-10-0.3-19.84-3.03-29.49c-0.23-0.83-0.66-1.6-1.77-2.27
			c0.21,3.49,0.4,6.97,0.62,10.46c0.5,8.11,0.7,16.25-2.04,24c-1.38,3.92,0.48,7.44,0.8,10.99c0.38,4.24,1.09,8.13-0.16,12.39
			c-0.83,2.82-0.27,5.99,0.54,8.96c0.96,3.55-0.51,5.93-3.86,7.12c-8.55,3.06-17.1,5.49-26.33,6.47
			c-19.85,2.09-39.71,2.31-59.52,1.28c-32.2-1.68-64.39-1.47-96.6-1.67c-18.34-0.11-36.72,0.19-55.03-0.74
			c-20.14-1.02-40.34-0.65-60.44-2.55c-5.7-0.54-11.43-0.82-17.14-1.21c-5.81,0.21-11.4-1.06-16.95-2.57
			c-2.03-0.55-2.6-2.6-2.69-4.08c-0.65-11.74-4.11-23.07-4.86-34.83c-0.32-5.11-0.12-10.05,0.72-15c0.73-4.32,0.13-7.56-4.18-9.91
			c-3.84-2.09-3.64-4.8,0.22-7.2c2.68-1.67,5.46-3.36,8.43-4.33C1481.09,329.95,1483.09,325.17,1485.64,320.74z"/>
		<path class="st3" d="M1485.83,595.93c2.2-1.45,4.58-1.39,7.01-0.81c20.05,4.82,40.48,5.93,61,7.09
			c21.22,1.2,42.41,1.89,63.64,1.59c22.3-0.32,44.54,1.13,66.79,1.96c25.77,0.97,51.5,2.84,77.25,4.35
			c9.94,0.58,19.79-1.29,29.73-1.03c1.16,0.03,2.64-0.31,3.45-1.05c5.79-5.26,12.54-6.16,19.87-4.48c0-0.42,0.03-0.61,0-0.63
			c-0.54-0.22-1.47-0.3-1.56-0.62c-0.26-0.89,0.63-0.74,1.15-0.78c10.63-0.89,21.14-2.64,31.58-4.7
			c12.87-2.53,25.61-5.83,37.72-10.79c11.67-4.78,23.24-10.07,33.05-18.37c1.99-1.68,3.9-3.37,5.36-5.53
			c-0.17,9.42,0.51,19.06-2.56,28.02c-2.81,8.21-5.87,16.6-13.27,22.37c-7.57,5.91-14.77,12.3-22.35,18.21
			c-2.57,2-2.14,2.98,0.09,4.63c4.28,3.17,8.43,6.5,12.63,9.77c1.39,1.09,2.26,1.79,0.75,3.94c-1.62,2.31-2.16,1.65-3.54,0.14
			c-1.12-1.22-2.48-1.03-3.46,0.39c-2.9,4.23-6.55,7.85-9.55,12.04c-2.43,3.38-6.93,4.94-11.07,5.88c-3.27,0.74-6.24,1.46-7.25,4.97
			c-1.03,3.56-3.9,1.97-6.02,2.5c-1.38-1.43-3.04-1.66-5.57-1.41c2.1,1.6,3.9,1.27,5.59,1.38c4.34,2.8,9.81,2.73,15.03,5.89
			c-3.03,0.47-5.01,2.12-7.51,1.14c-1.08-0.42-1.63-0.04-2.29,0.77c-0.65,0.8-1.49,1.9-2.37,2.02c-7.28,1-14.04,4.34-21.42,4.8
			c-3.41,0.21-2.62-2.48-2.43-4.19c0.34-3.12-1.04-3.88-3.56-2.93c-6.42,2.42-13.55,1.3-19.9,4.3c-1.69,0.8-3.04,0.7-3.43,3.16
			c-0.56,3.54-4.03,3.29-6.62,3.34c-7.92,0.16-15.82-0.34-23.73-0.67c-9.95-0.42-19.97,0.98-29.92,0.56
			c-14.79-0.63-29.57-0.63-44.36-0.76c-5.81-0.05-11.52,0.62-17.2,1.67c-4,0.74-7.89-0.54-11.78-0.91
			c-6.56-0.62-12.98-0.32-19.52-0.03c-12.66,0.57-25.36,0.15-38.04,0.14c-5.2-4.3-11.23-1.26-16.85-1.87
			c-7.09-0.77-14.21-1.21-21.33-1.72c-4.85-0.35-9.58-0.79-14.23-2.65c-2.64-1.06-5.85-0.69-8.79-1.03c-1.27-0.15-2.73,0.5-4.53-1.6
			c6.77,0,12.83,0,18.75,0c0.28-1.9-0.53-2.21-1.26-2.09c-6.51,1.02-12.48-1.49-18.54-3.05c-2.3-0.59-4.13-2.85-6.26-4.23
			c-6.26-4.05-12.77-7.73-18.53-12.54c-1.74-1.45-3.91-2.4-5.58-3.92c-1.76-1.61-4.55-3.07-2.23-6.32c1.41-1.99,0.25-2.73-1.72-2.73
			c-6.01,0-9.22-4.03-12.71-8.18c-9.53-11.34-13.17-25.2-17.51-38.82C1485.17,600.25,1485.28,598.13,1485.83,595.93z
			 M1546.37,657.29c4.74,2.72,8.53,4.71,12.65,5.69c21.48,5.07,43.31,7.95,65.32,9.24c16.95,0.99,33.93,1.71,50.91,1.86
			c38.18,0.33,76.37,0.46,114.55-0.85c0.61-0.02,1.23,0,1.83-0.1c15.91-2.86,32.22-3.71,47.59-9.23c4.22-1.52,8.31-3.62,12.1-6.03
			c2.8-1.78,1.89-5.39,1.48-7.93c-0.21-1.28-3.19-0.05-4.9,0.5c-1.73,0.56-3.98,1.87-5.26,0.72c-2.82-2.54-5.51-0.9-8.1-0.36
			c-7.09,1.49-13.98,3.95-21,5.52c-16.51,3.7-33.6,1.23-50.34,3.67c-8.09,1.18-16.48,0.33-24.73,0.28
			c-52.54-0.27-105.11,1.57-157.62-1.34c-7.67-0.42-15.51,0.33-23.14-2.08C1554.59,655.86,1550.9,655.9,1546.37,657.29z
			 M1541.51,655.09c2.36,2,4.71,1.62,7.64,0C1546.28,655.09,1543.94,655.09,1541.51,655.09z"/>
		<path class="st3" d="M1830.32,60.05c3.05,2.96,6.34,5.05,10.77,6c6.33,1.35,10.35,6.71,14.97,10.85
			c5.15,4.61,10.03,9.52,15.24,14.07c1.79,1.56,3.44,3.26,4.18,5.32c3.79,10.48,10.91,19.78,11.74,31.3
			c0.63,8.71,2.97,17.11,5.5,25.26c1.73,5.56,3.59,11.11,5.25,16.74c5.89,19.95,9.28,40.24,10.82,61
			c1.51,20.25,2.77,40.47,2.51,60.78c-1.13,0.38-0.95,1.35-1.07,2.24c-1,7.33,2.22,13.98,3.35,20.97
			c1.18,7.28,3.78,14.35,3.25,21.89c-1.73-0.54-2.11-2.08-2.36-3.54c-1.29-7.63-2.88-15.18-5.16-22.6
			c-1.38-4.48-1.6-9.22-1.98-13.93c-0.39-4.79-2.05-9.44-2.77-14.26c-1.54-10.35-4.39-20.43-7.09-30.54
			c-3.16-11.86-8.26-23.06-11.14-35.04c-4.05-16.84-12.44-31.9-20.6-47.02c-9.43-17.47-24.69-29.91-37.75-44.24
			c-5.22-5.73-11.05-10.93-16.35-16.55c-11.03-11.72-25.29-17.28-39.77-22.6c-8.69-3.2-17.41-6.44-26.33-8.9
			c-13.77-3.8-27.72-6.95-41.59-10.39c-12.23-3.03-24.66-4.2-37.23-3.91c-35.06,0.8-69.07,6.47-101.04,21.67
			c-0.54,0.25-1.15,0.34-1.73,0.5c4.88-6.74,11.16-11.77,18.42-15.76c9.33-5.13,18.72-10.19,27.73-15.86
			c8.51-5.36,17.77-6.54,27.42-6.85c4.64-0.15,9.25-0.8,13.54-2.81c9.75-4.12,20.07-4.82,30.45-6.15
			c9.78-1.25,19.65-1.83,29.36-3.37c10.92-1.73,21.32,0.51,31.72,2.68c7.93,1.65,16.26,2.05,23.54,6.33
			c1.01,0.6,2.72,0.25,4.05,0.02c9.28-1.57,18.15-0.29,26.56,3.88c2.9,1.44,6.08,1.17,9.09,1.86c6.54,1.48,13.06,2.85,19.14,5.79
			C1826.2,57.16,1828.5,58.36,1830.32,60.05z"/>
		<linearGradient id="SVGID_4_" gradientUnits="userSpaceOnUse" x1="1591.8948" y1="205.002" x2="1685.0154" y2="205.002">
			<stop  offset="0" style="stop-color:#833AB4"/>
			<stop  offset="0.5" style="stop-color:#FD1D1D"/>
			<stop  offset="1" style="stop-color:#FCB045"/>
		</linearGradient>
		<path class="st4" d="M1637.19,250.9c-2.53-0.2-4.55-1.29-6.37-3.12c-10.87-10.93-21.84-21.76-32.72-32.68
			c-1.81-1.82-3.5-3.82-4.92-5.96c-1.91-2.88-1.8-5.86,0.96-8.21c13.91-11.84,26.03-25.57,39.78-37.59
			c6.71-5.87,8.56-5.78,13.94,1.15c10.78,13.88,22.95,26.55,34.37,39.87c3.81,4.44,3.82,7.93-0.68,11.72
			c-13.29,11.21-26.35,22.71-40.17,33.29C1640.1,250.35,1638.82,250.99,1637.19,250.9z M1653.46,199.66
			c-7.75,0-15.05,0.01-22.35-0.01c-1.8-0.01-3.67-0.57-5.14,1.05c-0.68,0.75-2.35,0.71-2.17,2.05c0.18,1.36,1.48,1.18,2.56,1.14
			c1.89-0.08,2.32,0.84,1.89,2.59c-0.99,3.99-1.83,8.02-2.8,12.02c-0.17,0.69-0.61,1.35-1.04,1.94c-0.48,0.67-2.64-0.73-1.92,1.38
			c0.39,1.14,1.4,1.83,2.8,2.02c4.14,0.55,7.57-1.52,9.12-5.98c1.2-3.45,2.34-6.97,3.05-10.54c0.63-3.18,2.11-3.69,5.1-3.29
			C1646.59,204.57,1651.17,205.72,1653.46,199.66z M1633.78,193.4c0.12,0.63,0.24,1.27,0.36,1.9c5.73,0,11.51-0.47,17.17,0.15
			c4.35,0.48,5.88-1.21,6.79-5.61C1649.89,192.48,1640.88,186.42,1633.78,193.4z"/>
		<path class="st5" d="M1772.21,543.09c-0.01,1.11-0.01,2.21-0.02,3.31c-0.54,1.12-0.56,2.29-0.55,3.54
			c0.09,8.51,0.08,17.02,0.13,25.53c0.01,2.33-0.08,4-3.36,3.95c-9.21-0.15-18.43,0.18-27.64,0.17c-9.59,0-9.65-0.08-9.5-9.87
			c0.16-10.45-0.61-20.92,0.33-31.37c1.23-1.61,2.98-1.11,4.59-1.12c11.1-0.01,22.2-0.01,33.3-0.01c-11.94-0.7-23.87-0.7-35.81-0.71
			c-1.32,0-2.52,0.05-2,1.93c-2.95-0.08-1.94,2.18-1.95,3.57c-0.15,12.86-0.19,25.72-0.27,38.58c-1.68-0.63-1.42-2.32-1.44-3.44
			c-0.14-8.91-0.32-17.82,0.03-26.72c0.2-5.32,0.07-10.61,0.06-15.47c12.97,0,25.99,0,38.99-0.01c1.32,0.07,2.65,0.16,3.98,0.24
			c0.01,1.39-0.2,2.85,1.14,3.84C1771.31,540.39,1771.48,541.74,1772.21,543.09z M1744.24,543.72c0.46,0.79,0.95,0.35,1.36-0.02
			c0.12-0.11,0.06-0.68,0.02-0.69c-0.64-0.1-1.16,0.05-1.28,0.8c-0.56,0.06-1.47-0.2-0.87,0.93c-3.36-0.29-5.35,2.65-8.23,3.55
			c-0.98,0.3-1.14,2.51-0.65,2.81c2.5,1.52,0.43,2.59-0.1,3.85c-0.47,1.1-0.93,2.23-1.22,3.39c-0.15,0.6,0.25,1.24,1,1.18
			c0.32-0.03,0.82-0.42,0.89-0.72c1.26-5.58,5.98-9.14,8.21-14.14C1744.04,544.69,1744.89,544.89,1744.24,543.72z M1766.11,548.53
			c0.27-0.28,0.63-0.57,0.12-0.9c-0.17-0.11-0.48,0-0.72,0.01c0.24,0.27,0.48,0.55,0.71,0.82c0.07,0.3,0.14,0.6,0.22,0.91
			c-1.67-0.08-2.65,0.5-2.29,2.38c-1.82-0.2-0.88,3.6-2.6,2.33c-3.05-2.25-3.63,0.73-5.17,1.77c-0.15-0.15-0.31-0.31-0.45-0.47
			c0.15-0.68,0.57-1.58-0.43-1.79c-1.16-0.25-1.27,0.92-1.64,1.66l0.03,0.08c-2.04-1.23,1.96-2.61-0.09-3.84
			c1.25-0.01,2.15-0.65,1.38-1.8c-0.77-1.14-1.71-0.47-2.26,0.59c-2.71,2.45-2.98,6.71-6.72,8.99c0.57-2.52,1.14-4.8-1.27-6.17
			c-1.13-0.64-1.49,0.51-2,1.17c-0.22-0.19-0.44-0.39-0.65-0.59c-0.02-0.83,0.73-1.76-0.45-2.59c-2.85,3.52-3.77,8.21-7.1,11.52
			c-1.62,1.61,0.89,4.74,3.22,5.14c2.66,0.45,6.02-3.23,8.11,1.35c0.35,0.76,1.06-0.4,1.3-1.1c0.32-0.93,0.95-1.68,2.01-1.46
			c5.1,1.08,10.62-1.17,15.49,2.16c1.85,1.26,1.66,0.67,2.94-0.95c3.09-3.89,1.59-7.88,0.9-11.92c0.66-2.12,0.83-4.24-0.08-6.34
			C1767.96,548.66,1767.51,547.32,1766.11,548.53z M1759.06,543.77c-0.16-0.9-1.17-1.22-1.47-0.87c-0.78,0.88,0.44,0.9,0.85,1.26
			c-1.92,1.33-4.19,2.05-6.37,1.74c-3.66-0.52-3.63-0.76-6.15,2.54c4.81,0,9.09-0.01,13.38,0.01c1.57,0.01,2.08-0.97,2.27-2.3
			c1.08,0.12,1.74,1.82,3.16,0.85c-0.74-1.06-1.52-1.91-2.95-1.46l0.06,0.08c-0.37-1.51-1.49-1.88-2.85-1.9L1759.06,543.77z
			 M1758.11,569.44c-4.14,2.66-8.61-0.36-12.96,1.62C1750.73,574.9,1757.15,574.28,1758.11,569.44z M1728.39,565.66
			c0.12-0.12,0.22-0.22,0.33-0.33c-0.2-0.1-0.4-0.24-0.62-0.29c-0.08-0.02-0.2,0.18-0.3,0.29
			C1728,565.45,1728.2,565.56,1728.39,565.66z"/>
		<path class="st3" d="M1903.26,372.54c-0.67-3.56-4.86-2.45-6.62-4.95c-0.7-1-2.02,1.3-2.61,2.34c-4.1,7.29-8.1,14.64-12.07,22
			c-1.95,3.6-3.96,7.18-5.62,10.91c-2.04,4.6-1.85,9.18,1.16,13.42c0.22,1.44-0.3,1.14-1.12,0.53c-3.65-2.69-4.93-7.71-2.47-12.77
			c4.12-8.47,8.52-16.81,13.03-25.08c3.78-6.94,7.79-13.76,11.92-20.5c1.27-2.08,1.25-3.58,0.27-5.79
			c-0.73-1.65-3.86-3.86-0.18-5.85c1.51,0.08,0.08,3.05,2.35,2.39c0,0,0,0,0,0c-1.22,1.47-0.37,2.22,0.98,2.79
			c0,0-0.09-0.11-0.09-0.11c-0.04,0.68-0.33,1.61,0.96,0.97c0,0,0.03-0.13,0.03-0.13c-1.44,3.14,1.69,4.74,2.57,7.06
			c1.09,2.88,3.23,5.37,4.98,7.98c0.32,0.48,1.13,0.97,0.52,1.45c-4.34,3.44-0.17,6.54,0.4,9.72c0.37,2.06,1.46,3.99,2.02,6.03
			c0.49,1.78,1.54,4.11-2.06,3.75c-1.61-2.23-1.97-4.92-2.78-7.46c-0.79,2.26,0.4,4.85-1.25,6.93c-2.48,0.65-0.65-2.71-2.61-2.67
			c-1.33,6.06-2.66,12.15-4.22,19.28c-0.61-3.01,0.44-4.7,0.49-6.45c0.07-2.44,2.36-4.85,0.2-7.32c0.72-4.08,2.07-8.05,4.24-11.46
			c2.28-3.59,1.29-6.4-0.59-9.43c-1.51-0.02-2.73,0.22-1.94,2.21L1903.26,372.54z"/>
		<path class="st3" d="M1731.61,538.36c-0.94,10.45-0.17,20.91-0.33,31.37c-0.15,9.79-0.09,9.86,9.5,9.87
			c9.21,0,18.43-0.32,27.64-0.17c3.28,0.05,3.38-1.62,3.36-3.95c-0.05-8.51-0.04-17.02-0.13-25.53c-0.01-1.25,0.01-2.42,0.55-3.54
			c1.53,0.66,2.91,1.39,2.05,3.46c-0.92,3.89-0.76,7.78-0.04,11.68c0.35,0.67,1.15,1.49,0.98,1.98c-1.94,5.74,0.54,11.87-1.63,17.56
			c-0.14,0.38,2.09,1.21-0.51,1.19c-12.61-0.11-25.22,0.19-37.83,0.25c-2.06,0.01-4.62,1.04-5.77-1.91
			c0.08-12.86,0.13-25.72,0.28-38.58c0.02-1.39-0.99-3.66,1.95-3.57L1731.61,538.36z"/>
		<path class="st5" d="M1916.83,336.47c0.53-7.54-2.07-14.61-3.25-21.89c-1.13-6.99-4.35-13.64-3.35-20.97
			c0.12-0.89-0.06-1.86,1.07-2.24c0.19,10.44,3.66,20.32,5.17,30.54c1.53,10.41,3.15,20.77,2,31.33c-0.28-0.05-0.55-0.09-0.83-0.14
			C1917.91,347.53,1917.96,341.97,1916.83,336.47z"/>
		<path class="st3" d="M1916.11,479.08c3.88,7.4,1.72,15.19,1.85,22.8C1917.63,494.23,1917.56,486.56,1916.11,479.08z"/>
		<path class="st5" d="M1578.1,322.85c-6.01,1.05-12.05,0.68-18.04,0.04c-4.08-0.44-8.11-0.57-12.18-0.27
			c-1.46-0.03-2.92-0.06-4.38-0.08c2.5-1.58,5.35,0.15,7.91-0.85C1560.31,322.08,1569.2,322.46,1578.1,322.85z"/>
		<path class="st3" d="M1917.63,353.1c0.28,0.04,0.55,0.09,0.83,0.14c-0.41,4.76-1.25,9.4-3.57,13.64
			c-1.61,0.56-1.89-0.09-1.35-1.47C1915.89,361.64,1915.06,356.81,1917.63,353.1z"/>
		<path class="st3" d="M1551.41,321.69c-2.56,1-5.42-0.73-7.91,0.85c-2.98,0.52-5.94,0.7-8.87-0.86
			C1540.2,320.74,1545.79,320.63,1551.41,321.69z"/>
		<path class="st5" d="M1820.43,384.53c0.24,0.22,0.53,0.3,0.85,0.23c0,6.34,0,12.69,0,19.03
			C1819.81,397.41,1820.69,390.95,1820.43,384.53z"/>
		<path class="st5" d="M1774.21,561.53c-0.72-3.89-0.88-7.79,0.04-11.68C1775.08,553.75,1774.95,557.64,1774.21,561.53z"/>
		<path class="st5" d="M1618.74,325.21c0.17-0.28,0.11-0.5-0.17-0.65c5.82,0.03,11.64,0.06,17.45,0.09
			c-0.17,0.27-0.2,0.55-0.09,0.85C1630.2,325.4,1624.47,325.31,1618.74,325.21z"/>
		<path class="st6" d="M1950.91,367.01c1.9,2.1,2.82,3.91,2.42,6.15c-0.04,0.23-0.94,0.58-1.01,0.5
			C1950.8,371.91,1951.09,369.76,1950.91,367.01z"/>
		<path class="st6" d="M1772.21,543.09c-0.73-1.35-0.9-2.7,0-4.04c0.3-0.66,0.61-1.32,0.93-2.04c2.46,2.02-0.63,4.55,0.64,6.65
			l-0.35,0.28C1772.72,544.11,1772.39,543.7,1772.21,543.09z"/>
		<path class="st6" d="M1771.08,535.21c-1.33-0.08-2.66-0.17-3.98-0.24c1.06-2.63,2.66-0.48,4.02-0.43c0.08,0,0.21,0.21,0.2,0.3
			C1771.29,534.97,1771.16,535.09,1771.08,535.21z"/>
		<path class="st5" d="M1901.3,349.19c-2.27,0.66-0.83-2.31-2.35-2.39c0.43-0.77,1.19-1.7,1.92-1.16
			C1902.02,346.5,1901.82,347.92,1901.3,349.19z"/>
		<path class="st5" d="M1903.15,372.32c-0.78-1.99,0.43-2.24,1.94-2.21C1904.39,370.79,1905.66,373.22,1903.15,372.32z"/>
		<path class="st5" d="M1902.28,351.99c-1.35-0.57-2.19-1.32-0.98-2.79C1902.38,349.87,1902.82,350.76,1902.28,351.99z"/>
		<polygon class="st6" points="1894.12,419.41 1894.19,419.55 1894.08,419.42 		"/>
		<path class="st5" d="M1903.16,352.85c-1.29,0.64-1-0.29-0.96-0.97C1903.29,351.43,1903.35,352.02,1903.16,352.85z"/>
		<path class="st6" d="M1773.79,543.66c0.43,0.12,0.85,0.41,0.43,0.79c-0.39,0.36-0.69-0.05-0.77-0.5
			C1773.44,543.95,1773.79,543.66,1773.79,543.66z"/>
		<polygon class="st6" points="1893.27,422.15 1893.42,422.36 1893.23,422.17 		"/>
		<path class="st7" d="M1618.74,325.21c5.73,0.09,11.46,0.19,17.19,0.28c10.57,2.08,21.29,0.96,31.93,1.35
			c14.45,0.52,28.94,0.13,43.4,0.58c-34.52,1.41-68.99-0.45-104.81-1.58C1611.44,325.58,1615.09,325.4,1618.74,325.21z"/>
		<path class="st7" d="M1592.62,582.06c3.7-1.13,6.71-1.17,9.25-0.37c6.23,1.96,12.63,1.35,18.89,1.7
			c42.87,2.37,85.79,0.87,128.68,1.09c6.74,0.04,13.59,0.73,20.19-0.23c13.67-1.99,27.61,0.02,41.1-2.99
			c5.73-1.28,11.36-3.29,17.15-4.51c2.11-0.44,4.31-1.78,6.61,0.29c1.04,0.94,2.88-0.13,4.29-0.59c1.4-0.45,3.83-1.45,4-0.41
			c0.34,2.07,1.07,5.02-1.21,6.47c-3.09,1.96-6.43,3.68-9.88,4.92c-12.54,4.51-25.86,5.2-38.85,7.54c-0.49,0.09-0.99,0.07-1.49,0.08
			c-31.17,1.07-62.34,0.97-93.52,0.7c-13.86-0.12-27.72-0.7-41.56-1.52c-17.96-1.05-35.79-3.4-53.33-7.54
			C1599.58,585.91,1596.48,584.28,1592.62,582.06z"/>
		<path class="st7" d="M1588.65,580.26c1.98,0,3.89,0,6.24,0C1592.5,581.59,1590.58,581.9,1588.65,580.26z"/>
		<path class="st5" d="M1845.63,596.49c-1.38-0.09-2.85,0.18-4.57-1.13c2.07-0.21,3.42-0.02,4.55,1.15
			C1845.61,596.52,1845.63,596.49,1845.63,596.49z"/>
		<path class="st7" d="M1653.46,199.66c-2.29,6.06-6.87,4.91-10.9,4.36c-2.98-0.41-4.47,0.11-5.1,3.29
			c-0.71,3.58-1.85,7.09-3.05,10.54c-1.55,4.47-4.98,6.53-9.12,5.98c-1.4-0.18-2.41-0.88-2.8-2.02c-0.71-2.11,1.44-0.71,1.92-1.38
			c0.43-0.59,0.87-1.25,1.04-1.94c0.97-4,1.81-8.03,2.8-12.02c0.44-1.76,0.01-2.67-1.89-2.59c-1.08,0.05-2.38,0.23-2.56-1.14
			c-0.18-1.33,1.49-1.3,2.17-2.05c1.47-1.61,3.34-1.05,5.14-1.05C1638.41,199.67,1645.71,199.66,1653.46,199.66z"/>
		<path class="st7" d="M1633.78,193.4c7.1-6.98,16.11-0.92,24.32-3.55c-0.91,4.4-2.44,6.09-6.79,5.61
			c-5.66-0.63-11.44-0.15-17.17-0.15C1634.02,194.67,1633.9,194.03,1633.78,193.4z"/>
		<path class="st7" d="M1753.8,551.47c2.05,1.23-1.95,2.61,0.09,3.83c-2.92,0.93-4.54,4.15-4.68,8.96c4.17,0,8.33,0,12.75,0
			c-2.08-3.72-5.52-1.65-8.12-2.5c-2.73-0.9-3.22-0.1-1.96-2.99c0.54-1.24,1.31-2.37,1.98-3.55c0.37-0.74,0.48-1.91,1.64-1.66
			c1,0.22,0.58,1.11,0.43,1.79c-0.25,0.37-0.49,0.74-0.74,1.11c-0.7,0.53-1.46,1.29-0.49,1.94c0.53,0.35,1-0.72,1.28-1.35
			c0.13-0.41,0.27-0.82,0.4-1.23c1.53-1.04,2.12-4.03,5.17-1.77c1.72,1.27,0.78-2.53,2.6-2.33c0.31,0.26,0.62,0.51,0.93,0.77
			c-0.64,1.55-1.29,3.1-1.93,4.66c-0.82,0.94-0.72,1.94-0.17,2.97c-0.16-0.23-0.31-0.48-0.48-0.7c-0.02-0.03-0.15,0.02-0.23,0.03
			c0.23,0.22,0.46,0.45,0.69,0.67c0.28-0.8,0.56-1.6,0.84-2.39c0.63-1.65,3.01-0.34,3.56-2.11c0.33,0.81,0.77,0.85,1.32,0.21
			c0.69,4.04,2.19,8.03-0.9,11.92c-1.28,1.62-1.09,2.21-2.94,0.95c-4.86-3.33-10.38-1.08-15.49-2.16c-1.06-0.22-1.69,0.53-2.01,1.46
			c-0.24,0.7-0.95,1.86-1.3,1.1c-2.09-4.59-5.45-0.9-8.11-1.35c-2.33-0.4-4.83-3.53-3.22-5.14c3.33-3.31,4.24-8,7.1-11.52
			c1.18,0.82,0.43,1.75,0.45,2.59c-0.81,0.37-0.84,1.13-0.9,1.86c-0.49,0.93-1.86,1.68-0.62,2.97c-2.52,0.97-2.88,2.77-1.84,5.01
			c0.28,0.61-2.63,0.76-0.23,1.22c2.05,0.39,4.24,0.05,6.37-0.04c1.35-0.05,1.52-1.3,1.93-2.22c0.08-0.18-0.53-0.88-0.54-0.87
			c-4.18,2.5-1.38-2.37-1.79-2.51c-2.78,0.08-1.42,3.09-3.5,2.88c-1.55-1.12-0.2-2.38-0.49-3.51c1.24-0.35,0.79-1.63,1.32-2.37
			c0.32-0.61,0.64-1.22,0.96-1.83c0.52-0.66,0.88-1.81,2-1.17c2.42,1.37,1.85,3.65,1.27,6.17c3.74-2.28,4.02-6.54,6.72-8.99
			C1753.21,550.66,1753.51,551.07,1753.8,551.47z"/>
		<path class="st7" d="M1743.38,544.65c-2.23,5-6.95,8.56-8.21,14.14c-0.07,0.3-0.57,0.7-0.89,0.72c-0.75,0.06-1.15-0.58-1-1.18
			c0.29-1.16,0.75-2.28,1.22-3.39c0.53-1.26,2.6-2.33,0.1-3.85c-0.49-0.3-0.34-2.5,0.65-2.81c2.89-0.9,4.88-3.83,8.23-3.55
			C1743.48,544.74,1743.38,544.65,1743.38,544.65z"/>
		<path class="st6" d="M1761.55,546.14c-0.18,1.33-0.69,2.3-2.27,2.3c-4.29-0.02-8.57-0.01-13.38-0.01c2.53-3.3,2.49-3.06,6.15-2.54
			c2.18,0.31,4.45-0.41,6.37-1.74c0.17-0.2,0.38-0.33,0.63-0.39c0,0-0.08-0.06-0.08-0.06c-0.16,2.29,1.69,1.59,2.85,1.9
			c0,0-0.06-0.08-0.06-0.08C1761.76,545.76,1761.69,545.96,1761.55,546.14z"/>
		<path class="st7" d="M1731.69,538.45c-0.52-1.87,0.68-1.93,2-1.93c11.93,0.01,23.87,0.01,35.81,0.71c-11.1,0-22.2-0.01-33.3,0.01
			c-1.61,0-3.36-0.49-4.59,1.12C1731.61,538.36,1731.69,538.45,1731.69,538.45z"/>
		<path class="st3" d="M1758.11,569.44c-0.96,4.84-7.38,5.46-12.96,1.62C1749.49,569.08,1753.97,572.1,1758.11,569.44z"/>
		<path class="st6" d="M1768.69,555.82c-0.55,0.65-1,0.6-1.32-0.19c-0.46-1.58-0.52-3.16,0.12-4.73c0.38-0.47,0.75-0.95,1.13-1.42
			C1769.52,551.59,1769.34,553.7,1768.69,555.82z"/>
		<path class="st7" d="M1761.55,546.14c0.14-0.18,0.21-0.39,0.22-0.61c1.43-0.45,2.21,0.41,2.95,1.46
			C1763.29,547.97,1762.63,546.26,1761.55,546.14z"/>
		<path class="st7" d="M1761.83,545.61c-1.16-0.32-3.01,0.39-2.85-1.9C1760.34,543.73,1761.46,544.11,1761.83,545.61z"/>
		<path class="st7" d="M1764.15,551.73c-0.36-1.87,0.62-2.46,2.29-2.38c0,0-0.15-0.16-0.15-0.16c0.04,1.26,0,2.5-1.21,3.3
			C1764.77,552.24,1764.46,551.99,1764.15,551.73z"/>
		<path class="st7" d="M1752.92,550.26c0.54-1.06,1.48-1.73,2.26-0.59c0.77,1.14-0.13,1.79-1.38,1.8
			C1753.51,551.07,1753.21,550.66,1752.92,550.26z"/>
		<path class="st7" d="M1768.61,549.48c-0.38,0.47-0.75,0.95-1.13,1.41c-0.15-0.75-0.15-1.59-1.2-1.69c0,0,0.15,0.16,0.15,0.16
			c-0.07-0.3-0.14-0.6-0.22-0.91l-0.13,0.09C1767.51,547.32,1767.96,548.66,1768.61,549.48z"/>
		<path class="st7" d="M1759.06,543.77c-0.25,0.06-0.47,0.19-0.63,0.39c-0.41-0.37-1.63-0.38-0.84-1.26
			C1757.89,542.55,1758.91,542.87,1759.06,543.77z"/>
		<path class="st7" d="M1744.35,543.8c0.12-0.75,0.64-0.9,1.28-0.8c0.04,0.01,0.1,0.57-0.02,0.69c-0.41,0.38-0.9,0.81-1.36,0.02
			L1744.35,543.8z"/>
		<path class="st7" d="M1744.24,543.72c0.65,1.17-0.2,0.97-0.86,0.93c0,0,0.1,0.09,0.1,0.09c-0.6-1.13,0.31-0.87,0.87-0.93
			C1744.35,543.8,1744.24,543.72,1744.24,543.72z"/>
		<path class="st7" d="M1766.22,548.45c-0.24-0.27-0.48-0.55-0.71-0.82c0.24-0.01,0.55-0.11,0.72-0.01
			c0.51,0.33,0.14,0.63-0.13,0.91C1766.09,548.54,1766.22,548.45,1766.22,548.45z"/>
		<path class="st7" d="M1728.39,565.66c-0.19-0.11-0.39-0.22-0.59-0.33c0.1-0.1,0.23-0.3,0.3-0.29c0.22,0.05,0.41,0.18,0.62,0.29
			C1728.62,565.44,1728.52,565.54,1728.39,565.66z"/>
		<path class="st6" d="M1899.4,408.89c-0.08,0.9-0.16,1.8-0.26,2.85c-1.12-1.19-0.66-2.06,0.22-2.88L1899.4,408.89z"/>
		<path class="st6" d="M1899.36,408.87c0.05-0.57,0.1-1.15,0.17-1.94c0.83,0.89,0.4,1.43-0.14,1.97
			C1899.4,408.89,1899.36,408.87,1899.36,408.87z"/>
		<polygon class="st6" points="1895.28,425.14 1895.31,425.56 1895.12,425.52 		"/>
		<path class="st6" d="M1896.13,422.23c0.04,0.18,0.1,0.3,0.09,0.42c-0.02,0.11-0.12,0.21-0.18,0.31
			C1896.07,422.74,1896.1,422.51,1896.13,422.23z"/>
		<path class="st5" d="M1753.86,555.22c-0.67,1.18-1.44,2.31-1.98,3.55c-1.26,2.89-0.77,2.09,1.96,2.99c2.6,0.85,6.03-1.22,8.12,2.5
			c-4.42,0-8.58,0-12.75,0c0.14-4.82,1.76-8.03,4.68-8.96C1753.89,555.31,1753.86,555.22,1753.86,555.22z"/>
		<path class="st5" d="M1740.65,558.45c0.29,1.14-1.06,2.39,0.49,3.51c2.08,0.21,0.72-2.8,3.5-2.88c0.41,0.14-2.4,5.01,1.79,2.51
			c0.01-0.01,0.62,0.69,0.54,0.87c-0.41,0.92-0.58,2.16-1.93,2.22c-2.13,0.09-4.32,0.43-6.37,0.04c-2.4-0.46,0.51-0.61,0.23-1.22
			c-1.04-2.23-0.68-4.04,1.84-5.01L1740.65,558.45z"/>
		<path class="st5" d="M1766.29,549.2c1.05,0.1,1.05,0.94,1.2,1.69c-0.64,1.58-0.58,3.16-0.12,4.74c-0.56,1.76-2.94,0.45-3.56,2.1
			c-0.22-0.2-0.43-0.39-0.66-0.57c0.64-1.55,1.29-3.1,1.93-4.65C1766.29,551.7,1766.33,550.46,1766.29,549.2z"/>
		<path class="st5" d="M1740.74,558.49c-1.24-1.29,0.13-2.04,0.62-2.97c0.2,0.18,0.41,0.37,0.6,0.56c-0.52,0.74-0.08,2.03-1.32,2.37
			C1740.65,558.45,1740.74,558.49,1740.74,558.49z"/>
		<path class="st5" d="M1741.36,555.52c0.06-0.74,0.09-1.49,0.9-1.86c0.21,0.2,0.43,0.4,0.65,0.59c-0.32,0.61-0.64,1.22-0.96,1.83
			C1741.77,555.89,1741.57,555.71,1741.36,555.52z"/>
		<path class="st5" d="M1755.98,557.07c-0.29,0.62-0.76,1.69-1.29,1.35c-0.97-0.64-0.21-1.4,0.49-1.94
			C1755.45,556.67,1755.72,556.87,1755.98,557.07z"/>
		<path class="st5" d="M1763.8,557.73c-0.28,0.8-0.56,1.6-0.84,2.39l0.02,0c-0.55-1.02-0.65-2.02,0.17-2.96
			C1763.37,557.34,1763.59,557.53,1763.8,557.73z"/>
		<path class="st5" d="M1755.19,556.48c0.25-0.37,0.49-0.74,0.74-1.11c0.15,0.16,0.3,0.32,0.45,0.47c-0.13,0.41-0.27,0.82-0.4,1.23
			C1755.72,556.87,1755.45,556.67,1755.19,556.48z"/>
		<path class="st5" d="M1762.96,560.12c-0.23-0.22-0.46-0.45-0.69-0.67c0.08-0.01,0.2-0.06,0.23-0.03c0.17,0.22,0.32,0.47,0.48,0.7
			C1762.98,560.12,1762.96,560.12,1762.96,560.12z"/>
	</g>
</g>
<g id="Layer_7">
	<g>
		<defs>
			<polygon id="SVGID_5_" points="950,500 0,500 0,0 475,0 			"/>
		</defs>
		<clipPath id="SVGID_6_">
			<use xlink:href="#SVGID_5_"  style="overflow:visible;"/>
		</clipPath>
		<g class="st8">
			<g>
				<path class="st9" d="M392.72,357.14l68.34-40.99l67.54-40.76l67.01-40.32l66.88-39.82l-1.99,3.45
					c-0.21-23.83-0.31-47.65-0.42-71.48l-0.33-71.48l-0.24-142.96l7.53,4.31l-68.01,39.85C576.35-29.79,553.73-16.43,531-3.25
					l-68.14,39.63c-22.69,13.24-45.48,26.33-68.22,39.48l1.86-3.26c-0.19,23.44-0.37,46.87-0.72,70.38l-1.03,70.72l-1.12,71.36
					L392.72,357.14z M392.72,357.14l-0.91-70.18l-1.12-70.91l-1.03-71.55c-0.35-23.92-0.53-47.91-0.72-71.89l-0.02-2.13l1.88-1.12
					c22.56-13.48,45.07-27.03,67.67-40.42l67.76-40.27c22.57-13.46,45.24-26.74,67.86-40.11l67.89-40.06l7.55-4.45l-0.01,8.76
					l-0.24,142.96l-0.33,71.48c-0.11,23.83-0.21,47.65-0.42,71.48l-0.02,2.33l-1.96,1.12l-69.01,39.39l-68.89,38.9l-68.35,38.46
					L392.72,357.14z"/>
			</g>
			<g>
				<path class="st9" d="M368.81-319.93l63.16,32.37l63.44,32.74l63.61,33.07c21.24,11.04,42.44,22.23,63.69,33.36l6.16,3.23
					l-6.06,3.56l-31.83,18.71l-31.87,18.62l-63.77,37.22L367.61-32.96l-2.45,1.42l-2.47-1.37l-121.9-67.75l-60.84-34.07
					l-30.42-17.04l-30.37-17.14l-5.95-3.36l5.84-3.41l62.63-36.55l62.57-36.26l62.41-35.91L368.81-319.93z M368.81-319.93
					l-61.74,38.27l-61.47,37.89l-61.31,37.55l-61.25,37.25l-0.11-6.76l30.65,16.62l30.6,16.72l61.19,33.45l122.16,67.29l-4.92,0.04
					l128.02-73.59l64.12-36.61l32.07-18.29l32.12-18.21l0.11,6.79c-20.77-11.36-41.57-22.66-62.35-34.12l-62.42-34.42l-62.59-34.75
					L368.81-319.93z"/>
			</g>
			<g>
				<path class="st9" d="M340.08,360.31l-67.56-38.24l-68.35-38.46l-68.88-38.91l-69.01-39.39l-1.95-1.12l-0.02-2.32l-0.27-35.74
					l-0.17-35.74l-0.34-71.48L63.29-84.04l-0.02-8.76l7.55,4.45l67.89,40.05l67.86,40.1l67.76,40.27
					c22.61,13.39,45.13,26.92,67.68,40.41l1.9,1.14l-0.02,2.15c-0.2,23.98-0.37,47.98-0.72,71.9l-1.04,71.56l-1.13,70.91
					L340.08,360.31z M340.08,360.31l-0.93-72.1l-1.13-71.36l-1.04-70.71c-0.36-23.5-0.52-46.93-0.72-70.37l1.88,3.29
					c-22.75-13.15-45.52-26.26-68.21-39.5L201.8-0.07l-68.04-39.81L65.76-79.73l7.53-4.31L73.04,58.92L72.7,130.4l-0.17,35.74
					l-0.27,35.74l-1.97-3.43l66.89,39.82l67.01,40.31l67.55,40.75L340.08,360.31z"/>
			</g>
			<g>
				<path class="st9" d="M364.82-373.23c-28.26,18.03-56.63,35.87-85.06,53.6l-42.68,26.55l-21.35,13.25l-21.39,13.19
					c-28.5,17.62-57.08,35.09-85.65,52.58l-85.86,52.23l0.01-20.91l44.01,24.32l43.98,24.38l43.93,24.45l43.9,24.51l87.69,49.21
					l87.56,49.43l-18.17,0l86.61-51.07c28.85-17.05,57.79-33.96,86.7-50.91l86.84-50.67l86.94-50.5l30.06-17.46l-0.04,34.76
					l-0.11,100.32l-0.33,100.32l-0.59,100.32l-0.79,100.32l-0.08,10.66l-8.99,5.07l-87.56,49.44
					c-29.18,16.49-58.46,32.8-87.69,49.21l-21.93,12.29l-21.97,12.23l-43.93,24.45l-21.97,12.22l-22.01,12.16l-44.01,24.32
					l-6.38,3.53l-5.78-3.53l-85.85-52.38c-28.56-17.56-57.15-35.07-85.64-52.75l-42.74-26.51l-42.67-26.63
					c-28.43-17.79-56.79-35.68-85.05-53.77c29.75,15.5,59.39,31.2,88.97,47l44.34,23.75l44.27,23.87
					c29.51,15.92,58.93,31.99,88.37,48.02l88.16,48.39h-12.16l43-26.07l21.5-13.03l21.54-12.97l43.07-25.94l21.54-12.97l21.57-12.9
					c28.78-17.18,57.5-34.46,86.33-51.56l86.46-51.33l-9.07,15.73l-0.79-100.32L693.3,28.34l-0.33-100.32l-0.11-100.32l30.02,17.3
					l-87.07,50.27l-87.18,50.09c-29.09,16.64-58.16,33.32-87.31,49.86l-87.41,49.7l-9.28,5.28l-8.89-5.28L269.28-6.4l-86.33-51.56
					l-43.11-25.87l-43.08-25.93l-43.03-26.01l-43-26.06l-18.13-10.99l18.14-9.93L98.91-231c29.44-15.99,58.86-32.01,88.36-47.88
					l22.11-11.93l22.15-11.87l44.33-23.68C305.45-342.12,335.08-357.77,364.82-373.23z"/>
			</g>
		</g>
	</g>
	<g>
	</g>
	<g>
	</g>
	<g>
	</g>
	<g>
	</g>
	<g>
	</g>
	<g>
	</g>
</g>
</svg>
