<svg xmlns="http://www.w3.org/2000/svg" xmlns:xlink="http://www.w3.org/1999/xlink" viewBox="0 0 423.5 470.5" xmlns:v="https://vecta.io/nano"><defs><linearGradient id="A" x1="260.86" y1="306.93" x2="427.8" y2="306.93" gradientUnits="userSpaceOnUse"><stop offset="0" stop-color="#833ab4"/><stop offset=".52" stop-color="#fd1d1d"/><stop offset=".95" stop-color="#fcb045"/></linearGradient><linearGradient id="B" x1="99.22" y1="133.36" x2="407.78" y2="133.36" xlink:href="#A"/><linearGradient id="C" x1="73.48" y1="308.75" x2="240.42" y2="308.75" xlink:href="#A"/><linearGradient id="D" x1="29.33" y1="253.51" x2="460.69" y2="253.51" xlink:href="#A"/></defs><g transform="translate(-37.21 -18.26)"><path d="M265.86 439.61l19.93-12.16 19.7-12.1 38.83-24 38.3-23.58 38.17-23.08-2 3.46-.42-41.28-.37-41.3-.2-82.57 7.53 4.31L386 210.3l-39.33 22.91L307.29 256l-39.52 22.6 1.87-3.26-.72 40.32-1 40.65-1.12 41.3-.49 20.91zm0 0l-.43-20-.49-20.16-1.11-40.86-1-41.49-.72-41.83v-2.12l1.89-1.14 39-23.54 39-23.35 39.14-23.23 39.18-23.17 7.55-4.47v8.77l-.24 82.55-.34 41.28-.42 41.28v2.36l-1.95 1.09-40.3 22.66-40.28 22.16-39.64 21.72-19.53 10.77z" fill="url(#A)"/><path d="M252.14 49l18.2 9 18.28 9.11 36.76 18.46 36.94 18.79 37 19.07 6.17 3.19-6.06 3.61-18.29 10.89-18.34 10.78-36.69 21.6-36.8 21.42-36.81 21.39-2.45 1.42-2.47-1.37-35.13-19.57-35.11-19.6-35-19.78-17.5-9.89-17.45-10-6-3.41 5.84-3.36 36.41-20.93L180 89.2l36.19-20.3 18-10zm0 0l-17.8 11.4-17.72 11.24-35.24 22.27-35.09 21.93-35 21.62-.11-6.76 17.73 9.48 17.69 9.57 35.35 19.16 35.26 19.33 35.24 19.37h-4.92l36.93-21.19 36.95-21.15 37.05-21L377 133.86l18.58-10.39.11 6.79-35.67-19.84-35.77-20.13-35.92-20.47-18.05-10.35z" fill="url(#B)"/><path d="M235.45 441.43l-19.31-10.72-19.54-10.78-39.6-21.72L116.8 376l-40.3-22.66-1.94-1.09v-2.34l-.26-20.64-.17-20.63-.34-41.28-.25-82.55v-8.78l7.46 4.51 39.17 23.17 39.15 23.22 39 23.39 39 23.52 1.91 1.16v2.13l-.72 41.85-1 41.5-1.14 40.85-.49 20.15zm0 0l-.45-21.12-.49-20.92-1.13-41.3-1-40.65-.72-40.31 1.88 3.3-39.5-22.62-39.42-22.76-39.32-22.92-39.3-23 7.53-4.31-.25 82.55-.34 41.28-.17 20.63-.29 20.72-2-3.43 38.18 23.09L157 393.18l38.84 24 19.7 12.08z" fill="url(#C)"/><path d="M250 18.26l-24.58 15.36q-12.28 7.68-24.63 15.27L176.12 64.1l-12.34 7.6-12.37 7.53-49.49 30.16-49.59 30V128.9L103 157.11l50.59 28.35 50.51 28.46 50.45 28.58h-9.08l50-29.4 50-29.29 50.08-29.21 50.13-29.12 15-8.73v17.38l-.06 57.87-.17 57.85-.27 57.84-.39 57.85v5.32l-4.5 2.55L404.8 402l-50.51 28.47-50.59 28.31L253 487l-3.17 1.77L247 487l-49.6-30.05-49.48-30.25-49.37-30.44q-12.35-7.59-24.63-15.31l-24.61-15.43 25.6 13.64q12.8 6.84 25.54 13.74l51 27.68 50.87 27.86L253 476.49h-6l49.68-29.9 49.77-29.76 49.83-29.65 49.9-29.52-4.54 7.86-.39-57.85-.27-57.84-.21-57.83-.07-57.85 15 8.65-50.21 29-50.26 28.9-50.31 28.81-50.38 28.71-4.63 2.64-4.45-2.64-49.9-29.53L145.73 199 96 169.25l-49.72-29.89-9.07-5.46 9.08-5 50.75-28 50.86-27.75 12.71-6.94 12.75-6.89 25.5-13.76q12.75-6.91 25.54-13.7z" fill="url(#D)"/></g></svg>